<?xml version="1.0" encoding="utf-8"?>
<!-- Generator: Adobe Illustrator 19.2.0, SVG Export Plug-In . SVG Version: 6.00 Build 0)  -->
<svg version="1.1" id="Слой_1" xmlns="http://www.w3.org/2000/svg" xmlns:xlink="http://www.w3.org/1999/xlink" x="0px" y="0px"
	 viewBox="0 0 2467.7 547" style="enable-background:new 0 0 2467.7 547;" xml:space="preserve">
<style type="text/css">
	.st0{fill:#13007C;}
	.st1{fill:#29ABE2;stroke:#13007C;stroke-width:5;stroke-miterlimit:10;}
	.st2{fill:#F7931E;stroke:#13007C;stroke-width:5;stroke-miterlimit:10;}
</style>
<path class="st0" d="M-0.4,547c662-0.6,1328.1-1.3,1990-1.9c0.2-1.6,0.4-3.2,0.6-4.8c0.1-0.7,0.2-1.4,0.2-2.1
	c4-26.4,13.9-59.3,40.2-81.7c82.5-70.5,238.5,37.3,285-17c32.4-37.8,2.7-143.2-64.1-187c-76.9-50.4-140.1,22.2-304.6,26.2
	c-220.4,5.2-277.7-121.2-418.4-69.3c-97.2,35.8-114.6,104.5-215.7,115.1c-77.6,8.1-102-50.7-188.3-53.8
	c-107,0.7-212.8,101.3-434.2,90.6c-132-6.4-580.7-137.4-690.7-103.4V547z"/>
<circle class="st1" cx="1964.9" cy="61.9" r="37.7"/>
<circle class="st1" cx="2378.3" cy="142.8" r="43.3"/>
<circle class="st2" cx="2076.6" cy="179.5" r="21.2"/>
<circle class="st2" cx="2111.4" cy="491.3" r="13.6"/>
<circle class="st2" cx="1380.9" cy="202.9" r="10.3"/>
</svg>
