<?xml version="1.0" encoding="utf-8"?>
<!-- Generator: Adobe Illustrator 19.2.0, SVG Export Plug-In . SVG Version: 6.00 Build 0)  -->
<svg version="1.1" id="Слой_1" xmlns="http://www.w3.org/2000/svg" xmlns:xlink="http://www.w3.org/1999/xlink" x="0px" y="0px"
	 viewBox="0 0 2467.7 1858.4" style="enable-background:new 0 0 2467.7 1858.4;" xml:space="preserve">
<style type="text/css">
	.st0{fill:#13007C;}
	.st1{fill:#29ABE2;stroke:#13007C;stroke-width:5;stroke-miterlimit:10;}
	.st2{fill:#F7931E;stroke:#13007C;stroke-width:5;stroke-miterlimit:10;}
</style>
<path class="st0" d="M2316,639.3c-46.5,54.3-202.5-53.5-285,17c-26.3,22.4-37.9,51.1-41,88.6c-3,76.4,67.3,166.2,29.8,203.7
	c-65.3,65.2-168-66.3-485.3-9.3c-181.8,32.6-309,259.7-651.9,188.3C421.5,1031.5-2,1858.4-2,1858.4L0,457.7
	c110-34,558.7,97,690.7,103.4c221.4,10.7,327.2-89.9,434.2-90.6c86.3,3.1,110.7,61.9,188.3,53.8c101.1-10.6,118.5-79.3,215.7-115.1
	c140.7-51.9,198,74.5,418.4,69.3c164.5-4,227.7-76.6,304.6-26.2C2318.7,496.1,2348.4,601.5,2316,639.3z"/>
<circle class="st1" cx="1965.4" cy="259.8" r="37.7"/>
<circle class="st1" cx="2378.8" cy="340.7" r="43.3"/>
<circle class="st2" cx="2077.1" cy="377.4" r="21.2"/>
<circle class="st2" cx="2111.9" cy="689.2" r="13.6"/>
<circle class="st2" cx="1381.4" cy="400.8" r="10.3"/>
</svg>
