<?xml version="1.0" encoding="utf-8"?>
<!-- Generator: Adobe Illustrator 19.2.0, SVG Export Plug-In . SVG Version: 6.00 Build 0)  -->
<svg version="1.1" id="Слой_1" xmlns="http://www.w3.org/2000/svg" xmlns:xlink="http://www.w3.org/1999/xlink" x="0px" y="0px"
	 viewBox="0 0 663 1823" style="enable-background:new 0 0 663 1823;" xml:space="preserve">
<style type="text/css">
	.st0{fill:#7EA5DD;}
</style>
<path class="st0" d="M402.2,1794.3C412.4,1791.6,400.5,1803.2,402.2,1794.3z M438.8,1747.8c3-4.7,14.8,3,7.2,5.3
	C443.6,1751.4,441.1,1749.7,438.8,1747.8z M392.3,1740.9C400.3,1740.2,391.9,1749.3,392.3,1740.9z M394.4,1735.2
	C405.6,1735.4,391.1,1742,394.4,1735.2z M263.4,1735.2C275.4,1735.3,257.9,1745.9,263.4,1735.2z M230.5,1721.3
	C240.3,1721.4,222.6,1727.7,230.5,1721.3z M452.2,1720.3c2.9,0.4,6.7,3,8.6,5.7C456.8,1726.5,445.6,1725.8,452.2,1720.3z
	 M428.4,1720.2C435.9,1722,419.2,1726.7,428.4,1720.2z M246.3,1699.1C237.5,1700,244.2,1706.8,246.3,1699.1z M529.1,1671.8
	c5.7,3,1.2,12.2-4,12C525.4,1679.5,526.5,1675.2,529.1,1671.8z M532.3,1666C542,1666.4,527.9,1674.1,532.3,1666z M254.5,1662.2
	C261.1,1667.4,244.8,1667.6,254.5,1662.2z M237.2,1648.9C247.8,1650.5,230.4,1655,237.2,1648.9z M542.2,1599
	C551.1,1597.6,540.9,1608.1,542.2,1599z M549.3,1598.2C559.1,1603.8,543.4,1607.1,549.3,1598.2z M284.2,1546.2
	c2.1-0.1,6.5,0.6,5.5,3.6C288.1,1553.1,277.9,1548,284.2,1546.2z M344.4,1544.2c5-2.4,6.5,7.5,1.4,7.8
	C341.1,1553.4,339.9,1544.6,344.4,1544.2z M554.2,1534.2C564.3,1536.7,549.5,1543.2,554.2,1534.2z M359.4,1511.2
	c5.8-0.1,9.1,16.4,1.9,19.4c10.2-2.4,5.4,11.1,6.8,16.4c-9.2,8.5-15-6.8-8.6-13.2C354.6,1528.7,346.9,1514.6,359.4,1511.2z
	 M562.5,1506.3c3.1-0.7-0.8,5.4-0.3,7.7C555.6,1516.7,559.3,1507,562.5,1506.3z M561.1,1441.1C569.3,1444.6,554.1,1448,561.1,1441.1
	z M545.3,1439C554.4,1443.3,537.2,1447.7,545.3,1439z M482.5,1430.8c1.8,3.5,4.2,7.6,1.7,11.3
	C482.2,1438.7,482.2,1434.6,482.5,1430.8z M543.5,1427.2c7.7-0.9,0.2,16.6-5.2,10.6C538.4,1433.9,539.6,1428.9,543.5,1427.2z
	 M518.4,1426c3.7-1.2,15-7.7,14.2,0.6c9.5,1-1,9.5-5.8,7.3c-9.5-3.5,1.6,11.5,5.4,4.4c8.4,4.5-6.7,7.2-10.6,6.8
	c1.7-9.4-8.8-5.8-11.3-2.3c9.1-0.3-4,15.1,4.5,9.8c5.3-5.8,16.2,0.2,9.9,7.1c-2.1,3.9-4.5,8.7,3.2,7.4c-0.7,5.8,3.1,6.7,7,3
	c-2.2-4.7-9-5.3-10.3-10.4c7.1-2.6,14.6,5.8,14.1,12.3c4,1.2,11.7-5.6,5.2-9c7.2-6.2-7.8-9.4-13.1-8.5c1.1-4.8,0.8-13.9,6-5.7
	c7.5-7.6,8.2,4.9,15.9,4c0.9-3-1.3-12.8,4.4-10.1c-0.7,6.2,9.7,8.7,2.8,13.5c5.9,11-8,16.5-11.6,25.3c-15.1,12-32.7,0.8-48.3,2.4
	c-8.5-7.1,2.9-18.3-3.6-25.6c-0.4-11.4,3.4-23.7-2.6-32.2C499.1,1420.6,511.1,1426.7,518.4,1426 M515.9,1430
	C516.5,1438,523.3,1430.9,515.9,1430 M512.7,1457.3C513,1465.6,521,1458.5,512.7,1457.3 M516.4,1464.4c-1.6,1.4-3.7,3.2-3.4,5.5
	C515.1,1473.8,519.7,1463.1,516.4,1464.4z M550.4,1420.2c6.5-2.3,16.2,12.8,5.3,10c18,0.9-4.4,12.1-3.8,1.5
	C549,1428.6,542.1,1421.1,550.4,1420.2z M538.4,1419.2C551.8,1420.1,529.7,1428,538.4,1419.2z M523.4,1387.3
	c4.8-2.3,5.7,3.9,9.8,4.5C535.7,1397.9,515.8,1390,523.4,1387.3z M487.8,1387.9c-3.4-4.5-5.1-19.9,3.4-12.4
	c9.3-6.3,17.1,3.1,26.3,1.7c1.7,5.4-10.8,3.3-6.4,9.4c5.9-4.6,12.3,2.2,8.8,8.1c-7.8,1.9-6.5,9.6,0.4,11.5c2-5.1-5.8-8.4-0.4-11.5
	c6.2-1.1,10.2,2.6,6.3,7.7c3.1-3.6,6.8-10.1,9-1.8c4.8-5.5,13.5,1.2,4.7,0.8c-7.3-0.8-1.1,5.5-2.4,9c-12.3,5.6-27.5,0-38.4,9.3
	c-2.3-6.1-5,2-8.8,1c-4.4-5.8,5.4-20.9-5.6-21.4C482.1,1394.3,492,1394,487.8,1387.9C487.8,1387.9,480,1383.5,487.8,1387.9z
	 M506.3,1379.4c-8.8,1.7-4.3,11.3-0.3,15.5c4.9-1.9-5.4-7.3-0.6-10.5C507.7,1383.8,509.4,1379.1,506.3,1379.4 M491,1380.1
	C491.7,1390,502,1379.5,491,1380.1z M534.3,1368.3c2-0.2,7.8,0.3,6.2,3.1c-7.6,6.9-20.7,6-28.6,1.6
	C518.9,1365.2,527,1374.3,534.3,1368.3z M542.5,1346.2C552.1,1350.1,531.5,1352.4,542.5,1346.2z M531.9,1341.9
	C524.7,1346.4,531,1333.4,531.9,1341.9z M540.4,1333.2C551.4,1335.5,529.6,1340.1,540.4,1333.2z M508.2,1307.5
	c5.9,0,11.8,4.2,17.7,1.2c6-3.9,10.8,3.8,17.1-0.5c1.2,6.8-7.1,7.5-11.7,5.6c0.5,5,3.3,6.7,7.6,4.3c-0.2,6.2-10,8.8-12.4,2.2
	c-7.7-5.3-5.5,6.9,1.7,4.8c-2,5-10.3,3.1-12.4,8.8c4.2-2.6,11-0.9,13.8-1.8c-4.6-3.9,3.3-8.3,2.7-2.7c-2.4,5.8,8.6-3.5,6,2.6
	c-8.9,2.5-16.8,9.7-16.1,17.7c4.6-2.3,10.8-3.2,14.6,0.1c-13.5,10.1-33,13.9-49.9,9c-4.7-6.3,2.7-13.1-0.8-19.9
	c0.7-8.5-12.7-16.3-1.8-21.8c6-3.7-8.6-3.3-2.4-6.4c7-4.2,6.9,12.3,12.8,7c-3.4-7.3,6.5-9.7,8.1-2.5c9.5-0.6,3.9,10.3,10.3,12.9
	c10.8,2-6.9-4,0.8-7.4C524.9,1314.4,497.2,1312.4,508.2,1307.5 M495.2,1323.1c-8,5.8,9.9,11.2,9.5,5.5
	C499.8,1330.1,498.6,1324.2,495.2,1323.1z M530.4,1273.2C540.5,1272,524.6,1281.4,530.4,1273.2z M513,1250.9
	C513.2,1261.9,526.3,1249.9,513,1250.9z M480.1,1201.3C490.3,1201.3,474.6,1213.7,480.1,1201.3z M498.4,1174.3
	c9.1-1.5,2.3,10.5-3.8,9.4c-5,2.8,3.8,5.4,2.7,7.9c-3.6-0.1-10.1,2.1-10.5-3.2c-4.1-4.4-10.5,4.8-13.5-1.7
	c-5.8-0.6-6.1,10.9-12.4,9.4c2.7,1.2,8,6.9,0.9,9.9c5.4,6.3,10.8,3.1,9.5-4.6c-7.3-1-4.4-10.9,3.2-7.1c4.4,3-3.3,6.3-0.4,10
	c-1.7,7.1,14.4,2.8,9.9,11c-5.2,0.1-4.6,4.9,0.3,5c-1.3-5.9,8.6-9.1,4.8-14.6c-6,2.8-6.1-9.8-0.7-5.2c0.5,5.7,10.8,0.3,7.7,6.5
	c-5.6,5.2,3.9,6.5,8,6.6c4.8,5.8-6,9.4-8.6,14.2c-16.1,1.8-42.1,8.8-50.1-8.5c4.3-4.5-0.7-4.7-3.1-7.9c3.3-6.2-5.1-10.9-0.2-16.1
	c3.8-6.1,14.4,4.4,15.9-4.1c-5.5,1.7-11.1,1.1-8.3-5.5c-1.5,4.5-8.5,8-10.5,2.7c5.5-5.6-6.8-4-3.7-9.6c2.9-5.1,9.3-3.5,13.8-2
	C465.2,1173.6,482.5,1182.3,498.4,1174.3 M460.4,1180C458.5,1190.5,471.8,1178.8,460.4,1180z M465.3,1151.1
	c3.5-0.5,11.8,3.5,8.3,7.6C468,1157.2,460.1,1159.7,465.3,1151.1z M479.8,1147.4c11.6-2.6,3,13-3.3,6.7
	C470.4,1151.1,478.7,1150.7,479.8,1147.4z M482.3,1138.7C491.6,1139,483.3,1148.4,482.3,1138.7z M477.6,1134.1
	c9.6,4.8-11.6,9.9-16.5,6.9c4.6-1,10-9.6,13.8-3.2C475.9,1136.7,476.3,1135,477.6,1134.1L477.6,1134.1z M421.3,1128.3
	c6.9-0.2,10.1,8.8,16.6,9.2c-2.6-10.1,14.5-6.7,11.4,0.4c3.5,0.1,9.3-5.5,10.5-0.1c-3,1.7-7.5,2.8-8.6,6.3c4.5,1.6,9.1,1.3,13.6,0
	c-0.4,3.4-3.8,5.2-5.6,7.8c3,3.4,5.9,14.2-1.7,10.3c4.4-9.4-9.3,3.6-9.8-4.9c-6.2-0.9,2.4,5.8-2.7,6.3c-5-8-15.5-1-20.7,4
	c3.4-6.3,1.4-7.8-6.3-8.9c6.6-9.6-10.5-11.5-3.2-21.8C402.6,1140,415.5,1128.4,421.3,1128.3L421.3,1128.3z M443.4,1116.1
	C456.4,1116.3,434.6,1125.8,443.4,1116.1z M454.3,1114.2C464.8,1115,448.8,1123,454.3,1114.2z M466.3,1073.3c4,0.2,2.5,6.2-1.4,6.6
	c-9,4.4,7.5,16-2,19.1C450.2,1093.1,455.2,1077.7,466.3,1073.3L466.3,1073.3z M351.9,1072.8c4.5,2.6,0.5-7.9,7.5-3.7
	c4,4,5.8,10,12.2,11.3c-1.7,3.8-3,8.9-5.6,12.7c-6.1-3.5-0.5,7.4,0,0c11.5-4.9,13.2,10.6,18.5,17.4c2.2,6.9,15.1,13,9.7,20.9
	c-10.8,1.5-18.8-5.4-23.7-14.8c-2-7.5-13.2-0.6-8.5-10.4c-7.5,5.3-11.9-3.8-5-8.3c-4.1,5.8-12.2-0.1-4.8-3.9
	c6.7-1.6,2.5-18.7-4.2-11.9c-4.6,4.2,2.6,8,4.2,11.9c-11.2,3.2-10.7-9.7-19.1-12c3.3-3.9,1.9-6.8-1.9-9.8c2.5-0.8,17.1,0.5,8.9,7.1
	C344.8,1085.4,346.1,1069.1,351.9,1072.8L351.9,1072.8z M459.5,1064.2c17.4,0.7-2.4,15.3-8.3,12.8
	C451.4,1071.2,457.5,1069.1,459.5,1064.2z M434.3,1064.1c8.7,0.8-2.5,7.7,2.4,11.9c0.4-8.7,16.9-4.6,9.6,3.2
	c-6.1,5.6,11.7,14.2,0.4,13.3c-6.5-4.7-6,2.7-13.3,1.6c-0.3,3.8,7.4,2.8,7.6,7.7c2.8-3.3,14.7-6.7,10.8,1
	c-3.5,7.4,10.6,5.1,10.3-0.4c1.6,6.1,5.4-4.4,8.1,0.4c1.7,3.5,5,0.8,7.6,0.4c3.3,5.2-5.2,3.5-4.9,8.5c5.5-3.2,0.9,5.7-2.4,2.7
	c-5.4-1.8,5.9-9.2-1.9-7.1c-2.4,7.9-13.7,6.5-18.8,2c-9.3,2.9-17.3,9.5-26.7,4.7c-5.1,1-10,8.4-15,2.8c-1.1-8.3-13-14.1-8.7-22.8
	c1.2-6.3-9.2,3.1-7-4.6c3.8-6.5-3.5-7.8-6.3-12.4c5.2-1.5,3.2-11.9,10.3-9.7c3.2,7.6,9.8-3.2,15.4,0.9c4.8,5.6-13.1,4.8-3.8,8.8
	c4-3.3,19.2-1.1,11.9-7.3c0.5-8.3,11.9-3.2,6,3.1C432.4,1072.7,431.7,1067.6,434.3,1064.1 M440.2,1084.3
	C433.4,1088.6,445.8,1086.9,440.2,1084.3 M427.5,1085.5c-0.6,3.6-3.2,6.3-4.2,9.7C428.3,1096.6,432.1,1085.1,427.5,1085.5z
	 M474.3,1037.3c8.1-1.2,17.5,0.8,17.3,11.3c1.5,11.1-13.9,9.4-17.7,17.5c-12.8-12.2,17.3-7.4,9.8-19.7
	C481.5,1042.1,469.3,1043.2,474.3,1037.3L474.3,1037.3z M270.9,1035c4.4,3.8,12.1,6.6,13.9,11.7
	C278.8,1045.9,273.2,1040.7,270.9,1035z M466.2,1029.2c3.7-0.6,9.5,12.4,1.7,9.2C468.9,1035.7,460.9,1029.7,466.2,1029.2z
	 M438.4,1027.2c5.4,0.6,18.4-3.1,14.9,6.7C449.5,1037.3,430.1,1034.5,438.4,1027.2z M463.4,1021.1
	C474.3,1023.6,455.2,1030.7,463.4,1021.1z M347.2,1016.1c5.7-0.3,13,4.9,4.4,7.5C346.1,1029.8,340.8,1018.5,347.2,1016.1z
	 M444.3,1014.3c5.2,4.2-8.6,16.8-13.3,8.6c-5.2-2,1-9.9,3.4-5.1C438.4,1030.4,435.8,1012.8,444.3,1014.3z M233.6,1020.6
	c-2.2-12.5,21.9-12.5,24-2.1c-10.5,6,2.6,11,4.4,2.5c4,2.7,4.2,7,0.7,10.3c7.1,9.1,17.8,18.2,26.2,27c3.8,7.5-3.1,1-6.9,2.5
	c2.7,3.2,8.1,3.1,10.1,6.6c-3.2,12.7-18.9,11.6-25,1.6c-3.7-6.9-6.8-4.2,0,0c2.4,6.2,9.2,10.2,5.2,17.6c9.4,4.7,18.5-3.9,27.6-5.3
	c10.6,11.4,27.2,15.7,35.9,30.2c-1,14.2-2.9,36.7,11.4,46.6c0.2-9.9-5.1-20-6-29.9c-6.1-4.8,0-13.2,5.8-6.3
	c13.9,15.3,34.4,22.5,45.1,40.6c1.1,4.7,0.5,16,7.5,13.3c20.9,5,35.4,26.7,35.1,48.3c-1.2,6.5-12.9,1.3-10.5,9.4
	c0.7,14.2,17.2,1.1,21.7,10.5c10.6,12.9,9.5,30.4,12.6,45.9c0.4,7.2-7.9,8.4-12.6,11.1c1,11.2,20.7,6.7,18.7,19.1
	c1.5,13.1,13.4,30.9-1.1,40.3c-5,7.9,10.1,7.9,10.4,14.7c2.6,15.3,12.8,38.1-7.3,45.7c-2.3,7.7,11.2,7,12.5,14.1
	c2.9,2.2,0.1,12.3,5,7.2c5.8,10.9,3.1,23.8,2.3,35.6c-0.2,3.5-3.3,2.7-5.6,1.7c0.5,6.7-10.6,10.7-3,16.4c7.8,5.1,19.9,17.3,27.5,8.1
	c-14-4.9,5.9-9.3,8.7,0.5c1.4-11.1,6.2-0.8,12.5,0.3c2-4.2,5.5-5.4,9.5-2.8c3.8,3.2,5.2-5.1,9-2.1c5.3,5.6,11.7-2.1,17.9-2.6
	c4.4,7.1-9.4,8.7-14,7.3c-0.8,5.7,9.8,1.6,7.8,7.6c-2.3,2.6-8.2,0.8-11.9,1.3c2.2,5.1,13-1.6,13.3,6.7c5.3,6-3.7,16.5-9.4,10.2
	c-2.5-4.6,3.3-3.6,6.2-3.6c1.4-6.6-8.4-5.6-10.3-0.9c-6.3,5.2-4.4-10.9-12.5-6.8c-0.4,1.8,3.2,6.9,0.4,10.3c3.3,0.1,9.1-3.1,9.2,2.2
	c-1,9.8,5.7,2.4,10.4,2.8c0.5,3.9-4.5,4.2-6.8,6.2c-0.4,5.7,6.9,5.5,9.7,9.2c-3.9-11.2,10.7-3.8,3.8,3.1c5.4,5.6-2.6,7.2-6.6,3.9
	c-8.6,6.3-20.1,7.5-29.3,1.5c-3.6,2.3-8.3,5.1-11.8,0.8c-3.3-4.8-17.8-3.8-10.4-11.1c-4.6-7.6-3-1.2-8.3,0
	c-3.3-5.6-10.3-8.6-16.2-4.9c3,9.7,14.8,14.1,9.9,26.6c7.8-7.8,14.2,8.5,6.8,15.5c7.2-1.4,7-10.8,10.5-15.8c5.1,1,10.2,1.9,15.2,3.1
	c2.1,3.6-0.8,11.5,5.8,10.8c-0.7-3.4-2.6-6.7-2.2-10.2c6-1.2,11.9,1.3,17.9,0.7c4.2,0.5,0,9.3,5.5,7.1c4.6-0.4-0.9-3-1.9-4.7
	c3.9-4.3,10.1,2.1,14.3-1.9c9.7-5.3-0.7,8.4,2.9,13.8c-4.4,0.3-3.1,4.8-4.8,7.5c-5.2,1.3-16.5-4.6-7.4-9c-8.5-1.6-18.1-0.8-20.9,8.7
	c2.7,9.1,6-12.6,12.2-4.7c6.7,1.2,2.9,10.7-3,8c1.4,3.7,3.4,8.2-3.6,6.4c-4.1-0.5-5,10,0,9.5c-2.2-10.8,19.3-6.3,12.4,2.3
	c3.4,13.5-18.7,6.4-26.2,7.1c-13.5-7.5-26.6-15.3-37.7-25.5c-9.2-6.8-11.8,8.8-5.3,13.5c4,3.1-5.5,14.2,2.4,11.5
	c4.6-8.8,7.5,10.7,9.3-0.5c4.1,5.2,0.7,9.7-1.3,14.5c5.5-9.3,17-5.1,25.6-2.8c1.8,7.3,14.7,13.3,12.4,1.8c5.2,4.1,11.9,7.1,18.5,4.1
	c1.6,7.7,14,10.1,18.2,3c2.5-7.5-5.1-12.1-9.2-17c-0.9-13.1,3.1-26.4,8.6-38.2c5.1-2.6,3.7-8.3,5-12.7c6-2.3,14.7,2.6,17.7-5.9
	c0.4-9.8-12.8-11.4-19.2-14.9c-6-18,4.6-38.7,1.2-55.5c6.7-2,16.2-4.6,16.9-12.7c0.5-10.1-14.2-1.4-15.7-9.3
	c-2.1-19.8-1.1-39.8,0.5-59.6c0.3-7.8,14.4-9.9,8.4-18c-1.3-7.8-8.2-2.7-12.7-1.2c-5.4-11.5-7.4-25.1-6.4-37.8
	c3.9-4.2,11.7-7.6,8.5-15c-2.6-6.1-10.9,2.4-13.2-4.2c-7.6-11.9-3.7-27.5-7.3-39.3c9-4.3,6.7-17-3-19.4
	c-7.4-10.2-12.3-23.6-10.9-36.4c-5.7,1.7-17.3-3.6-17.9,5.2c-3.6,3.1-6.4-2.4-10.1-1.5c-1,5.7,1.5,10.9,3.8,15.6
	c-3.2,7.8-6.8-4.6-12-1.5c-5.6,1.3,10.3,6.6,3.5,9.5c-5.6-1.2-3.3,3.7-2.4,6c8.2-4.4,18.9-11.9,28-6.7c1.2,9.4-17.6,2.6-17,10.8
	c8-2.7,17.1-1.4,25.9-4.8c5.6,6.4-1.2,10.7-6.6,12.4c3.8-6.9-10-5.1-2.2,0.1c-7.8,2.3-16.2,2.3-24,4.7c-6-3.1-20.9,5.9-15.2-5.8
	c-5.2,11.9-26.7,5.7-14.5-2.8c6.1-15.8-16.3-29.6-6.1-44.7c3.2,1,8.3,13.3,5,2.7c7.7,1.6,18.2-2.9,22.6,6
	c-13.1,0.7,3.4,13.9,5.5,4.4c-2.2-7.2,5.6-19.4,11.7-9.7c7.9-7.7,22.6-1.3,27.5-13.5c-0.4-5.3-6.9-10.9-12.5-7.9
	c-9.6-11.2-10.1-28-14.7-41.8c-5-11.8,14.9-15.2,9.4-26.2c-4.5-2.8-10.4-0.1-15.4-0.6c-4.3-10.6-9-24.5,0.5-33.7
	c4.7-12.9-7.9-11.5-15.4-9.4c-5.6-6.2-6.9-14.6-11.4-21.1c2.1-4.9-8-19.8,2.4-19.2c5.2,8.9,1.7,20.5,9.6,28.5
	c3.6,10.6,17.1-1.8,21.1,8.4c3.6,13.9-12.6,25.7-2,39.6c7.5-3.2,15.9-0.9,19.5,7c0.8,9-6.9,14.3-12.6,19.8
	c0.6,14.2,6.2,27.9,11.4,40.9c7.8,0.6,21.4,9.1,13.9,17.8c-12.2,13.5,2.1,33.3,10,45.2c9.3,5.9,9,18.5,0.1,24.6
	c3.4,10.3,2.2,22.3,8.8,31.3c14.8-2.5,18.6,19.6,5,25.1c-1.8,8.5-0.8,19.8,3,28.3c12.4-5,19.7,9.6,15.6,19.6
	c-3.2,3.3-10.1,4-10.1,9.6c-0.9,16.3,0,32.6,1,48.9c-2.3,11.4,14.3,3.2,14.8,13c4.2,12.5-9.2,17.4-14.2,26.1c5,7.1-3.2,13.7-3.7,21
	c-0.2,7.7,0.2,15.3,0.2,23c6,5.2,19.4,5.1,20,15.1c1.9,10-8.9,15.8-17.4,15.7c-9.1,12.2-16.7,27.1-14,42.8
	c5.3,5.7,12.3,12.9,7.8,21.4c-17.7,10.7-26.3,31.2-33.6,49.5c5.2,12.8-6.5,27.2-19.7,22.1c-15.2,8.6-28.9,25.1-28.5,43.6
	c0.6,9.6-7.4,17.3-15.7,20.5c-8-3.1-17.3-12.7-24.4-2.1c-19.6,10.2-28.4,35.7-49.7,39.7c-14-7.1-31.4-15.5-47-8.4
	c-7,2.4-8.8,11.4-16.1,13.3h-4.3c-13-4.7-13.4-19.5-19.3-29.9c-5.1-4.6-12.5-5.9-18.9-8c-9.3,5.2-28.7,6.3-31.4-6.9
	c0.2-9.2-4.4-17.5-8.3-25.5c-10.5-10.8-29.2-6.8-38.7-18.5c-3.8-16.7,6.3-25.2,4.3-42.7c1.1-9.9-8.9-15.8-17-17.2
	c8.6-8.1-5.8-19.7,4.1-28.1c13.8-6.6,13.6-24.6,13.6-35.4c-5.7-8-0.7-20.4,8.4-23.8c14.8-7.7,27.8-19.9,35.3-34.8
	c0-10.1-1.6-23.1,10.5-26.4c10.7-9.9,21.6,5.1,33.3,2c13.1-0.9,26.1-3.7,38.5-7.6c6.6,7.2-4.1,9.7-8.9,11.8
	c4.5,3.1,10.8,8.1,2.8,12.4c6.2-0.1-0.7,10,5.6,9.9c4.4-0.3,10.2,0.7,8.7,6.5c0.3,9.2-11,4.6-15.8,1.6c-2.6,2.3-0.1,7.6,1.5,10.6
	c-0.9,3.9-7.4,3.2-8.6,7.2c5,0,8.2-4,12.3-5.9c5.1-1.3,1.3,8.3,6.4,7.6c7.2-1.6,5.8-12,13.1-13.3c6.2-3.6,3.9-9.7-3.1-9.5
	c1.6-5.6,8.5-4.6,12.9-6.2c0-5.4,4.6-6.8,8.8-8.2c0.6-8.3-11.1-11.9-8.7-20.1c10.1-3.3,15.4,10,25,10.2c4.8-0.1,10.8,1.5,10.2,7.6
	c13.3-8.5,28.6,10.3,28.7,23.1c-8.1,13.9-4.1,33.3,7,44.8c0.2,3.6-5.1,4.6-7.5,6.5c7.9,10.6,2.9,27-6.6,34.9
	c-8,0.9-16.4,1.1-22.4,7.5c7.6,9.7-6.5,20.9-16.3,18.2c-9.4,0.5-22.1,10.5-28.8-0.6c-3.5-7.4-3.2,3.8-7.3,3.9
	c-5,0.5-5.6-5.6-8.1-8.4c-7.4-3.5-16.2-1.9-23.6-5.3c-7.5-6.1-12.2-16.8-2.4-22.8c-3.3-17.3,7-35.4,25.2-38.1
	c14.1,4.1,9.4,21.3,11.6,32.2c6-4.8,13.2-7.6,21-6.8c6-3.3,3.6-9.8,0.7-14.4c5.1-4.6,7.5-10.2,4.5-16.7c-4.9,0.3-11.4,1-13.8-4.5
	c-4-4.7,1.7-12.7-4.1-15.8c-3.6,1.5-1.6,6.4-5.6,7.3c-10.2,11.4-27-7.8-36.3,6.7c-0.8,12.5-21,8.8-23.9,20.7
	c-0.5,9.8-3,19.7-5.3,28.9c6.6,8.7,0.1,18.4-0.3,27.7c6,3.5,12.9,6.8,15.5,13.8c1,8.1,2,24.5-10.8,21.3c-0.5,5.5,6.1,4.8,8.2,1.2
	c11,0.3,23.5-2.5,32.6,5.8c9-3.2,17.8,1.8,21.5,10.3c2.6,6,10.6,2.5,11.1-3.1c10.8-7.4,28.8,0.8,36.3-12.9c-0.5-4.4,7-8,2.6-11.2
	c6.3-5.9,17.1-3,22.1-11.2c4.3-7.6,16.1-14.8,10.8-24.3c-2.4-7.6,0.1-16.7,8.8-19c10.2-2.3,14-14,14.1-23.3
	c-5.6-7.7-6.3-19.3,0.3-26.5c14.5-2.8,14.2-20.7,13.4-32.1c-5-5.8-14.3-11.3-8.3-20.2c9.5-8.7,11.8-23.8,5.1-34.7
	c-7.3-4-11.4-14.4-5.6-21.2c10.7-13.1,7.7-32.1,1.2-46.2c-7.6-3.4-17.7-14.8-8.5-21.9c14.7-8.4,10-31-1.6-40
	c-9.3-6.3-7.1-21.3,2.6-26.4c-1.3-10.4-3.9-20.8-7.4-30.6c-10.8,0.8-21.3-9.3-16-20.2c10.3-15.1,5.2-36-6-48.9
	c-13.3,2-24-13.5-16.5-24.9c7.9-10.9,3.4-25.6-5.7-34.2c-9.9-1.9-25.1-2.6-26-15.6c-6.4-18.1-25.7-29.4-37.6-41.8
	c-0.7,4.9,4.9,15.7,9.6,20.9c-3.9,8.7-15.6,16.1-24.8,10.9c-22.9-16.6-8-55.5-34.1-69.4c-10.2-6.6-14.3,12-24.6,8.6
	c-9.7-0.7-16.8-13.5-11.1-21.7c3.7,0.4,3.8,7.6,7.7,9.5c0.5-8.6-4.5-14.1-10.2-19.1c-8.2-18.3-23.3-34.2-43-39.5
	c-7.6,0.1-13.1,7.9-20.9,7.3c-12.9,2.6-15.8-18.1-7.8-24c0.9,5.5,0.8,12.7,7.4,14.5c7.5,0.4,13.5-6,20.5-7.8
	C222,1024.6,228.3,1023.7,233.6,1020.6 M238.4,1027.3c-2.6,2-2.2,7.6,0.9,9.3c6.6-1.3,13.7,9.9,18.8,1.3c-4.2-8-13.8-1.6-19.8-6.2
	C237.1,1030.1,241.5,1025.2,238.4,1027.3 M256,1049.7C259.4,1056.5,263.4,1051.9,256,1049.7 M320.9,1119.1
	c-1.7,12.5,1.2,29.6,12.9,36C329.1,1143.5,337.4,1120.8,320.9,1119.1 M476.4,1252.3C464.7,1256.1,485.6,1256.3,476.4,1252.3
	 M483.1,1261.1c2.3,5.8,2.9,11.9,2.2,18.1C490.7,1276.9,496.4,1261.3,483.1,1261.1 M480.6,1281.1c0.6,4.3,7.6,5.4,8.5,1.1
	C486.2,1282.8,483.1,1282.9,480.6,1281.1 M540.5,1504.5c-3.2,1.9-8.2,1.4-9.8,5.1c3.1-1.3,7.1-3.1,8.5,1.2
	C540.3,1506.4,551.8,1504.5,540.5,1504.5 M499.3,1513.1c-5.6,2,0.3,10.4-6,12.4c-5.1,7.6,8,2.6,8.7,9.3
	C504.6,1530.2,502.4,1516.5,499.3,1513.1 M509.7,1519.7c1.8,5,13,5.6,13.4,0.3C518.6,1521.1,513.8,1523,509.7,1519.7 M266.3,1533.1
	C258.5,1543.9,273.8,1536.3,266.3,1533.1 M526.1,1533.6c-5.7,1.4-6.6,8.8,1.2,7.6C525.4,1537.4,534.9,1531.2,526.1,1533.6
	 M291.6,1535.6c-1,5.5-6.1,8.6-11,4c-7.4-5.5-14.8,6.9-8.3,11.9c4,3,7.8,6.5,6.3,12c7.2-1.3,17.4,7.6,10.4,14.4
	c11.9-8.2,16.2,17,5.3,19c-1.5,3.7-7.5-0.8-8.5,3.7c6.7,0.2,14-0.9,18.9-5.9c4.6-2.6-1.2-10,4.3-11.8c2.7-2.4,9.9-2.1,9.7-6.8
	c-3.5,0-6.1,2.8-9.4,3.4c-5.6-7.9-2.9-19.1-10.2-25.9c-9.1,1.2-7.7-11.4-1.3-13.8C297,1537.9,293.2,1534.9,291.6,1535.6
	 M323.5,1536.2c-9.4,3,3.4,7.9,3.9,13.5C327.8,1547.7,329.3,1534.6,323.5,1536.2 M390.6,1543.2c0.5,3.6,0.2,9.8-4.8,9.7
	c-9.7-0.9-3.2,9.5-2.9,14c8.4-5.3,14.5-13.7,20.2-21.7C398.7,1546.4,394.9,1543,390.6,1543.2 M523.2,1548.1
	C521.8,1558.2,533.8,1545.1,523.2,1548.1 M411.5,1549.4c-10,13.5-22.5,25.1-34.3,37.1c-0.3,1.3-0.5,2.9,1.3,1.9
	c14.8-4.3,28.4-11.9,40.3-21.7C427.1,1561.6,420.2,1547.7,411.5,1549.4 M533.4,1553.1C529.8,1558.5,544.2,1551.1,533.4,1553.1
	 M315.4,1554.2C311.4,1563,329.4,1558.5,315.4,1554.2 M262.6,1563.4c-4.8,4.5-17.1,13.1-8.7,18.7c0.9,3.5-8.9,2.1-2.7,5.5
	c13-2.1,7.7-19.7,19-21.5C268.1,1564.6,265.3,1561.9,262.6,1563.4 M316,1563.2c-3.9,4.4,5.1,8.4,8,4
	C321.7,1565.3,319.1,1563.3,316,1563.2 M363,1568.2c-0.6,6.6,13.1,10.5,14.7,3.9C372.6,1571.1,367.6,1569.8,363,1568.2
	 M263.8,1584.9c3.2-2.8,7.8-1.9,11.2-3.9c-3.5-0.9-6.9-2.2-8.2-5.8C262.7,1575.7,265.6,1582,263.8,1584.9 M417.2,1580.2
	c-3,1.7-8.8,2.6-9.1,6.7C411.9,1590.8,427,1584.2,417.2,1580.2 M241.4,1584.3C234.5,1589.3,247.2,1587.9,241.4,1584.3 M267.7,1592.6
	c5.3-4.6-3.3-3.1-3.9-7.7C258.2,1584.9,262.3,1600.5,267.7,1592.6 M551.1,1585.8C551.8,1593.8,560.9,1584.1,551.1,1585.8
	 M278.3,1588.4c-5.9,4.7,4.3,7.3,7.6,3.5C286.2,1587.2,281.4,1588.4,278.3,1588.4 M495,1588.1C494.3,1596.3,508.2,1585.9,495,1588.1
	 M402.4,1590.4c-9.1-1.6-5.7,17.5-0.4,9.6c-7.1-4.1,1.8-12.5,4.9-5C412,1603.1,408.6,1586.6,402.4,1590.4 M232.6,1595.3
	c-5.3-2.3-14.1,2.4-11.9,8.8c8.1-6.3,7.4,13.8,18.4,13.7c-4.6-5.9,8.6-9.1,8.7-3.4c-4.1,3.2-1.5,9.4,1,12.5
	c3.1-3.7,10.9-10.9,11.1-0.3c8.3-5.4,11,13.9,19.2,5.2c8.5-1.6-0.3-10.8,8.4-12.4c-1.1-7.4-15.5,1.2-10.5-8.8
	c-10.9,3.3-19.8-8.8-31.1-8.5C246.1,1595.6,236.5,1589.7,232.6,1595.3 M507.7,1602C499.4,1621,528.6,1597.2,507.7,1602 M277,1610.7
	c2.2,1.4,6.8,5.5,8.5,1.7C289,1607.4,274.2,1604.8,277,1610.7 M401.8,1607.4c2.3,3.2,13.4,7.6,19.9,6.3
	C417.7,1606.2,409.2,1606.4,401.8,1607.4 M425.3,1612.2C418,1618.2,434,1615.6,425.3,1612.2 M535,1612.9
	C536.5,1618.9,544.1,1610.9,535,1612.9 M331.5,1616.1c-2.3,2.4-4.1,6-5.6,9.2c5-1.5,9.1,3.1,13.8,1.6
	C336.5,1623.9,337.5,1615.5,331.5,1616.1 M221.7,1617.4c1.5,6,0.1,15,0.9,20.1c6.5,4.3,14.7-7.3,6.2-1.8
	C228.3,1628.3,228.9,1619.8,221.7,1617.4 M384.1,1617.8c0.7,5.6,8.1,4,11.8,6.1c9.8,5.3,15.5,18.1,27.7,19.1
	c3.8-4.4,5.3-10.4,1.5-15.2C411.7,1623.4,398.5,1617.7,384.1,1617.8 M480.2,1634C472.3,1637.6,479.1,1642.9,480.2,1634
	C485.7,1631.1,476.5,1627.1,480.2,1634 M244.2,1630.8c4.8,4.8-3,11.8-6.2,5.4c-11.8-4.4,12.7,16.3,10.2,4.5c-3.6-5.7,5-5.1,8-2.9
	C256.3,1631.6,248.6,1631.2,244.2,1630.8 M260.4,1631.6C257.5,1642.5,269.3,1634.8,260.4,1631.6 M383.4,1633.2
	C377.9,1639.4,393.2,1631.8,383.4,1633.2 M365.5,1635.9c-2.1,10.7-0.9,22.9-1.1,34.2c1.7,6.2,10.3,7.5,14.5,3.4
	c-0.8-8.7-1-18.9-8.8-24.6c-2.4-1.5-4.8-7.1-0.1-6.3C376.7,1644.3,369.8,1632.7,365.5,1635.9 M402.8,1643.1
	C402.9,1653.8,413,1644.7,402.8,1643.1C402.1,1635.7,393.5,1644.7,402.8,1643.1 M340.5,1641.4c-5.8,3.9-19.5,11.1-9,17.8
	C334.6,1655.9,346,1646.9,340.5,1641.4 M498.4,1642.1C482.3,1646.1,507.4,1644.1,498.4,1642.1 M381,1643.1
	C379.3,1657.8,395.4,1642.4,381,1643.1 M259.5,1644.4C251.9,1653.9,272.3,1642.3,259.5,1644.4 M508.6,1644.3c1.3,2.9,4,6.1,7.3,6.2
	C516.1,1646.7,511,1646.2,508.6,1644.3 M236.3,1646.6c-3,1.7-6.4,2-9.7,1.4c1.8,6.3-7,7.4-7.5,1c-8.3-2.8-21.5,9.8-9.4,15.6
	c-1.4,7.7,4.1,6.6,7.7,3.5c4.6-3.9,9.4,4.2,13.5-0.3c2.1-3,7.1-6.2,9.4-1.5c6.9,2.2-2.3,6.8,3.9,10.3c6.1,7.3,12.5-6.7,5-3.5
	c-11.8,3.6,0.8-11.5,3.6-2.3c3.2-6.6,15.8-3.1,12.8-13c2-8.6-9.7-4.9-12-8.3C248.4,1658.6,243.3,1643.2,236.3,1646.6 M282,1646
	C281.7,1655.2,289,1648.7,282,1646 M353.4,1646.1c-8.7,5.2,1.2,9.1,1.8,15.8C357.3,1660.6,361.6,1643.7,353.4,1646.1 M469.3,1646.1
	c-1.5,4.9-5.2,8.4-7.3,12.9c3.9,2.1,10.8,1.4,10.9-4.1C463.1,1659.1,480.2,1644.1,469.3,1646.1 M483.2,1648.3
	C474.4,1653.1,491,1650.4,483.2,1648.3 M451.7,1649.1c-5,4.7,2.4,12.2,3.2,14.7C460.3,1660.9,458.2,1647.5,451.7,1649.1
	 M543.5,1650.3c-7.3,1.1,4.5,12.1-5,11.6c-5.4-7.8-17.3-0.8-23-3.4c-5.6,6.1,9.2,4.1,2.9,10.8c3.9-2.2,6.7-6.3,11.6-6.4
	c-0.8,4.7-4.3,9.8-9.7,7.2c1.3,4.9-2.4,9-3.3,13.6c1.8,2,8.8,3.9,4.5,6.9c-10.9,7.1-15.7-8.9-26-10.2c-8.3-2.7,10.1-7.1-0.3-9.1
	c-4,9.2-12.5-0.5-18.5-2c-5.8,2.2-11.2-5.9-16.1-1.5c-3.8,5.6,8.1,10.2,2.9,15.4c-4.4-1-12.3,4.2-2.4,4.6c1.1,8.1,7.8,1.1,8.2-3.6
	c7.4-4.5,7.8,5.8,1.8,8.1c6.2,6,12-4.1,18,2.7c-5.4,6.6,5,3.6,7.4,8.5c2.4,4.9,11.5-1.8,9,5.6c-0.6,10.8,11.3-3.3,16.6,3.7
	c9.7-3.6,6.1-14.4,3.3-21.4c9.8-10.4,11.2-27.1,23.9-35.4C556.4,1652.4,546.7,1649.9,543.5,1650.3 M383,1651.8
	c0.8,4.8,0.9,11.1,5,14.2c4.2-2.5,6.4-7.1,8.9-11.1C392,1656.3,386.4,1655.9,383,1651.8 M487.3,1654.2c-2,3.7,9.6,6,13.6,7.6
	C500.3,1656.5,491.8,1654.8,487.3,1654.2 M503.5,1664.1c-3.8,2.9-4.9,12.6,1.7,11.6c-1.6-4.9,5.2-0.2,4.9-5.4
	C505.3,1673.3,501.2,1670,503.5,1664.1 M240.3,1666.3C232.1,1667.7,239,1675.9,240.3,1666.3 M451.4,1670.5c-1.7,4.2-6.1,15.3,2.3,13
	c-3-2.5-2.1-3,1.3-1.9C452.2,1678.6,453.3,1670.8,451.4,1670.5 M278.8,1676.3c0.2,12,16.1,4.1,15.6,17.1
	C297.6,1688.4,288,1674.5,278.8,1676.3 M219,1678.7c5.1,5.9,2.4,14.9,4.8,21c-0.7-6,12.3-13.5,19.4-8.5c-6-4.4,3.4-4.9,3.9-9.2
	c-3.2-0.4-4.9-2.4-2.8-5.3c-3.4,2.2-10.1,12.4-11.8,2.3C227.3,1682.8,222.5,1673.8,219,1678.7 M261.3,1681.1
	C258.9,1691.5,270.3,1679.6,261.3,1681.1 M243.1,1691.2c3.5,5.2-4.7,9-7.4,4.1c-6.3,1.2,1.6,4.1,4.1,5c0.9,8.9-11.1,6.1-16,3.1
	c-0.1,5-4.4,7.8-7.1,11.5c4.8-0.4,9.3-4.5,13.9-2.7c5.8-5.9,23.3-5.6,15.2,5.8c-9.2-5.2-19.9-0.6-28.6,3.5c-1.5,6,6.7-2.3,8.1,2.3
	c3.9,4.7-8.6,4.3-4.2,8.1c3.1,4.7,10.2-1.6,13,4.1c4,6.9,14.1,2.6,16.7,9.8c7.6-1.8,1.1-11.9-4-6.9c-7-0.5,3.9-5.8-2.5-7.3
	c-5.2-5.8,7.8-3.7,10.8-4c7.1-12.2,27.6-11.1,29.3-27c0.2-9.7-12.9,3.3-8.5-6.3c2.7-7.7-6.5,3.8-6-2.8c5-1.3,5.9-5.2-0.4-6.1
	c1.7,12.5-14.2,18.6-23.5,13.8c-3.1-6.2,11.1-7.7,11.9-9.6C254.2,1675.5,250.8,1690.8,243.1,1691.2 M439.3,1690.1
	C434.3,1695.2,445.5,1691.2,439.3,1690.1 M430.4,1702c-8.1-3.1-20,3.8-17.8,13.4c5.4,1.8,0.1,5.3-3,5.9c1.5,8.7-10.1,6.4-15.1,5.2
	c-11.1-3.7-19.6,5.2-25.2,13.3c5.2-3.9,13.2-7.1,18.7-1.7c2.3,4.8,4.1,10.6,10.1,11.8c-5.8-6.4,6.2-8.2,6.9-13.8
	c-8.3-5.9,11.7-14.2,13.1-5.1c3.7-7.9,13,0.9,2.9-0.8c0,7.7,8.7-2,10.9,4.1c3.4,3.2-8.2,10.5-0.8,7.7c4.5-5.1,8.3,4,5.5,7.5
	c-2,4.8,6.7,2.5,9.5,3.5c0,4.2,9.2,1,5.7,6.6c-3.8,10-13.8-8.6-16.6,1.9c7.4-1.2,11.5,9.2,0.9,5.4c5.2,14.3,18.2-8.4,28.2-2.1
	c9.5,2.8,13.1-6.9,10.1-13.6c7.3,0.5,8.6-14.5,0.1-9.1c3.5,5.7-10.5,16.1-7.2,6.1c3.2-7-10.2-6.2-7.8-12.8
	c1.1-8.8-16.6-3.9-14.9-12.4c-9.3,2.9-11.3-11.7-20.2-8.9c-1.7,4,0.4,14.8-7,11.2c-2.4-8.2,3.7-20.1,13.7-16.8
	c7.1,1.4,11.2-6.4,13.7-11.8C442.7,1696.7,430,1712.7,430.4,1702 M455.2,1706.3C444.8,1707.8,461.2,1710.2,455.2,1706.3
	 M482.3,1706.8c2.7,2.7,5.5,5.4,4.7,9.8c2.5-4.9,13.2-0.8,7,4.2c-1.4,4.5-14.6,8.4-7,12.2c3.4-6.4,9.1-11.2,14.6-16
	C500.3,1706.1,488.6,1711.1,482.3,1706.8 M319.8,1713.2c3.7,3.6,9.5,12.4,7.7,20.2c-0.5,12.1,11.7-8.7,18.2-1.4
	c4.9,6.7,13.5,3.1,20.2,5.8c-1.4-6.4-13.8-0.1-16.5-6.6c-0.8-4.1-0.7-8.4-2.4-12.3c-6.9-1.2-11.4,16.2-9.5,3
	C329.6,1721.9,327.1,1711.9,319.8,1713.2 M467.8,1713C468.3,1719.5,474.6,1714.6,467.8,1713 M375.5,1720.3c-4.8,0.3-1.9,3.4-2.1,6.6
	C378.2,1727.3,383.1,1718.1,375.5,1720.3 M452.2,1720.3c-6.6,5.5,4.6,6.2,8.6,5.7C458.9,1723.2,455.1,1720.6,452.2,1720.3
	 M268,1720.9C264.5,1728,275.6,1722.7,268,1720.9 M476.2,1723.2c-1.1,2.3-2.2,4.8-2.1,7.5C478.7,1732.2,482.9,1722.4,476.2,1723.2
	 M297.4,1726.2c-1.1,3.7-1.8,7.6-3,11.3c-6.1,2.7-6.2-5.9-10.6-7.6c-0.7,2.7-0.9,5.5-0.8,8.3c7.9-0.8,7.9,13.1,0.1,12.6
	c-2.9-0.5-1.2-4.3-0.5-6.1c-7.1,1.4,3,16.3-8.3,12.2c3.3,6.9-11.2,5.1-7.4,11.9c2.5,3.7-4.4,9.7,1.8,11.2c7.7,4.8,14.1-4.6,21.9-2.7
	c4.9-1.3,0.3-4.5-2.8-2.8c2.2-3,11.4-7.5,5.3-11.1c-0.4-9.2,12.7-0.7,12.5-11.3c-12.3,5.2,2.5-8.4,3.3-14.1
	c4.2-0.2,10.3-4.3,4.8-8.2c-6.1-5.3-10.4,3-15.5,5.1C298.3,1732.4,302.8,1724.5,297.4,1726.2 M265.1,1731.3
	c-10.9,1.3-3.4,18.5,5.3,12.1C279.5,1740.6,268.3,1734,265.1,1731.3 M408.8,1738.2c1.5,6,6.7,6.3,9.3,0.8
	C414.9,1739.9,411.8,1739.2,408.8,1738.2 M336,1742.3C321.2,1747.3,337.2,1747.8,336,1742.3 M372.7,1751.8c11.9-4,2.7,9.9,7.5,14.8
	c1.8,8.2,4.6,16.7,1.9,24.9c4.1-2,8.9-1.7,9.8,3.7c-1.2,8.8-15.8-2.6-18.7,2.6c3.5,3.9,12,7,15.6,6.3c0.8-11.9,8.3,6.7,15,4.7
	c8.3,0.5,1-13.9,10.1-10.8c5.2,2.1,1.9-3.3-0.5-4.7c4.7-15.9-11,4.6-16.1-3.6c1.5-6.3-1.2-11.7,6.9-14.4c-4.5,1.6-12.1-0.8-7.9-6.4
	c-5.6-6.9,4.6-11.5-4.4-16.2c-6.9,1.2-9.9-4.8-11.2-10.4C375,1741.2,377.1,1749.7,372.7,1751.8 M341.4,1744.2
	c-9.5,7-8.3,21.5-17.1,27.8c5.8,3.6-1.4,17.7-5.4,8.2c-4.7,6.2-10.5-1.6-14.5,3.6c7.9,12.9,14.1-4.6,22.6,4.3c4,7.2-7,5.6-10.8,2.9
	c2.2,5.8,11.1,9.5,7.7,16.7c-4.1,8.5,14,9.8,13.5,1.3c-0.4-7.9,10.8-7.1,15.5-10.3c-5.1-2.7-4.7-9.3-13.2-9.6
	c-1.6-9,3.1-17,10.6-20.9c-8.4,3.3-6.8-6.6-1.5-9.3C344.1,1755.1,348.3,1745.1,341.4,1744.2 M404.9,1744.3
	C401.7,1750.5,412.1,1748.1,404.9,1744.3 M415.3,1747.2C405.3,1751.8,426.9,1750.5,415.3,1747.2 M267.6,1750.5
	c-2.6,1.6-4.9,3.8-6.9,6.1C259.6,1769.4,282.7,1749.2,267.6,1750.5 M426,1750C422.9,1757.1,430.7,1755,426,1750 M258,1751
	C256.9,1758.3,265.3,1749.9,258,1751 M310.4,1750.5C309.6,1757.9,318.8,1753.8,310.4,1750.5 M370.3,1756.8c9.3,1.2,1.2-1.8,2.4-5
	C370.8,1748.9,364.6,1756.2,370.3,1756.8 M405.5,1757.4c-3.3,3.3-5.3,7.6-7.4,11.8C401.9,1766.3,410.3,1758.2,405.5,1757.4
	 M304.3,1758.6c-4.5,7.7,2.6,5.8,7.3,5.9C312.8,1760.9,305.7,1758.3,304.3,1758.6 M424.4,1760.5c-6.8,0.4-11.1,5.1-17.3,7.3
	c3.1,1.2,6.3,2.4,9.7,3c-2.2-2.5-1-7,2.5-5.2C421.3,1771.7,429.6,1761.7,424.4,1760.5 M299.7,1770c-14.8,8.2,15,7.9,18.6-0.1
	c-6.6,3.3-15.5,4.4-17.6-3.8C304.4,1758.6,293.4,1764.4,299.7,1770 M318.3,1769.9c4.2,0.8,4.7-4.5,4.6-7.5
	C319.8,1761.8,317.9,1767.2,318.3,1769.9 M370,1767c3.7,4.1-2.9,12.8,3.5,13C374,1774.9,376.6,1769.3,370,1767 M429.5,1768.3
	c-4.1,1.9-1.9,11.5,2.1,8.1C426.1,1775,433.3,1767.9,429.5,1768.3 M477.4,1769.4C465.8,1773.6,481.6,1773.2,477.4,1769.4
	 M345,1774.1C342.9,1786.2,356.9,1777.8,345,1774.1 M359,1774.8C351.8,1783.5,369.6,1777.8,359,1774.8 M352.7,1783.2
	c0,5,7.5,2,8.6,6.4c2.1,2.6,0,9.1,4.6,8.1C366,1788.8,360.8,1784.4,352.7,1783.2 M375.3,1786.2c-2.4,0.4-6.3,4.8-2.5,5.8
	C376.7,1795.6,380.5,1785.2,375.3,1786.2z M462.3,1009.2c3.6-0.8,7.1,5.8,4.2,8.1C462.6,1018.4,454.9,1011,462.3,1009.2z
	 M289.4,1008.2c12.5-8,33.1-0.2,50.7-1.5c2.5,2.2-3.8,5.6-0.6,6.8c7,0.9-8.5,11,0.5,9.7c7.2,3-11.3,10.9-10.7,2.9
	c2.7-4.1,2.5-8.8,2.4-13.5c-5.7,1.2-7.6,13.2-13.9,7.5c6.2-6.5-0.1-6.5-6.1-6.9c1.8,2.5,4,4.6,6.1,6.9c1.1,5.5,12.1,7.2,8.6,14.1
	c-5.2,3-5.7-6.1-11.2-4.2c-0.4,4.4,5.6,11.4,9.7,8.7c2.2-7,11-1.5,11.4,3.7c6.2-1-1.3-9.9,5.5-10.7c8.3-2.2-1.5,12.1,7.9,6.1
	c-3.2-4.7,3.6-13.3,5.1-5.6c-3.7,8.5,11.3,9.3,7,17.4c4.9,7.4-6.4-0.2-6,5.1c7.1-1.1,4.2,8-0.6,4.7c-6.4-0.4-5.5-11-11.4-9.8
	c-4.5,4.5,5.4,6.7,4.7,9.9c-4.3,4.8-9,0.1-10.4-4.6c-6.2-5.4-11.5,13.2-14.3,2.7c-8.9,3.3-9.2-6.6-15.8-9.5c7.7-3,0.5-13.2,0.6-3.3
	c-5.8,1.7-8-7-4.1-10.3c-9,6-5.4-4.8-11.4-8.4c-1.2-4-6.7-0.5-7.5-4.1c6.2-4.9-12.1-13.4-6.8-17.6
	C281.5,1009.1,289,1002.3,289.4,1008.2 M300.2,1010.1c0.1,3.6-0.9,9.3,3.9,9.9C304.4,1016.3,307.8,1007.2,300.2,1010.1
	 M304.2,1020.7c1,3.2,0.5,8.8,5.1,9.1C309.5,1026,309.2,1020.4,304.2,1020.7z M371.1,1004c4.7-5.1,8.8,3.8,12.6,6.1
	c1.9,4.8,5.1,1.4,0,0c2.7-12.6,9.9,5.1,10.8-4.7c3.3-7.7,14.1,6.4,14.7-3.2c7.1,1.7,15,0.6,21.5,2.7c4.9,6.6-11.3,7.9-4.3,14.5
	c0,4.3-7,6.3-5.9,11.8c4.4,3,11.5-11.6,12.7-0.8c-11.7,8,5.9,1,9.5,7.7c0.7,6.4-5.7,9-11.2,7.2c-4.5,9.9-16.1-1.8-13.2-9.3
	c3.2-8.1-14-5-8.6-13.9c0.1-8.7-10.3,0.7-10.8,6.1c10.6-1.8,10,10.6,18.3,14.1c-5.2,15.8-29.2,12.5-38.2,0.6c3.1-3.6,0-5.5-3.4-6.8
	c-4.4-3.7,3.8-7.9-0.2-11.7c-2.2-3.9-10.8-10-3.4-13.1C377.1,1009.2,367.8,1006.4,371.1,1004 M409.2,1008.1
	C407.4,1015.1,416.2,1006.3,409.2,1008.1 M414.3,1008.7c3.4,3.5-0.8,14.4,5.9,11.5C426.4,1016.2,419.6,1008.9,414.3,1008.7
	 M399.5,1011.5c-1.3,4.1-7.1,4.8-7.2,9.5C396.4,1024.8,405.8,1011.9,399.5,1011.5z M430.8,1005c-1.3-9.7,17.6-1.8,12.7,4.7
	C439.1,1009.8,435.6,1005.4,430.8,1005z M427.5,984.2C441.2,983.7,421.2,992,427.5,984.2z M419.2,983.1
	C428.5,983,415.5,989,419.2,983.1z M437.2,982.1C447.1,982,433.1,988.6,437.2,982.1z M418.3,975.2
	C431.8,972.9,416,985.8,418.3,975.2z M211.1,966.1c10.5-3,5.6,4.7,7.2,10.3C211.7,979.2,193.9,969.1,211.1,966.1z M400.9,965
	C409.3,963.9,401,972.4,400.9,965z M418.2,961.1C425.2,959.3,416.4,968.1,418.2,961.1z M429.3,955.2c8.8,2,4.5,25-4.5,15.8
	C432.6,967.5,424.8,958,429.3,955.2z M404.1,955.4c7-3.8,4.4,8.4-1.1,7.4C398.5,962.8,399.6,954.9,404.1,955.4z M280.1,954.9
	C288.9,955.2,281.5,963.2,280.1,954.9z M386.4,954.2C394.5,955,381.6,960.6,386.4,954.2z M396,952.8
	C402.8,952.5,395.8,959.6,396,952.8z M206.3,957.6c-6-1.7,4.2-6.6,7-4c3.9,3.9-1,8.5-2.1,12.5C202.7,967,212.5,958,206.3,957.6
	L206.3,957.6z M409.7,949.3C423.3,949.6,402.5,954.5,409.7,949.3z M421.3,947.1C431.7,947,416.3,955,421.3,947.1z M393.3,946.2
	C405.3,947.6,387.8,958.1,393.3,946.2z M386.2,946.1C397.1,947.4,381.1,955.2,386.2,946.1z M451.3,945.5
	c28.4,8.2,47.5,33.9,72.4,48.8c12.5,7.4,15.9,20.7,25.3,30.7c2.8,3,1.6,11.2,7.4,9.7c2.1-4.7-3.2-9.9,0.6-13.8
	c13.7,2.9,6.3,28.8-7,20.3c-16.8-23.2-33.9-49.6-61.1-61.1c-10-13.8-27.2-21.2-41.7-29.1c-2.3,11.4,3.4,31.6,17.9,29.6
	c16.3,6.4,4.2,34-10,23.1c-5.9-10.8,13.7-1.7,9.5-11.1c-2-6.7-9.3-3.8-14.4-4.2c3.1-6.7-7.5-7-7.3-13.6
	C439,966.1,440.4,948.1,451.3,945.5L451.3,945.5z M399.9,945C406.6,944.7,399.6,951.7,399.9,945z M413,943.9
	c5.3-0.1,5.6,8.1,5.8,11.8C413.5,956.4,414.8,947.7,413,943.9z M238.2,943.7C243.8,946.2,231.4,948,238.2,943.7z M388.1,939.3
	C398.8,939.7,387.8,950.6,388.1,939.3z M191.8,939c6.9-0.1,20.2-2.3,18.1,9c-3.1,6.7-17.3,5.4-16.8,14.7c4.7-3.5,13.5-1.7,7.4,5.1
	c-8.6,6.5,10.6,8.9,1.6,14.6c5.8,8.8,3.4-8.5,10.3-2.5c-1.7,8.6,4,9.1,8.1,3.2c-6.8-8.5,13.8-9.1,14.1-3.3c-4.1,4.8,6.8,3.8,2.5,9.5
	c-8.3,4.5-18.4,8.3-27.9,5.3c4.3,5.7,0.4,10.7-6.9,9.4c3,7.5-6.1,10.1-10.5,4.8c-1.6-9.1-4.3-18.7-12-24.4
	c-2.3-8.9-9.6-21.1-19.3-15.7c2.2-12.1-12.1-11.7-19.3-6.7c-12.6,2.1-17.2-19.6-6.6-21.7c-3.6,18.9,20,5.7,29.2,7.3
	c3.4-5.7,10.1,3,12.2-3.5c3-4.3,7,0.1,9.6,2.3C183.7,942.2,188.4,940.2,191.8,939 M177.1,947.2C179,956.8,185.6,949.7,177.1,947.2
	 M186.5,957.5C176.7,966.6,193.6,959.4,186.5,957.5 M194,978.6c-8.5,5.9,11.5,21.8,10,10.2c-4,2.1-12.7-3.2-7-6.6
	C201.2,981.4,195.9,978.6,194,978.6 M222.3,983.3c2.6,3.8-6.2,6.2-1.3,7.9C225.9,989.8,228.9,984.7,222.3,983.3z M298.6,927.5
	c5.2-3.2,9.2,6.5,2.9,6.4C295.4,936.8,295.4,929.9,298.6,927.5z M375.2,925.5C381.9,930.6,368.4,930.1,375.2,925.5z M287.2,925.8
	c4.4,2.4,9.4,10.2,6.8,15.3c3.7-0.3,1.8-6.4,5.9-3.5c6,5.4,11.5-4.3,6.3-8.3c5.3-3.2,11.9,1,17.7-2.9c-4.9,6.2,6,10.3,4.2,15.2
	c-12.5-3.2-8.4,8.8-0.6,3.3c-1.5,7.9,3.1,16,7.9,24.9c3.1,5.7-6.1,4-6.4,8.3c3.6-0.5,7.8-6.2,10.7-1.8c-0.9,6.1-8,14-11.7,4.7
	c-5.8,0-13.4,2.7-19.5-0.4c-3.3-1.7-0.9-8.9-5.9-7.3c2.3,5.8-5.3,16-8.8,6.9c-2.4,5.1-9.1,4.5-14.5,7.5c-6.8,2.2-7.4-10.2-14.8-6
	c-4.4,1.8-7.3-2.3-3.7-5.6c-12.9-8.5-15.8-25.4-21.9-38.6c-8-0.1-1.1-12.3,3-4.8c3.7-8,9.3-0.8,5.3,4.9
	c10.9-8.7,13.9,11.6,22.6,10.4c-2.4,3.9-1.1,6.8,3.7,6.8c-1.6,5.7,0.3,11.5,4.5,5c6.7,2,17.5-0.9,25-4.5c-0.3,7.5,8.2,3.3,9.3,10.7
	c0.6,8.3,9.1,5.2,14.8,4.7c0-3.7-2.5-7.4,0-10.7c-4.3,3.7-11.6,3.8-14.1-2c1.6-7.7,14.4,4.4,9.7-3.6c0.5-11.7-15.2,5.8-15.8-7.3
	c-8-7.3-12.5,12.7-17.8,3.8c-4.3-1.2-8.9-1.6-12.7-4.1c-0.1-4.9,11.7-0.4,10.4-5.6c-9.4-1.7-30.1,2.7-29.2-10.5
	c6,7.4,15.6-2.9,21.7,5.3c3.3-0.9,9.3-7.1,2.4-5.2C275.2,926.6,283.8,926.7,287.2,925.8 M294.7,943.8c-2.2,0.6-4.4,0.8-6.6,0.8
	C287.8,950.1,296.6,945.3,294.7,943.8 M301.1,962.5C297.4,967.3,309,963.7,301.1,962.5 M278.5,976.5c-3.1,1.6,3.2,6.7,6,5.6
	C285,979.1,282.1,974.9,278.5,976.5z M356.2,922.6c4.4-0.1,5,5.2,7.7,7.6c4.4-6.3,9.6,2.5,12.1,6c0.7-8.8,10.8-3.8,16.5-6
	c3.9-0.9,11.8-2.3,11.1,3.9c3.6,1.1,12.2,7.3,13.1,0.1c-1.8-4.5-10.1,2.7-11.5-1.9c7-4.6,20.9-7.8,25.8-1.1c-5.8,1.2-14,6.6-2.7,3.2
	c8.8-5.5,7.3,7.8,0,5.5c-2.1,6.4,9.8,5,7.1,10.9c-9.8,3.4-7.1-11.9-16.2-11.3c-2.3,2.7-5.1,3.3-8,1.2c-3,7.7-16.4,0.8-12.6-6.6
	c-2.9-3.5-8.6,6.9-11.2,0.8c-2.4-4.9-12,5.9-4.4,3.7c6.1,0.1-0.2,6.8-0.2,9.6c-1.4,6.4-11.1-5.4-7.1,3.3c12.9,1.1,0.8,5.1-0.6,9.7
	c6,7.6,14.3-6.9,18.8,2c-5.6,2.4-2.6,7.8,2.6,6.6c5.3-3.7,7.4,5.8,12.2,5.3c4.2-1.3-0.6-8.2,4.7-7.1c-1.8,6-1.7,12.3,4.6,14.4
	c-7.2-0.5-16,3.2-22-1c3.1,6.1-6.4,7.7-8.5,2.5c-4.3,1.6-7.6,1.3-10.4-2.5c-3.8,7.9-9.9,1.7-16,2.5c0.6-3.7,2.9-7-2-8.8
	c3.1-4.9,3.8-9.3-3.1-9.1c-1.5-10.2-1.8-20.9-6.4-29.5C337.8,933.8,351.8,926.1,356.2,922.6 M367.3,935.5
	C361.8,943.7,376.1,937.1,367.3,935.5 M392.2,973.7C380.6,976,399.6,980.7,392.2,973.7z M156,921.3
	C166.1,922.8,151.7,930.5,156,921.3z M150.5,921.5c7.4-0.7-0.1,8.1-4.3,6.7C145.9,925.3,148.3,923.1,150.5,921.5z M155.1,911.4
	c2.7,0.3,4.9,2.2,7,3.8C158.6,921,148.5,916.8,155.1,911.4z M484.7,901.8c6.2,0.5-9.6,20-12.7,8.3
	C472.2,904.2,481.4,905.7,484.7,901.8z M407.5,894.6c5.1-2.4,2,3.2,0.3,5.3c-2.8-1.1-7.1-3.3-7.9,1.2c7.5,5.2,17.1-5.2,24.9,2.1
	c-1.3,4.7-9.9,7.2-12.9,2.1c-6.6,7.7-15.2-4.7-20.8,2.4c-10.3,5.2-7.7-17.3-0.5-9.1C396.3,903.2,401.9,895.6,407.5,894.6z
	 M282.3,889.4C292.7,888.8,277.6,896.3,282.3,889.4z M625.2,880.8c6,0.5,11.5,3.2,16.8,5.9c1.4,5.2-6.2,5.6-9.3,3
	c-5.5-4.6-13.7,1.1-18.7-4.6C615.3,881.2,621.5,881.6,625.2,880.8L625.2,880.8z M456.2,880.7c12.6-0.3,29.9-0.5,37.8,10.8
	c-12.6,2.4-23.3,7.1-30.9,17.2c-1.4,10.4,12.2,2.2,13.4,12.1c0.2,9.5-11.8,2-17,3c-3.1,7.2,11,7,8.9,14
	c-11.4,2.3-12.7-12.2-21.9-15.2C436.6,910.5,437,883.4,456.2,880.7 M472.6,889.7C465.7,897.3,489.2,886.1,472.6,889.7 M459.3,896.6
	C453.6,904.1,469.2,896,459.3,896.6z M394,875.7c3.1,0.5,9.2,2.3,5.7,6.3C396.8,888.8,385.9,876.6,394,875.7z M518.2,873.9
	c29,8,57.4,20.8,86.1,31c14.9,4.1,33.2,6.7,41.3,21.9c5.7,10.3-7.8,19.1-17,14.1c-6.3-4-13.5-6.4-20.5-8.7
	c-0.1,7.3,7.8,8.2,12.7,11.4c1,6.2-7.5,5-10.9,2.5c1.7,1.6,4.5,4.9,0.8,6.1c-9.7,1.8-18-5.4-27-7.7c3.4,9.6,17.2,8.8,21.3,16.7
	c-4.1,3.1-0.9,6.5-1.5,10.5c-8,1.3-11.7-9.2-18.7-11.2c4.5,4.6,10.2,11,4.5,17.2c-6,1.4-15-8.5-20.1-6.6c7.7,2.8,13.7,12.5,8,20.2
	c1.6,2.1,5.4,3.3,4.4,7c-8.2,1.3-12-8.1-19.3-9c2.1,4.7,1.9,9.9,6.8,13.1c2.6,6.1-5.4,0.5-7.9-0.5c3.3,5,3.4,11.4,6.8,16.4
	c-2.5,6-13.4,3.2-10.3-3.6c-19.9-26.9-48-45.9-75.8-64.3c-3.7-5.1,6.8-1.9,8.8-1.6c12.7,2.2,17.7,15.9,29.1,20.8
	c-0.5-1.2-0.9-2.3-1.3-3.4c8.7,4.8,15.6,13,25.3,16.4c-0.7-2.5-4.6-7.8,0.1-8.1c4.8,3.6,7.9,9.7,13.7,12.1c-0.5-5.6-3-10-8.8-12
	c-22.8-11.6-43.5-28.2-66.8-37.4c2.7-5.3,7.3-8.9,7.3-15.7c9.3,1.3,15.1,10.8,23.9,13.7c21.8,7.8,40.4,22.1,62.2,30
	c-1.7-4.5-9.4-4.4-6.7-10.6c-22.8-14-47.9-23.7-71.7-35.4c-2.3-2-0.9-6.2,1.3-7.7c26.7,12,52.6,27.1,79.5,38.8
	c3-12.6-13.6-11.8-21.9-14.7c-5.2-15.1-25.7-18.4-39.8-23.8c-6.8,4.2-18.1-5.1-10.8-11.4c35.5,10.2,67,29.7,100.7,44
	c-1.8-5.6-6.5-8.7-12.3-7.8c-5.1-4.7,5.4-4.6,7.4-7.2c-31.4-10.6-62-22.6-91.9-36.4c0.5-7,12.7-1.6,16.5-0.2
	c35.7,15.3,72.3,28,108.6,41.3c9.8-0.4,0.2-11.6-4.9-13.1c-24.5-4.5-45.9-17-68.6-26.4c-15.3-3.2-29.5-9.7-44.3-14.5
	C512.3,878.5,514.2,873.1,518.2,873.9 M505,939.3c17,14.6,38.9,24.8,58.1,36.9C553.6,953.2,525,949.6,505,939.3z M276.2,873.6
	c9-3.2,10.2,2.6,10.2,9.5C282.2,882.3,272,879.5,276.2,873.6z M396,871.3C403.3,870.2,394.9,878.6,396,871.3z M386.2,868.6
	C393.7,869.1,381.5,874.9,386.2,868.6z M282.2,867.6C289.7,868.1,277.5,873.9,282.2,867.6z M380.5,866.5
	C391.6,865,375.9,872.8,380.5,866.5z M269.5,866.6C277.3,867.3,261.6,872.8,269.5,866.6z M367.6,865.5
	C380.8,866,362,872.5,367.6,865.5z M129.2,865.6C137,865.7,124.6,871.1,129.2,865.6z M296.9,862.3
	C303.6,862.1,296.6,869.1,296.9,862.3z M253,861.6C261.5,862.1,252.4,870.4,253,861.6z M407.6,859.7c2.9-1.8,1.9,0.3,0.6,2
	c7.2,5.2,14.6-6.5,18.9,3.3c6.7-5,13.4-2.8,7,5.4c8.4,16.7-8.9,17.4-17.3,25.8c-6.4-0.4,1.9-5,3.9-6.4c-3.1-7.9,4.9-14.8,2.6-23.2
	c-5,0.5-12.9-2-15.9,0c4.5,6.2-5.3,5.2-4.2-0.8c-4.8-0.3-9.1,3.5-13.2-2.3C395.8,862.9,403,864.2,407.6,859.7L407.6,859.7z
	 M351.3,857.6c4.1,0.5,7.9,3,12.3,2.2c-0.7,7.3,2.4,13.8,3.2,20.9c9.5,3.3-4-5.4,3.2-5.5c6.5,0.3-1-12,7.7-9c-0.4,2.8-1.8,8.5,3,6.8
	c10.9-2.4-2.5,15.7,9.1,14.7c6.3-2.2,16.1,9.6,3.5,6.6c-5.7-5.1-10,3.7-15.7,1.5c-3.1-4.2,6.1-4.8,1.5-8.7c-2.3-6.1-7.6-2.2-6.7,2.9
	c4.1,0.5,4.4,5.1,0.1,5.8c0.9,3.8,18.5,12.4,4.3,11.5c-7.3,3.7-2-10.5-8.8-3.6c-6.6-1.7-14.6-4.7-23.5-5c-1.6-12,2.3-26.1-1-36.8
	C345.3,859.4,348.5,858.4,351.3,857.6L351.3,857.6z M98.1,857.7c4.5-2.2,12.1,3,4.1,3c2.2,12.9,15.3-1.6,21.5,4.7
	c0.2,11.5,13.4,0.6,19-0.7c0.8-6.5,6.6-3.7,7.5,1.1c11.2-0.9,20-7.7,31.2-7.2c0.2,2.8-10.6,5.2-4.2,9.5c2.3,8.5,10.7-3.8,12.5,5.7
	c3.1,11-3.2-7.2-8.1,1.2c-3.6,8.6,5.7,19,9.9,25.1c-3.2,5.6,3.4,12.6,7.5,13.5c-3.8,12.5-20.4,2-28.1,9.2
	c-13.6,4.1,1.3-18.2-12.5-15.9c-6.1-4.1-6.4,7.7-12.5,0.8c-0.5,7,1.2,17.5-8.1,21.4c3.9-12-2.9-24.5-8.9-34.7
	c-5.3-1.7-8.6-5.6-5-10.9c-6-3.3-9.6-11-17.7-7.5C96.1,877,96,864.6,98.1,857.7 M120,867.4c-4,3.9,6.5,11,5.4,5.3
	C118.5,875.2,123.8,867.1,120,867.4 M144.9,878.8c-11.8,3.4-6.8,22.8,1.5,10.6c2.2-3.8-0.4-3.7-3.4-2.5
	C139,884.3,148.9,880.7,144.9,878.8 M150.1,880.5c-0.3,4.5,3,20.5-7.7,15c-0.2,12.8,11.1,4.4,10.6-3.3
	C164.8,893.5,153.2,884.1,150.1,880.5 M161.3,893.3c1.9,6.3-6.9,3.5,0,9.5C159.3,901.1,169.7,893.4,161.3,893.3 M170.1,911.3
	c-1.9,2.8-6.3,8.6-0.4,9.2C175.5,922.4,174,912.8,170.1,911.3z M314.3,854.8c6.4-2.5,13.2,2.5,6.4,8c-6.5-2.9-5,8.6-1.2,1.7
	c7.7-0.1,1,17.1-0.9,5.1c-7.8,2.7,5.6,11,2.8,16c-1.5,6.5,7.7,8.8,6.3,15.1c-2.7,4.1-8.5,3.7-12.5,1.9c-2.1,6.8-9.1,0.6-13.8,1.9
	c-6.6,2.6-15.1,3.3-19.9-0.7c-7.4,8.8-7.1-4.1,0.5-5.5c6.9-0.4,6.1-7.2,4.4-12c3.3-0.2,9.3,2.3,6.2,6.2c-0.3,6,8.2,7.4,11.5,3
	c-5.3,2.2-9.6-7.7-3.5-9.4c-8-3.5,0.1-16.2,7.3-11.8c-2.6,3.8-5.9,6.6-4.7,11.9c4.8-3.8,8.4,2.3,13.3,2.4c-1.7-3.8-6.7-5.6-10.4-7.5
	c-0.3-5,6-3.7,8.8-1.8c-0.1-3.5-0.9-6.8-5.1-5.7c4.6-9.3-6.6-2.1-5.8-9C309.4,863,309,855.8,314.3,854.8z M289.2,854.3
	c2.7,0.1,9.1,0.6,7.3,4.6C293.6,860,288.4,857.9,289.2,854.3z M237.4,854.4c4.6-1.8,5.3,7.6,0.8,6.9
	C234.5,860.9,233.8,855.7,237.4,854.4z M207.3,854.6c4.5,2,10.8,1.9,14.8,5.7c-2.8-4,2.2-8.2,5.6-4.7c-0.2,8.2-1.5,17.3,6.1,22.9
	c7.3,1.6-6.7-13.6,3.4-11c-1.4,5.5,9.6,9.5,9.4,2.2c10-1.8,1.2,14.3-3.9,6c-5.4,3.4,6.1,7.8,7,11.1c-9.4,7,12.8,10.3,12.7,5.8
	c-9.1,2.5-13.4-11-2.9-13c9.6-7.1,1.2,17,9.8,10.8c5.8-11.4,10.5,9.7,3.9,13c-2.5,5.2-7.9-4.3-9.2,0.7c-0.8,5.8-7.9-1.8-10.9,1.2
	c-2.7,8-15.6-6.4-15.9,4.2c-6.6,5.3-7.2-7.1-11.6-0.5c-6.5-3.4-12.3-7.5-10.8-16.2c-5.6-7-7-15.6-5.2-24.4
	C199.4,868.9,200,858.2,207.3,854.6 M212.3,863.5C208.3,870.5,223.7,862.3,212.3,863.5z M300.5,853.6c5.4-3.8,9,5.5,3.5,6.8
	C301.8,859.3,296.5,855.5,300.5,853.6z M251.2,853.6C271.8,854.7,243.2,861,251.2,853.6z M280.2,850.3c6.2,3.5,6.1,18.5-1.6,7.2
	C267.8,860.5,274.7,854.5,280.2,850.3z M264.9,849.3c6.1,0.8,6,7.8,5.7,12.6C262.6,863.1,266.3,853.1,264.9,849.3z M136,834.6
	c3,2.6,8.8-3,8.9,2.6C145.6,843.9,131.3,839.2,136,834.6z M315.3,827.4C325.3,828,310.3,837,315.3,827.4z M482.8,825.7
	c10.5-3.9,14,8.9,19.9,14.7c-1.6,5.1-10,0-13.2,5.4c-5.4,6.8-15.8-4.8-4.2-5.3c6,0.6,2.3-11.7-2.6-7.8
	C475.6,834.4,475.9,825.1,482.8,825.7L482.8,825.7z M410.3,819.5C420.4,821.7,403,827.7,410.3,819.5z M524.1,818.5
	c35.1,3.8,70.2-1.5,105.3,0.5c11.2,0.5,24.1-0.6,33.6,6.6v0.9c-6.6,0.4-13.2,0-19.7,0.2c-0.6,5.4,15.4,2.4,10.4,10.3
	c-1.6,10.1-13,3.2-20,5.6c9.3,3.9,24.3,5.2,24.2,18.7c-8.6,2.8-17.8-1.2-26.6-0.6c6,3.6,11.2,9.1,18.5,9.9c1.3,5.8-6.1,4.8-9.5,4.9
	c1.3,1.7,6.3,6.4,1.7,6.5c-39.3-8.9-79.9-10.5-119.3-18.6c37.6,12.2,76.3,21.7,114.5,31.8c3.9,6-7.3-0.6-9.8,0.9
	c-1.6,5.9,13.1,5.3,7.2,11.1c-9.4-0.6-17.8-5.4-26.3-9c4-5.5-4.1-6-7.9-7.3c-31.5-6.9-62.3-16.9-94.4-21.4
	c-7.9-11.9,11.2-4.5,16.2-5.9c-4.3-0.5-11.6-9.3-4.5-10c39.3,12.9,81.2,12,121.3,21.8c-4.5-5.1-11.8-5.3-17.6-7.3
	c-1.9-4.2,5.5-5.2,6.2-8.1c-32.8,0.5-64.9-10-97.6-5.8c-9.8,3.2-4.6-12.5-14.2-9.6c1.3-5,8.6-5.4,8.4-11.3
	c36.9-3.9,74.6,2.9,111.7,0.8c-5.5-2.1-11.6-1.5-7.5-8.9c-28.5-2.8-56.8,3.6-85.2,1C536.7,827.1,522.9,829.2,524.1,818.5
	 M536.5,838.8c-5.4-1.1-10,1.8-5.6,6.6c32.4,0,64.6,8,97.1,6.5c-11.3-1.2-2.9-12,5-9.3C601,839.6,568.7,837.4,536.5,838.8
	L536.5,838.8z M322.4,818.5c2.8-0.9-2.5,6.8-0.6,6.8C316.7,826.6,317.9,817.9,322.4,818.5z M402.5,817.6c4.5-1.2,6.7,10.1,0.9,10.2
	C397.2,829.4,396.6,818.8,402.5,817.6z M135.4,816.5c4.7-1.1,8.7,4.3,7,8.7c6.9,2.3,12.9-5.3,18.8-7.8c4.8-0.2,2.4,5.6-0.9,6.1
	c6,3.2-0.7,15.5-7,11.8c-5.1-1,2.3-6.5-1.2-8.6c-4.8,3.3-15.3,5.2-16.7-4.2c-2.1,2.7-8.8,9.1-10.1,3
	C129.2,823.1,132.9,820.5,135.4,816.5L135.4,816.5z M384.5,819.6c-3.2-4.5,5-7.8,6.2-3.1C391.8,819.8,386.9,821.1,384.5,819.6z
	 M642.4,808.7c5-0.8,23.1,2.3,15.1,9.5c-9.7-2.3-19.9,0.1-29.3-2.9C627.7,807.7,637.4,809.1,642.4,808.7z M319.3,808.5
	C329.5,808.9,313.8,817.5,319.3,808.5z M399,805.1c5,2,5.5,12.3-2.5,9C391.8,811.6,396,806.9,399,805.1z M142.7,803.7
	c6.4-3,2.7,7.5,7.4,6.2c3.8,1.6,10.4,6.6,3,8.5c-6.4,7.3-10.8-3.1-16.2-6C134.5,808.7,142,807.5,142.7,803.7L142.7,803.7z
	 M294.1,801.5C300,803.6,289.5,807.5,294.1,801.5z M279.5,799.4C294,797.9,273.7,808.1,279.5,799.4z M265.4,796.6
	c3.4-1.6,5.4,3,5.4,5.6C268.5,805.8,259.2,797.7,265.4,796.6z M423.3,795.7C429,801.3,413.9,801.9,423.3,795.7z M401,801.2
	c0.2-4.1,8.9-8.8,9.2-2C407.1,799.9,404.1,800.7,401,801.2z M393.4,801.4c1.7-2.8,3.4-6.8,7.3-6.3
	C400.7,798.7,396,799.8,393.4,801.4z M301.8,795.7c2.4,0.2,8.6,2.9,4.8,5.3C303.1,803.2,299.6,797,301.8,795.7z M290.4,795.5
	C300.6,795.2,285.1,803.1,290.4,795.5z M245.3,795.7C251.1,798.5,238.4,799.9,245.3,795.7z M225.2,798.4
	C217.6,798.3,225.7,789.8,225.2,798.4z M234.5,793.4C243,795.1,226.5,799.8,234.5,793.4z M376.4,792.2c3.3,0.8,5.7,3.5,7.7,6.1
	c-2.8,5.1-9.2-2.7-10.8,1.7c4.2,8,13-1.5,20.2,1.4c2,2.5,9-2.1,5.5,3.6c-6.3-0.3-18.8,7.9-15.9,2.1c-3.1,0.9-13.4,5.7-3.4,5.2
	c7.4,3.1-7.4,8.6,4.9,7.2c1,3.2,5,8,8.4,5c3,12.3,28.5-1.9,16,12.5c-7,1-1.8,7.7,0,0c3.9,1.5,10.4,3.6,10.8-2.6
	c-4.3-4.3,4.4-7.5,0.9-11.8c-2.6-4.7,7.7-2.6,4.4-7.5c-1.7-8.2-8.9,8.7-11.6,1c1.3-9.3-9.9-11-3.2-17.1c6.5-1.7,3.5,6.4,6.6,9.5
	c5.3,2.5,15.3,1.1,15.8-6.2c-8-2.4,8.6-8.6,3.1-0.8c-6.5,11.3-5.3,24.9-9.4,36.3c2.3,7.2-7.4,10.3-12.8,10.1c-17.1,0-38.5,1-53-5.3
	c-2,3.7-6.8,4.4-9.9,1.8c-6.3-6.2,3.6-18.1-3.9-23.3c1.5-2,5.8-4.4,3.5-7.1c-6.6-2.9,9.8-11.7-0.1-10.5c-7.6-3.1,2.4-10.6,6.8-5.8
	C360,789.3,375.8,802.5,376.4,792.2 M369.2,804.5C361.3,814.8,373.4,810.6,369.2,804.5 M390.3,828.4
	C377.5,830.4,396.1,835.4,390.3,828.4z M248.3,791.6C254.2,793.7,241.2,795.4,248.3,791.6z M476.1,789.9c5.6-0.8,11.5,1.3,16.5,3.7
	c5.1,3.5,5.9-6.4,10.8-2.8c1.2,4.2,1.1,8.7,3,12.7c1.7,4.8-10.2,7.5-4.6,10.4c10-7.5,8.6,18.2-1.4,16.1c-0.1-3,1.3-5.8,2-8.6
	c-1.8,3.5-8.6,7.6-10.1,2c3.5-3.1-1.5-12.7-3.6-6.3c-2.9,5-8.6-7.8-9.2-0.2c0.5,7.1-6.8,3.9-10.7,3c-3.4,7,7.1,9.1,7.4,12.6
	c-9.2,3.6,2.1,3.7,6.7,2c2.5,7.2-8.5,5.1-9.5,8.4c6.1,3.5-1.2,10.5,6.2,12.7c4.8-0.7,20.2-8,22.5-0.7c-9.7-4.6,1.3,16.2-12.1,11.3
	c-19.7-4.2-45.8-13.6-50.4-35.9C445,812.3,460.5,798.7,476.1,789.9 M478.6,800.7c-5.2-0.8-1.6,5-4.5,7.6
	C481.6,816.7,491.8,795.8,478.6,800.7 M487.2,801.1c3.4,2.1,0.6,10.1,5.3,5.8C498.1,802.8,490.9,801.6,487.2,801.1 M469.4,808.5
	C464.3,815.2,478.8,806.7,469.4,808.5 M464.9,840.3C468.2,847,474.5,840,464.9,840.3z M275.6,789.5c10.1-1.5,4.5,7.7-1.3,7.6
	C271,794.9,272,790.7,275.6,789.5z M360.1,787.5c2.7-0.9,7.5,6.9,2.1,5.2C357.6,795.1,356.5,788,360.1,787.5z M257.3,787.7
	c3.3,0.1,5.3,11-0.8,9.3C251.8,794.1,251.3,788.9,257.3,787.7z M305,785.9c10.4-1.3,22.7,0.4,14.2,11.2c9.5,2.9-1,13.6-2.3,6.8
	c-10,9.9-6.4-8.6,0.5-11.2c-0.6-6.8-7.8,6.9-10.6,0.5C306.7,790.6,302.5,787.7,305,785.9L305,785.9z M639.6,783.8
	c4.8-0.6,18.8-2.9,17.2,6.1c-1.7,6.3-6.2,0.6-9.6,0.6c-8.8,3.3-13.2,2-21.1-0.6C624.4,782.3,635,784.3,639.6,783.8L639.6,783.8z
	 M298.2,781.1c10,0.2-3.4,20.7-6.6,9.7c-8.2,2.5-2.5-4-5.5-8.5C290,782.7,303.1,790.6,298.2,781.1z M259.5,781.6
	c5-2.5,8.5,1.8,3.4,3.9c3.3,0.1,6.2,5.7,1.5,5.6C263.3,787.8,255.4,784.4,259.5,781.6z M280.2,780.5
	C288.2,781.8,275.7,786.9,280.2,780.5z M272.5,780.6C279.1,783.8,262.4,783.5,272.5,780.6z M244.4,780.6c3.5-1.1,2.8,3.6,0.2,4.2
	c-5.7,1.7,2.1,11.2-5.4,10.2C234.2,789.5,238.2,782.5,244.4,780.6z M219.3,779.5C228.4,781.9,211.2,785.5,219.3,779.5z M249.3,778.2
	c3.5-0.3,6.1,2.6,7.8,5.3C254.1,788.5,249.1,781.9,249.3,778.2L249.3,778.2z M214.7,779.6c-0.1,16.3,11.9,1,18.5-2.1
	c5.7,12.7-11.4,12.9-20,14.1c4,5,5.6,18,12.1,6.9c4.2-0.8,8.4,4.5,2.8,6.3c3.8,5.1,13.3,0.5,8-5.5c4,4.3,10.2-0.9,13.8,3.2
	c-3.9,4.7,0.3,12.6,6.3,11.6c-1.8-7.7,11-14.5,6.6-3c7.5-6,17.8,5.7,23.8-4.4c6.1-1.7-3,8,3,6.4c6.7,0.3-2.4-8.3,4.7-6.3
	c3.2,6.8,11.1-7.5,9.2,3.4c6.3-3.7,12.2,1.1,9.9,6.5c-6.6-1.5-7.8,2.3-8.9,7.4c4.2,7.1,4.6-8,9.6-3.7c1.9,6.6-6.3,21.8-14.4,13.2
	c-7.9-7.8-13.3,4.5-21.9,0c-6.7-4.2-17.3,1.2-21-7.1c-3.4,2.9-7.1,2.9-10.7,0.3c-0.5,5-5.6,2.4-8.9,3.7c-12.7-2.6-24.2,6-36.4,1.1
	c-8.1-5.7-3.5-15-0.2-22c-4-0.9-6.4-4.2-1.8-6.5c5.7-3.9-1.6-7.5-1.7-11.6C204.5,790.1,208.3,781.8,214.7,779.6 M261.2,813.7
	c-5.1,1.8,1,9.3,4.6,6.8C263.6,818.8,263.2,814.3,261.2,813.7 M276.4,820.5C272.2,826.5,283.7,821.3,276.4,820.5z M125.4,775.3
	c10.1-3.4,1.7,13.6,10.5,11.3c4,6.3,11.8,6,18.4,6.3c5.2,4.6-6.9,16.6-7.8,5.8c-12.1,5.3-14.7-14.2-25.3-10.2
	c-0.4,6,7.8,11,1.9,16.2c1.1,7.8,3.5-7.5,8-2.5c6.2,9.8-10.4,16.7-8.2,26.2c2.1,5.8,8.8-2.2,9.9,3.9c0.6,2-10.3,5.4-5.1,6.5
	c13.5,1.2-13.3,12.2-12.6,2.3c-2-5.3-2.6,4-1.8,5.7c-5.2,2.3-6.8-3.2-2.5-5.6c-3.9-3.1-1.7-5.3,1.7-7.5c-2.6-4.4-4.4-14.3,2.5-18.3
	c-3.7,2-7.3-1.5-3.3-4.3c8.3-6.5-14.5-8.9-5.2-15.2c2.1-1.4,9.6-7.7,3.4-5.7c-5.7,5-11.7-7.3-5.1-8.5
	C113.3,778.9,122.4,787.3,125.4,775.3 M119.1,834.5C116.5,842.9,131.2,836.8,119.1,834.5z M133.6,775.9c4.9-9.2,11.2,3.7,17-1.3
	c7.5-2.7,14.2,3.5,21.6,2.5c4.7,4.1-1.5,12.7-6.1,9.3c-0.7-6.3-5.5-3.3,0,0c-1.5,5.1,4.2,2.3,7,3.9c6.8,8.4-4.9,24.9-12.8,12.8
	c1.9,3.7-2.6,5.9-5.7,4.8c-0.8-6.1,4.7-13.4,11.4-10.8c2.4-5.4-15.7-6.5-10.2-14.8c-8-7.9-1.3,13.9-10.2,7.3
	c2.4-6.6-7.9,0.7-6.3-4.8C140.9,780.3,127.4,781.7,133.6,775.9L133.6,775.9z M318.4,763.6C326.4,762.8,312.8,769.3,318.4,763.6z
	 M197.5,762.5C206.9,767.9,187.2,769.9,197.5,762.5z M90.3,757.2c5.6,0.8,0,10.6,6.1,12c4.8,0.9,15.6-0.7,15.6,6.7
	C99.8,788.3,77.8,771.5,90.3,757.2z M104.1,751.7c3.6,1.2,12.3,5.7,2,5.5C99,760.2,98.8,752.4,104.1,751.7z M433.5,744.6
	c13.7,0.4,14,20.8,7.3,29.8c-1.2-7.6-4.1-14.7-5.5-22.3c-4.4-5.3,0.8,6.3-5.2,4.8C427.1,752.7,428.9,747.6,433.5,744.6z
	 M425.5,743.4c4.9-1.8,4.1,5.1,0.5,6.1C422.8,748.5,421.9,744.7,425.5,743.4z M409.2,742.5C399.1,743.6,408.3,734.3,409.2,742.5z
	 M439.3,738.6C445.6,742.8,429.9,742.8,439.3,738.6z M113.3,738.4c6.6-1.5,2.8,9.1-2.2,6.8C111.3,742.9,111.3,739.9,113.3,738.4z
	 M491.5,735.5c6.6-2.2-0.7,5.4,3.3,7.1c5.6,2.9-2.8,10.1-6.5,6.4C490.6,744.4,485.5,738.4,491.5,735.5z M442.2,731.6
	C448.5,734.8,435.1,735.7,442.2,731.6z M407.8,726.6C421.5,728.4,393,736.3,407.8,726.6z M263.1,724.2c3.5,0.9,6.9,2.2,10.6,1.3
	c-0.2,3.8-3,6.5-2.5,10.8c-4.7-1-6.8-5.1-2-7.8C265.9,730.1,262.8,728,263.1,724.2L263.1,724.2z M406.3,722.5
	C412.5,723.5,401.3,727.6,406.3,722.5z M487.3,727.5c-0.2-4.1,3.9-6.5,7.6-6.3C494.9,725.2,491.7,728.2,487.3,727.5z M302.5,721.5
	c10.1-0.8,7.5,12.8-1.2,12.6C298.3,731.1,299.7,723.5,302.5,721.5z M290.3,721.5c5.5-2,5.2,4.5,4.5,8.3
	C289.9,732.4,286.3,723.9,290.3,721.5z M280.2,721.5C290,721,275.8,727.8,280.2,721.5z M390,720.3C397.9,718.5,390.6,726,390,720.3z
	 M184.2,720.5C191.2,718.7,182.4,727.4,184.2,720.5z M417.5,718.4c5.4-1.8,4.8,7.8-0.2,6.9C414.1,723.9,414.9,719.9,417.5,718.4z
	 M453.4,717.5C462.7,718.8,445.2,722.4,453.4,717.5z M446.6,715.8c2.3-2.8,3.7,9.2-2.2,7.6C444.5,720.7,445.6,718.2,446.6,715.8z
	 M433.4,715.6c1.5,1.8,8.9,10.7,0.7,10.7c7.3,5.9-2.2,3.6-4.4,10.5c1.3-4.7-11.6-11.8,1.2-10.9C424.9,722.9,427.7,717.2,433.4,715.6
	L433.4,715.6z M397.2,715.5C406.1,719,387.6,720.3,397.2,715.5z M491.5,712.5c5.5-2.4,3.8,7.5-0.5,6.8
	C486.7,719.6,488,712.7,491.5,712.5z M245.3,712.8C261.9,711.6,239.6,723.8,245.3,712.8z M403.2,711.1
	C415.2,711.2,398.9,720.1,403.2,711.1z M188.4,708.5C197.8,706.7,183.3,715.2,188.4,708.5z M459.4,701.5
	C468.9,706.3,449.1,707.1,459.4,701.5z M367.6,703.9c11-9.9,20,9.5,11.6,17.5c-3.8,4.5,6.4,5.5,3,0c7.2,0.4,0.9,2.4,3.4,6.8
	c-0.4,11.3,13-8,15.5,0.7c-5.4,3.4-10.2,7.6-12.8,13.5c5.8-3.5,14.8-3.2,12.4,5.5c6.4,0.4,0.4,6.8,2.2,10.3
	c2.4-5.6,12.5-1.3,9.8-9.1c-4.5,0.2-9.8-4.4-3.4-6.8c8.1-1.5-3.4-8.6,3.5-11.5c5.1-5.8,17.5,4.6,4.1,3.1c-6.7-1.2-1.3,5.6,2,6.6
	c-6,9.4,5.1,21.2,14.8,19.2c7.3,9.2-9.5-1.5-6.1,7c-6.1,0.9-13.9-5.8-18,1c-4.6,2.4,0.7-5.9-4.4-3.5c-10.3,4.4-22.3-3.1-31.3,3.7
	c-6.7-4.5-20.7,2.5-18.8-10.5C362.6,740.6,360.7,720.9,367.6,703.9 M383.3,741.5C381.5,748.5,391.5,738.7,383.3,741.5 M397.4,749.5
	c-5.7,0.5-4.9,11.8,1.6,7.8C395.9,754.9,399.6,748.4,397.4,749.5 M378.9,752.3C381.8,758.1,387.1,752.6,378.9,752.3z M393.6,702.5
	c3.3-6.5,17,5.5,9.6,8.6c-10.7-6.8-8.9,12.5-20,7.6C385.6,713.6,393.4,709.5,393.6,702.5L393.6,702.5z M428.2,699.8
	c7.8,4.1,15.6,1.6,24.6,1.8c3,11.1-10.2-0.9-11.7,6.8c-3.9,6.4-7.1-8.7-11.8-3.8c-3.5,4.8-13.5-1.2-9.4,7.3c-5.7,7.7-9.7-1-5.1-6.4
	C398.1,708.5,422.2,699.4,428.2,699.8L428.2,699.8z M383.3,699.3C399.8,698.4,379.2,710.4,383.3,699.3z M625.1,694.7
	c9.6-1.1,0.5,11.4,8.2,12.3c2.5,4.8-6.8,4.2-9.2,6.5c5.3,3.2,20.7-12.4,20.5,0.4c-6,0.2-10.2,4.6-14.4,8.7c7.4,3.7,10.5,13,20.1,7.4
	c2.2,5.7-6.4,8.4-8.7,10.2c6-2.2,10.3,8.9,3.3,8.9c-8.4-2.7-14.3,8.2-22.8,4.4c1.6-3.1,6.3-12.6-0.8-10.6c-5.3,2.7,2.3-5.8-1.9-4.1
	c-26.6,8.5-52.2,19.5-78.7,28.3c-3.3,0.4-10,6.2-1.7,5.7c34.3-0.6,67.6-10.6,100.5-19.8c7.3-5.2,23.9-5.2,22.4,7.3
	c2,12.3-11.3,18.4-21.3,17.7c-31,10.8-63,19-96.2,19.6c-9.1,2.4,4.2,10,8.7,7.5c30.8,2,61.8-0.8,91.5-9.2c5.5-0.9,17.1-4.2,17.3,4.1
	c-36.3,11.4-75.3,12.4-113.4,11.5c-6,5-14.8,1.2-19.4-3.3c3.9-5.8,8.3-11.3,8.1-18.7c38,3.4,73.8-9.2,109.4-19.6
	c9.5-0.8,10.9-15.6-0.3-12.5c-33.6,12.8-69.8,19.3-105.3,21.7c-5.2,3.1-14.7,5.5-17.5-1.5c-3.5-6.1,14.9-2.5,6.8-5.7
	c-7.6-2.2-1.1-10.1-2.9-15.2c9.1-8.9,22.4-10.2,33.6-15.5c19.2-5,34.2-19.4,50.9-28.9C604,703.5,618.2,696.8,625.1,694.7
	 M609.3,722.7c-22,17.1-48.6,25.3-73.5,36.9c26-5.5,52.2-17.4,77.8-26.7C621,731.2,612.2,723.7,609.3,722.7z M492,694.7
	c2.6-0.4,5.4-0.7,7.8,0.8c14.6,23.7,6.9,52.6,6.2,77.6c-16.7,6-34.5-1.3-48.3-12.6C446.3,733.7,462.8,699.7,492,694.7 M479.8,710.4
	c0.5,2.9,9,1.8,4.5,4.9c-5.1,1.9,4.8,5.9-1.8,7.5c-12.4,3.7,2.8-0.7,4.9,4.7c-0.9,5.3-6.2,2.4-9.7,3.4c-2.8,4.4,8.1,2.2,3.5,7.4
	c-7.7,2.2-2.4,7.7,3.2,7.8c4,15-10.5,0.5-12.1,9.9c7.4,1.4,4.5,12.2,12.4,12.5c-5.9-9.8,6.9-17.9,15.2-13.3
	c4.7-18.3,0-38.4-8.9-54.7C487.2,703.6,476.7,703.5,479.8,710.4 M476,714.4C465.5,722.5,486.7,718.6,476,714.4 M497.4,759.6
	C488.1,763.2,501.3,767.6,497.4,759.6z M338.2,693.6c7.4,1.2-0.5,7.1,0.9,10.8c3.7,7.2-11.8,7.9-12,2.1
	C329.7,701.5,333.6,696.9,338.2,693.6z M327.1,693.5C335.3,694.2,322.8,699.1,327.1,693.5z M318.1,693.4
	C327.5,691.5,316.3,702.8,318.1,693.4z M626.3,685.8c1.7-0.3,6.8,0.6,5,2.9c-11.5,2.4-20.8,9.9-29.5,17.3
	c-20.3,10.3-40.5,20.9-59.3,33.8c-3.7,2-15.7,5.5-12.9-2.8c16.3-8.6,32.5-15.1,48-25.4C595.2,706.1,608,690.3,626.3,685.8
	L626.3,685.8z M519.3,683.5c6.8,1.9,15.8,25.9,1.9,20.7C520.5,697.6,510.5,687.8,519.3,683.5z M319.1,683.6c2.8,0.3,5.1,3.4,7.5,5
	C325.7,692.1,315.2,686.8,319.1,683.6z M307.1,688.1c-6.8-7.1,9.4-4.4,7.7,2.1C312.1,690.2,309.5,689.3,307.1,688.1z M405.2,678.6
	c6.3,0.3,0.8,8.5-3.4,5C397.5,681.3,402.4,678.8,405.2,678.6z M301.5,682c11.9-12.7,4.8,8.3-3.3,4.3c1.4,2.4,1.7,5,0.1,7.3
	c3.9-0.6,4.3-6.6,8.8-5.5c-2,3.2,0.2,11.3,4.4,6.6c9-6-0.7,14.3,8,3.8c19.3,2.7-12.1,29.9-12.4,11.3c7.5-0.3,6.4-3.6,5.3-9.6
	c-5.7,1-10.1,6-7.6,11.8c-5.7,0.5-7.4-6.3-13.4-1.8c-0.1-6.9,3.2-9.7,9.8-6.3c-0.7-9.9-10.2-1.8-15.2-0.6c-6,0.7,0.8,6.9-3,9.8
	c6.9-6.3,10.8,10.4,2.9,2.5c-9.1,10.6-2.9-7.8-9.5-9.8c-2.9,1.5-10.5,4.8-6.9-0.8c-5.5-0.5-11.9-7-6.7-11.9
	c-12.5,3.4-4.4,10.9-1.8,19.1c2.4-3,7.4-1.7,7.7,2.2c-2.8,8.1-16.4,7-16.4,17c7.4-3.2,14,2.8,12.4,10.5c4.4,6.2,3-3.7,6.6-5.4
	c7.3,1.1,17.4,5,10.4-4.8c9-3.2,19.9,14,28.4,3.3c6.7,2.5-2.8-9.9,3.8-6.4c7.6,4.2,8.2-6.1,10-11.3c-1.5-8.9,12.7-6.3,12.8-0.3
	c-1.8,5.2-13.8,0.4-6.6,5.5c7.8,5-11.7,5.2-5.6,9.3c10.1-7.5,8,4.7,3.8,10.5c1.1,2.5,4.8,5.6,0.3,6.8c-7.9,1.5-2-9.7-4.6-13.9
	c-4.2,4.6-2.1,12.8-0.5,17c6.3-3.7,7.5,2.2,3.2,6.2c3.2,10.7-7,0.4-11.6,4.8c-5.9-1.9,4.3-4.9,1.7-8.7c-6.4-4.1-5.3,6.8-10.3,4.4
	c-7.5-3.8-16.6-1.3-24.2-3.7c-0.8-5.6-9.2-8.9-10-1.8c-3,6.2-6.1-6.5-9.6-1.4c-3.6,3.9-4.9-2.9-7.4-3.8c-4.9,6.1-13.4,7.5-20.1,4.4
	c-9.4,2-16,2.1-24.2,4.7c-5.5,12.1-19.7-9.8-8.8-12.1c-0.3-11.5,10.9-21.9,6.3-33.4c10.9-7.7,10-28.7,23.2-29.4
	c8.7-5.7,23.2-3,33.8-0.7c6.4-5.1,14,0.5,18.6,5.3C285.7,678.7,296,679.2,301.5,682 M288.3,683C288.9,696,302.9,682.1,288.3,683
	 M244.5,685.7C235.4,698.3,256.5,686,244.5,685.7 M271.3,688.9c-3.2,2.8-9,7.1-2.2,9.3C277.9,703,282.5,685,271.3,688.9
	 M282.1,691.3c-1.4,3.5-2.6,7.2-5.7,9.5c-1.4,6.4,5.5-0.3,8.3-0.8C291.2,698.1,283.8,694.3,282.1,691.3 M230.2,695.5
	c-2,2.3-2,7.9,0.3,10C229.4,702.2,236,696.3,230.2,695.5 M241.3,697.6c-2.2,6.8-5.8,15.5-0.1,21.5c2.2,2.7-3.6,2.1-4.1,4.1
	c7.9,2.6,23.8-5.4,14.6-13.6c-3.6-5.8-5.4,5-11.1,0.3C234.5,706.3,253.6,698.1,241.3,697.6 M261.4,714.8
	C250.4,720.7,268.6,718.3,261.4,714.8 M249.2,732.5C242.6,738.5,259.5,736.7,249.2,732.5 M313.7,736.9c-2.1,0.8-4.1,2.7-3.5,5.1
	C312,746.3,317.2,735.2,313.7,736.9 M285.9,738.6c-5.5,10.4,6.1,11.1,12.9,8.4C298.8,739.9,290.9,740.1,285.9,738.6 M270.1,741
	C274.9,748.8,280,742.1,270.1,741z M282.1,675.6C292.7,676.3,277,688.1,282.1,675.6z M608.1,657.6c9-4.1,5.1,7.7,0.6,9.4
	c-5.6,4.3-15.2,5.9-17.6,13.2c9.5-0.8,15-14.2,24.8-10.8c6.7,2.3-8,7.7,0.5,6.7c15.9,1-3.9,12-9.4,14.2c-6.8-2.3,2.2-9,4-12.1
	c-27.6,12.2-47.7,36.3-76,46.9c-1.9,2.1-4.2,9.2-7.2,4.4c-4.9-6.7,3.9-12.4,9.7-13.8c17.7-5.2,27.9-21.6,44.4-28.5
	C588,675.2,595.8,664.5,608.1,657.6L608.1,657.6z M123.5,657.5c5-0.8,0.9,5.3,0.1,7.6c-3.6,8.8,7.9,10.6,13.8,11.6
	c4.9,0.6,1.2,13.3,7.2,8.3c4.3-5.4,10.8-0.4,16-0.1c8.7-5.2,21.9-2.7,33.3-4.2c10.7-0.9-0.2,24.9,1.9,11.7c-6.4-3.7,0.9,3.8-5.7,4
	c-11.5,0.8,10.3,11.7-3.4,9.1c-10.2,0.6,0.4,14.2-10.8,16.6c-11.1-1.9-1.6,4.9,0,0c5.6-0.2,13,8.6,5.4,10.9
	c-1.4-4.9-5.4-1.2-9.3-4.7c-3.7,6.4,8.6,9.7,8.1,12c-8.8,1,2.7,6.2-1.2,10.6c-6.5-3-14.4,8.7-20.1,1c-7.5-5.9-11.6,6.8-18,1.3
	c-6.4-3.4-11.4,4.3-17.4,3.5c1.9-8.8-12.5,3.1-10.8-5.8c6.6-0.7,10-8,8.8-14c-4.2-2.8-5-10.4,1.7-8.4c-3.6-4.9,1.3-16.9,5.6-7.9
	c7.7-0.3-12.2-8.7-1.7-11.4c5.1,3.5,11.2,9.6,17.9,3.9c6.9-4.4,4.3,7.8,10.8,6.3c-1.5-4.2-6.6-6.8-5.4-12.1c3.6-1.5,6.6,4.7,9.6,1.7
	c4.2-3.8-7.5-3.5-5.3-7.5c6.4-0.3,5.8-6.9,6.8-11.3c-5.1-1.5-0.5,6.4-5.4,6c-5.6,0-7.3,5.4-7.6,10.1c-7.1,0.4-15.4,6.9-20.1-1
	c-2.8-4.6,3-7.1,5.2-3.7c5.1,7,13.1-14.9,5.9-6.3c-2.8,7.4-10.8,1.5-8.6-4.8c0.4-7.2-10.8-4.2-12.4-10.3
	C116.7,672.8,116.5,662.6,123.5,657.5 M150.2,688.5C145.6,696.8,160,694.2,150.2,688.5 M171.3,696.6c-3.9-0.6-5.9,3.6-1.9,5.3
	C173.2,706.9,177.9,693.9,171.3,696.6 M168.3,710.6c-5.4-1.1-4.8,5.9-0.2,5.7C172.2,717.4,171.6,709.5,168.3,710.6 M134.4,719.6
	c-5.2,0.5,3.5,10.1,5.4,4.8C139.5,721.8,137.2,718.5,134.4,719.6 M163.8,724.6c-2.4,0.8-2.8,8.1,1.2,6.5
	C169.4,732.5,170.3,719.6,163.8,724.6 M127,731.5c3.7,8.6,12.4,0,19.1,1.8C142.1,727.2,131.5,728.1,127,731.5 M150.5,729
	c1.4,3.5-1.5,4.4-4.4,4.3C149.1,744.3,161.1,729.9,150.5,729 M164.3,736.6C150.8,740.6,172.9,741.6,164.3,736.6 M129.5,738.7
	c-4.9,0,0.3,5-0.9,7.8C132.5,751.6,138.6,733.7,129.5,738.7 M136.2,738.9c1.8,3.2,3.9,7.9,8.3,5.4
	C143.5,741.6,139,740.5,136.2,738.9L136.2,738.9z M273.2,643.3C282.1,641.9,271.9,652.4,273.2,643.3z M237.1,641.3
	C247.3,639.8,236.7,650.7,237.1,641.3z M453.3,637.4C460.5,644.1,442.7,644.1,453.3,637.4z M311.5,636.4
	C324.9,637.6,302.9,645.7,311.5,636.4z M287.3,635.6c4.4,0.8,11.6-0.2,5.2,5.1C288.6,647.8,279.4,637.7,287.3,635.6z M239.5,634.7
	C245.9,638.4,229.8,638.5,239.5,634.7z M326.7,632.6c12.8-0.3-7.2,15-7.5,6C323,638,323.7,633.9,326.7,632.6z M254.6,631
	c9-2.2,6.9,11.6,15.2,10.4c1.4,16.4,15,2.5,24,4.1c4.6,5.7-9.9,5.5-1.5,7.7c12,4.2,6.8-9.5,9.6-16c10.7-3.6-1.7,12.3,5.8,15.4
	c1.5-5.3,6.2-2.4,9.2-0.3c-5-8.2,6.5-7.6,11.6-9.7c-0.3,11.5,5.9-3.5,9.9-5.9c6-5,4.5,7.4,9.4,7.6c0-3.3-2.7-8.2,1.7-9.5
	c8.3-3.2,2.4,13.6,11.8,10.8c4.8,4.9-6.1,7.2-9.4,4c-4.1,7.4,6.4,0.9,6.1,7.7c-5,5-4.9,17.6-16.6,12.7c-7.3,1.2-8.6-8.3-15.2-8.4
	c-3.9,9.5-11.4-7.1-15.7,2.3c-11.2-3.9-23.6-3.9-35.7-7.3c-6.8-2.4-16.1,9.7-20.2,0.2c-6.4-0.6-10.8,9-17.6,3.6
	c-13.6-1,8-11.3-2.6-9.7c0.4-8.3,7.3,0.4,11.3-2.3C246.3,639.8,240.3,627.1,254.6,631 M333.3,650.6c-6,3.5,6.1,8.1,5.1,4.3
	C334.5,654.2,338.5,647.8,333.3,650.6z M244.5,625.6C252.7,627.5,234.2,630.9,244.5,625.6z M310.2,624.5c3.4,0.5,8,0.4,10.2,3.3
	C323.9,636.7,300.7,629.6,310.2,624.5z M253.5,622.5C267.3,624.5,242.3,629.6,253.5,622.5z M314.1,619.5
	C329.4,616.6,312.7,631,314.1,619.5z M327.8,618.6c8.9-3.1,3,5.3,3.8,9.3C325.1,632.1,321.2,621.2,327.8,618.6z M404.4,624.6
	c2.9-0.8,8.3-9.4,13.1-5.9c5.1,4.6,12.4-1.3,18.1,2.8c8.4,4.7,17.6-3.6,25.7,0.5c3.7,8.5-4.7,14-12.8,11.3c1.5,3.2-1.7,7.1-4.9,5.3
	c-5-3.8,4.8-6.9,1.4-11.4c-3.3,2.5-10.7,11.9-3.1,13.2c10.2-2.3,13.7,21,2.1,12.7c-0.1-8.5-9.5-8.9-15.9-7.8
	c-2.7,8.3,12.1,5.2,5.9,12c-0.1,6.3,5.5-6.2,10-4.2c2,4.4-6.8,6.2-2.6,9.8c6.1,4.1-1.6,11.9,9.3,9.1c9.5-1.1-7.6-7.2-1-11.1
	c4.7-2.6,12.5-1.7,14.6-7.6c10.3,0.9-0.6,13.7,0,20.7c-9.4-1.7-11.2,10.1-21.1,7.9c-12.7-1.4-35.2,9.4-36.5-8.7
	c-4.3,4.1-16.1-3.6-12.9,6.2c-3.8,8-9.5-6-13.7-7.9c7.1,0.3,5.2-5,3-8.9c6.6-1.6,4.6-9,5.3-14.2c5.8-3.2,10.6-8.9,17.9-8.2
	c0.2-3.3-4.9-6.5-8.7-5.4c-2-3.5,6.7-4.7,1.7-7.7C392.9,623.3,403.5,617.9,404.4,624.6 M416.9,626.6c-7.6,3.2-8.4,17.8-3.3,22.3
	c-5,5.8,7.6,21.1,13.1,9c-3.9-6.2-3.8-15.8-14.7-17.7c5.1-3.5,1-12.6,10.3-10C423.9,627.3,418.7,627.4,416.9,626.6 M427.8,630.7
	C418.1,637.6,445.4,632.5,427.8,630.7 M400.3,650.8c-2.1,2.3-7,3.5-4.3,7.3C401.3,658,409.3,652.6,400.3,650.8 M406.6,661.8
	c-4.1,6.1-17.5-4.5-14.4,4.4c-0.2,6.8,8.5-3.8,12.5,0.3C411.7,671.5,412.4,659.3,406.6,661.8 M424.8,665c-1.4,5.5-6.8,1.7-10.3,1.8
	c0.9,4.3-4.1,11.4,4.7,7.9c6-3.8,13.6-0.2,19.6-4.7C438.6,663.2,429.1,665.9,424.8,665L424.8,665z M253,616.9c-0.3-5,8.7-2,7,2.2
	C259,623.7,253.6,619.9,253,616.9C253,616.9,245.6,616.7,253,616.9z M474.4,616.8c4.8,1.7,9.6-6.2,13.4-1.6c-2,2.4-1.3,4.9,0.3,7.3
	c-1.4,2.6-12.4,7.4-8.7,2.3c4.4-6.7-7.2,0.6-10.4-3.3c-0.9,6.3,8.3,2,6.5,7.4c-2.5,5.9,9.6-3,5.1,5.7c-7.2,4.8-8.8,14.5-16.4,18.8
	c-2.8,3.2-10.1,3.7-11.1-0.7c3.9-3,9.1-4,12.2-8c-6.2,4.4-8.8-4.2-1.3-4.3c4.2,5.6,7-3.7,0,0c-4.2-5,7.2-4.3,5.5-8.7
	C457.9,630.7,465.6,614.2,474.4,616.8L474.4,616.8z M258.4,607.6C267.8,605.6,252.9,613.9,258.4,607.6z M348.5,606.5
	c9.9-0.5,15.5,7.5,25.3,2.9c0.1,4.7,8.7,4.4,5.4,8.8c-9.3,4.9-8.9,17.3-14.6,24.8c-4.7-0.3-11.2-7.8-8-12.9
	c-5.1,0.7-10.4,0-15.3,2.1c-9.6-5.8-3.7-17,5.6-15.7C341.4,614.4,345.5,609.1,348.5,606.5 M354.9,613.8c-1.6,2.8-3.4,5.6-6.9,3.5
	C348.4,625.4,367.2,612.5,354.9,613.8 M363.1,618.5C357.7,628.9,370.9,622.5,363.1,618.5 M344.4,621.5c-3.9,2.8,2.8,6.1,5.5,6.6
	C349.6,625,348.8,619.7,344.4,621.5z M558.6,603c7.2-0.2,14-7.9,21.2-3.4c5.9,13.3-8.9,19.6-13.2,29.3c7.8-3.9,15.6-7.3,24.3-8.5
	c-5,6.7-0.5,11.8-4.8,19.8c4.6-0.9,12.1-1.8,11.9,4.9c-7.2,6-12.2,23.7-23.9,16.7c-10.5,13.3-28.2,19-35.2,34.4
	c23.7-11.3,41.4-32.1,64.6-44.3c3-6,10.2,2.8,3.5,4.4c-13.6,7.5-25.2,17.7-37.7,26.6c-9.3,11.4-28.6,13.7-31,30
	c-3.5,0.2-14.9,2.8-13-4c3.4-3.2,7.3-5.7,10.7-8.8c-11.2,0.1-3.3-11.7,0.2-15.6c11.6-12.1,30.4-24.5,32.5-41.3
	c-6.4,1.2-8.9,10.9-16,9.7c1.2-6.5,9.9-11,14.2-16.9c3.9-3.9-5.5-3.7-6.3-0.2c-9.6,17-24.7,29.6-38.5,43c-9.9,2.7-3.7-11.2,1.5-12.1
	c15-12.3,29-28.5,34.8-46.9c-16.2,21.9-38,43.6-62.5,54.2c-8.2,1.1-18.2,9-25.6,2.9c1.5-19.3,11.7-36.5,18-54.4
	c1.9-4.8,3.5-13.3,10.3-12c-2.5,21.3-17.2,38.9-19.3,60.5c18.6-1.1,32.3-15.6,46.6-25.9C541.8,635.5,545,614.6,558.6,603
	 M568.2,602.5c-5.9,1.4-4.1,8.1,0,10.6C573,612,575.2,602.4,568.2,602.5z M295.6,598.5c7.5-1.8,4,10.5-2.3,7.6
	C283.7,609,292.7,602,295.6,598.5z M275.5,598.6c11.1-2.7,9.6,19.3,23.4,11.4c-0.1-9.6,7.5-7.6,13-4.8c-0.6-8.5,13.2-6.5,8,0.6
	c-8.5,5.8,4.2,0.5,7.5,5.3c8.4-2-9.5-4.1-4.1-8.8c5.9-4.6,8.8,6.7,14.7,2.9c4.4-3.2,10.1,2.3,4.2,5c-6.8,12-20.5,0.9-30.6,4.3
	c0.5,3.2-0.6,8.2-5,6.6c-5.3-4,7.4-6.8,0.9-9.5c-8.6-6.2-17.6,16.5-4.9,10.2c3.3,7.9-15.2,8.8-13.2-1.5c3-7.6-12.3-3.3-5.9,1.5
	c8.3,3.4-1.7,12.2-7.2,11.4c-4.4,0.2,1.1-8.3-3.7-5.3c-3,4.7,7.8,8.4,1.3,12.2c-7.4-1.1-19-15.7-6.3-17.5c10.5-0.6-10.9-4.5-2.3-9.1
	c6.9-3.6-2.7-7.4-3.8-10.3c9.7-4.2,12.3,3.1,17.6,8.2C282.4,608.3,271,601.7,275.5,598.6L275.5,598.6z M484.3,587.6
	c3.6,0.5,0.6,6.3-1.5,7.7C479.4,594.2,480.6,587.8,484.3,587.6z M483,582.2C490.5,582.3,482,590.6,483,582.2z M481.1,577.5
	C489.3,578.2,476.8,583.1,481.1,577.5z M162.4,575.2c4.6,2.5,1.7,15,10.5,14.6c9.5-3.5,14.2,6.3,23,4.1c14.7-3,32.1,0.6,45.1,1.4
	c-13,14.8-23.8,32.5-32,50.8c-4.9,2.6-10.4,20.8-16.6,11c-16.8-3.8-35.7,7.7-52.1,3.1c10.4-13.7,24.6-25.7,27.8-43.9
	c-7.5,4.4-6-18.4,2-11.2C165.3,596.8,152.1,585.8,162.4,575.2 M208.4,597.5C192.8,603.5,222,599.1,208.4,597.5 M184.4,599.6
	C178.9,605.9,193.8,597.6,184.4,599.6 M171.4,629.6C165.8,637.1,176.2,630.6,171.4,629.6 M191.6,649.7c-2.5,0.6-5,1.2-7.4,2
	C184.7,654.4,194.2,651.4,191.6,649.7 M161.5,650.6c-2.8-0.1-8.4,6.9-3.1,5.3C162.4,658.9,166.8,648.6,161.5,650.6z M489.3,572.2
	C490,584.1,477.5,570.5,489.3,572.2z M476,570.2c10.1-3.2-2,11.4-5.4,5.4C468.4,572.4,473.8,570.9,476,570.2z M489.3,572.2
	c-2.9-0.5-8.3-6.6-2.6-5.7C490.9,565.2,494.8,572.6,489.3,572.2z M478.2,563.5C488.9,564.5,473,572.5,478.2,563.5z M456.4,557.7
	c4.5,0.3,9,0.7,13.5,1.1C471,565.1,450.8,564.3,456.4,557.7z M373.7,554.7c3.6-2,6.8,2.9,4.8,6C373.5,563.7,366.5,556.9,373.7,554.7
	z M494.3,552.6c3,1.2,0.4,13.5-6.2,8.7C486.9,558.5,488.3,550.2,494.3,552.6z M459.2,552.5C470.9,552.5,455.1,560.5,459.2,552.5z
	 M387.4,552.6C397.3,552,381.7,561.9,387.4,552.6z M465.4,542.5c6-0.7,7.1,15.2,1.3,12.9C469,551,462,546.2,465.4,542.5z
	 M429.4,541.6c5.5-2.4,3.8,5.3-0.8,4.6C424.3,547.5,425.6,540.7,429.4,541.6z M350.9,539.2c5.1-1.2,7.8,1.3,7.6,6.4
	c4.8,3.3,6.4-8.6,11.3-4.4c6.9,6.2,17.1-4.9,19.9,6.3c-1.4,3-7.8,5.8-11,5c-5.4-11.8-14.1,6.2-22.3,1.6
	C358.7,547.1,341.4,545.2,350.9,539.2L350.9,539.2z M472.6,533c16.2,0.7-6.9,14.7-10.5,3.2C463.9,533.5,469.2,534,472.6,533z
	 M452,531.7c4.3,2.1,12.6,6.9,4.9,10.5c6.4,4.9,0.3,13.8-6,8.1c5.9-5.5,0.6-10.1-6.4-8.1c3.4,6.8-9.4,5.4-5.1,11.3
	c0.3,3.3-4.5,4-7,4.9c-0.3,4.1,7.6-1.8,6.7,3.5c4.5,4.3,1.5-13.1,9.1-7.7c15.6,1-8.4,7.8-0.9,15.5c4.1,0.8,6.5,13.9,6.1,3
	c-3-5.6,6.4-8,6.6-1.7c2.9-2.7,8.7-1.6,7.8-6.8c9.8-2.9,1.9,6.8-1.9,7.5c-6.5-1.4-13.2,12.5-3.4,12c0.3-5.2,6.7-8.1,6.8-1.2
	c5.3-3.5,16.6,8.7,5.4,8.1c-3.2,0.7,1.5,4.2,1.1,6.4c-7,11.1-21.8,5.5-32.4,9.9c-1-6.4,11.3-1.6,12.5-6.5c-9.3-0.7-20-0.4-29.3-1.5
	c-11.8,7.8-25.8-9.6-14-17.9c-8.9-5.5,7.1-2.3,5.2-10.5c-9.1-8.7,13.5-10.3,7.5-20.2c10.9-0.6,9-15.9,20.9-13.7
	C449.7,536.8,447.4,531,452,531.7 M440,583.3c0.5,6,8.1,9.9,13.1,5.9C449.7,585.8,444.3,585.3,440,583.3 M431.2,591.5
	C427.6,595.8,439,592.9,431.2,591.5z M350.9,539.2c-9.6,0.3-1.1-11.5,4.8-8.6C357,534.4,352.9,536.6,350.9,539.2z M357.2,528.4
	c3.5,0.2,10.5,0.7,9.6,5.6C363.1,539.3,356.2,533.5,357.2,528.4z M322.5,527.6c3.2,0,6.6-0.3,9.8,0.3c3.6,2.7-3.1,8.6,3.5,8.4
	c-2.5-6.4,7.2-1.3,4.5-8.1c9.8-6.7,3.2,13.7-2.6,7.3c8.8,6.5,0.9,11.7-0.6,19.3c2.6-4,11.8-12.2,15.9-3.6c-0.1,6.5,7.8,10,13.9,8.1
	c0.6,4.4-6.3,1.5-5.9,5.8c6.3,2.5,12.4-4,19-2.4c-1.6-5.8,10.7-6.3,5.6-0.8c-6.6,3,5.8,5.3,4-0.4c-2-4.9,3.5-3.3,6.3-5
	c-4.8-2.7-1-7.6-1.2-11.7c-4.9-1.3-4.6-7.6-9.4-9c-5.1-0.7-13,4.3-16.3-1.7c-0.2-6,7.2-2.5,10.6-2.1c8.4-9.4,18.1,9.3,27.2-0.2
	c9.6-2.5-1.1,5.3,1.8,8.8c7.6,5.8-14.6,7.1-4.5,12.8c7,6.9-8.8,4.9-7.3,11.5c6.5-0.5-1,7.1-3.4,9c1.5,4.7-2.6,9.1-7.3,6.8
	c3.4,8.8-8.1,13.6-14.1,8c-18.3-3.2-36.1-6.2-55-6.1c-10.2-8.5-21.6,5.5-29.1-6.1c6.2-3.2,4.5-14.6,13.7-11.2
	c-4.3-10.2,5.5-20.5,13.3-27.8c3.2,4.3,7.1,9.3,13.2,5C329,535.6,313.4,533.7,322.5,527.6 M397.2,537.4
	C393.4,543.1,404.3,538.6,397.2,537.4 M314.1,545.4c-2.3,3.9-13.1,11.8-5.8,13.1C308.2,552.1,322.9,548.7,314.1,545.4 M376.2,567.7
	c-7,0.2-9.7,7-1,9.1C373.7,570.3,387.8,569.1,376.2,567.7 M386.3,568.3C378.7,575.2,394.9,570.7,386.3,568.3 M328.8,571.8
	c-2.9,3,5.9,4,7.2,0.7C333.7,571.8,331.2,571.5,328.8,571.8z M508.8,525.6c9.7-1.1-0.4,4-3.2,5.3c-2.8,6.9-2.2,17.2-11.3,19.2
	c-3.5-6.8-8.5,5.5-11.8-2.3c-8.6-3.9,5.3,6.6-2.4,8.7c11.7,3.7-13.7,9.7-2.1-0.3c-14-7.6,5.1-15.9,4.4-25.5
	C490.6,525.8,500.8,530.4,508.8,525.6 M497.3,531.5C492.3,536.6,503.5,532.5,497.3,531.5 M488.3,533.4c-1.1,3-4.2,5.4-4.1,8.8
	c4-0.3,7.9-4.5,11-0.1C493.5,539.1,492,533.6,488.3,533.4z M226.3,506.3c6.3,0.6,2.6,12.3,10.2,12.5c17.7,9.9,38.9,0.7,56.3,9.7
	c-4.4,15.7-20.5,25.1-28.8,38.8c-2.3,4.8-12.1,2-10.7,8.7c-20.6,0.5-41.6-2.2-61.8,1.9c2.7-11.4,24.4-10.9,27.9-23.9
	c6-8.1,16.9-12.7,18.4-23.6C225.6,531,217.6,514.8,226.3,506.3 M270.5,536.7c-2.5,0.6-4.7,2.4-5.4,4.9
	C265.7,543.7,274.9,536.3,270.5,536.7z M528.3,500.5C536.4,500,523.2,506.6,528.3,500.5z M506.6,499.6
	C519.5,499.8,500.6,508.3,506.6,499.6z M538,490.5c9.7,7.6,6.9,22.3,0.5,31.1c-8.5-1.1-15,5.9-16.2,13.9
	c-4.4,18.7-14.4,36.1-14.9,55.5c15.1,0.6,9.6,25.8-4.1,22c-1.7-5,9.5-10.5,2.1-14.5c-10.1,4.2-6.8-4.6-0.5-6.4
	c-5.5-3.6-4.1-11.1-1.8-16.7c6.1-15,9.1-31.1,14.9-46.2c2.9-9.8,15.4-11.1,19.6-19.9C539.5,503.1,534.3,496.6,538,490.5L538,490.5z
	 M434.3,483.5C441.1,489.4,424.7,488.1,434.3,483.5z M494.5,472.6c4.8,4.5,9.9,0.5,17.2,0.9c0.6,4.2-2.3,6.1-5.5,7.7
	c4.4,3,1.8,11.5-4.1,9.8c-6,0.9-1.5-4.9,2.4-3.1C505.4,483,484,478.6,494.5,472.6z M487.3,469.5C496.2,472.1,479.6,475,487.3,469.5z
	 M440.1,469.2C448.8,472.1,433.1,476,440.1,469.2z M508.3,462.8c3.6,2.9-2.3,9.9-9.1,7.9C497.9,465.4,505.4,465.2,508.3,462.8z
	 M514.2,461.6C522.1,461.8,508.9,468.4,514.2,461.6z M55.2,454.5C65.6,454.5,50.2,462.5,55.2,454.5z M46.4,454.5
	C53.6,453.9,41.8,460.1,46.4,454.5z M512.7,449.8c5.7-1.1,1.5,4.7-2.1,3c2.2,7.5-6.8,8.6-12.3,8.1c-2.6-7.4,9.5-0.5,7.3-8.9
	C507.3,449.8,510.4,450.9,512.7,449.8L512.7,449.8z M55.4,442.4c6.3,0.4,4.1,13.2-3.6,9.7C53.5,449.1,54.6,444.7,55.4,442.4z
	 M518.4,440.5C529.9,440.3,514.2,448.4,518.4,440.5z M65.2,439.1C71.5,443.5,58.4,444.9,65.2,439.1z M456.1,438.4
	C465.7,436.4,456.2,446,456.1,438.4z M451.2,438.6c9.3-0.6,4.8,16.3-3.2,11.7c-4.6-3.9-9.7,4.2-3.8,6c5.7,2.8,2.2,14.8-1.8,6.7
	c-5.7-6,1.4,8-5.7,5.8c-5.3-4-5.8,6.7-0.1,6c-0.5,3.9-9.6,7.5-6.4,13.6c7,5.9-10.3,5.1-6.9,11c4.2,8.3-7.5,7-5.6,13.5
	c-14,3.8-29-0.4-43.2-0.3c-6.4-0.1-1.4-9.5-8.3-4.6c4.8,2.5,1.8,6.2-2.6,5.1c-8.7-8.3-24.5,2.1-32.5-4.7c6.2-1.4,8.4-8.4,10.5-12.7
	c-9.1-9.1,14.4-3.4,4.8-11.5c2.9-4.4,9.8-6.3,13.2-10.4c3.2-9.9,13-21.1,24-17.9c6.6-5.3,14.3-2.4,21.8-2.1c4.4-6.4,14.5-3.4,21.6-9
	C437.5,453.2,440.7,437.1,451.2,438.6 M424.7,451.9c-2.2,1.1-5.1,2.5-4.6,5.4C423.7,458.9,428.8,451.8,424.7,451.9 M414.1,457.9
	c-2.9,1.6-5.7,3.8-9.1,1.9c-2.3,4.9,2.6,9.3,3.8,13.1c5.5-1.9,5.8-5.5-0.5-6.2c-2-6.3,5.8-5.5,9.2-3.2
	C416.7,461.8,416,458,414.1,457.9 M394.3,460.5c-3.9,4.2,9.7,7.5,4.1,13.9c-3.8-0.5-7.2,8.9-2.1,6.2c0.4-6.2,8-1.2,9.8-6.4
	C402.8,469.1,398.3,463.3,394.3,460.5 M373.9,467.3c-2.2,3.7,1.8,8.1,5.9,7.1C379.2,471.3,375.8,469.7,373.9,467.3 M414.9,477.3
	C421.3,472.2,416.2,465.5,414.9,477.3 M387.6,473.8c-3.1,2.6-17.2,6.8-8,9.4C381.6,480.2,393.7,473.5,387.6,473.8 M425.3,476.5
	c-2,2.1-6.2,4.2-5,7.6C424.6,485.5,433.9,475.4,425.3,476.5 M401.6,479.9c-2.2,5.3,17.7,3.9,13.3-2.5
	C410.6,479.1,406.2,480,401.6,479.9 M418.1,485.7c-9.9,2.7-8,11.2-0.6,14.8C416.7,494.8,425.5,489.6,418.1,485.7 M397.3,486.5
	c-4.4,2.7,2.7,7.2,4.8,5C404.5,488.5,400.2,485.3,397.3,486.5 M399.4,502.5c-1.2,3.8-4.5,4.9-8.5,4.7c5.6,1.3,11.5,0.6,17.2,0.8
	C409.1,503,402.9,502.8,399.4,502.5z M526.1,434.9c-7.2-1.6,1.8-7.3,0.9-1.4C526.7,433.8,526.3,434.5,526.1,434.9z M72.3,429.5
	C82.1,430.4,67.1,438.2,72.3,429.5z M81.5,422.5c6.3-2.7,3.7,11.8-1.4,8C78.9,428,77.1,423.2,81.5,422.5z M448,402.2
	C444.4,410.6,458,402.8,448,402.2z M97.3,402.5C109.8,402.7,92.4,412.1,97.3,402.5z M108.1,389.3c4.5,0.9,2.4,6.4,2.3,9.7
	C104.8,401.2,105.2,391.8,108.1,389.3z M461.4,382.5C471.2,381.2,455.9,388.7,461.4,382.5z M463.2,373.5
	C473.6,373.5,458.2,381.5,463.2,373.5z M127.4,367.5c2.9-1.2,5.5,1.5,6.7,3.8C132.5,378,120,371.1,127.4,367.5z M144.4,361.5
	c4.7-1.3,4,5.1,3.1,8.2C141.9,372.4,136.7,362.5,144.4,361.5z M161.3,360.6C167.8,366.2,152.3,364.5,161.3,360.6z M310.4,358.5
	c6.7-5.3,5,10,0,10.5c-3.2-3.3-12.6,3.5-9.8-3.9C301.9,357.4,311,367.5,310.4,358.5L310.4,358.5z M296.2,356.6
	c3.1-0.3,5.1,3.4,2.4,5.5C294.5,364,290.6,357,296.2,356.6z M310.4,358.5C298.9,362.3,305.7,347.5,310.4,358.5z M529.4,353.5
	c8,2.7-4.5,8.3-8.4,7.9C523,358.3,526.5,355.9,529.4,353.5z M522.2,352.5C532.2,352.2,517.3,360.6,522.2,352.5z M135.4,350.4
	c4-1.1,4,3.3,3.2,6.3C134.5,359.6,130.5,351.8,135.4,350.4z M163.1,349.5c5.2-1.1,10.4,7.2,2.7,7.5
	C157.6,361,152.8,348.2,163.1,349.5z M530.4,342.7C537,345.6,522.7,346.9,530.4,342.7z M421.4,341.6
	C427.3,344.2,414.1,346.2,421.4,341.6z M152.3,340.6c1.4,0,7.6-0.8,6.7,2.7C159.7,349.8,146.6,344,152.3,340.6z M164.1,337.6
	C169.9,339.9,160,342.7,164.1,337.6z M178.3,336.5c4.9-1,4.8,9.4-0.6,6.2C173.4,342,176.7,338.5,178.3,336.5z M152.3,330.2
	C161.3,333.6,144.1,338.2,152.3,330.2z M527.3,327.5C537.8,328.6,522.3,336.1,527.3,327.5z M163.3,326.5c5.3-1.6,6.8,11.5,0.5,8
	C159.4,333.1,159.7,328.9,163.3,326.5z M172.4,324.5C183.1,326.4,164.5,332.4,172.4,324.5z M165.3,316.5
	C174.1,319.4,157.2,323.3,165.3,316.5z M317.7,302.5c5.8-0.3,14,0.5,18.1,3.7C332.1,307.5,318.8,305.9,317.7,302.5z M290,302.2
	c4.5,1.5,3.5,7.6,6,11c9.6,12,26.4,13.1,40,13.4c-2.6,9.1-17.7,4.1-24.1,1.7C300.4,327.4,283.8,314.9,290,302.2z M463.3,293.5
	c6.3-1.9,3,10.9-2.1,8.9C461.6,299.3,462.2,296.3,463.3,293.5z M516.5,272.4c7.3-0.9,1,11.5-3.9,8.3
	C511.1,277.5,514.2,274.4,516.5,272.4z M299.4,268.5c7.3,3.4-6.9,13.2-4.7,20.1c1.5,6-7.9,3.9-6.6-1.2
	C291.8,281.1,295.5,274.7,299.4,268.5z M291.3,266.5c2.2,5.8-6.5,28.2-13.9,24.4C281.8,283.5,285.3,273.1,291.3,266.5z M504.1,263.4
	C515.2,262.1,502.8,274.5,504.1,263.4z M502.9,254.2c-6.8,1.4-2.7-8.4,2-6.9C504.7,249.7,503.9,252,502.9,254.2z M466.8,247.8
	c2.2-0.6,10.8-1.8,8.9,3c-5.9,1.9-11.8,4.4-18.1,4.2C450.9,251.2,463.6,249.1,466.8,247.8z M508.3,237.6c6.2,0.1-2,7.4,3.6,9
	C507.7,254.2,504.4,240.6,508.3,237.6z M345.5,225.5c6.8-2.4,0.9,15.5-4.5,9.1c-4.6,11.4-9.8-7.7-1.4-8.3
	C342.6,229.3,343.3,228.9,345.5,225.5z M321.5,223.3c9,2.6-9,32-6.6,12.8c-5.5,1.1-4.8,19.4-12.7,19c-0.8-10.9,9.1-18.5,9.3-29.1
	C317.2,224.2,317.1,234.6,321.5,223.3z M331.5,222.5c4,1.2-4,12.7-2.4,18.8C318.4,248,324.8,225,331.5,222.5L331.5,222.5z
	 M485.7,221.7c3.1-0.5,18.2-2.9,13.1,4.4c-6.7,1.2-14,0.9-20.6,3.6c5,1.3,13.6-2.2,15.8,4.6c-3.5,1.2-13.3-0.9-7.8,5.1
	c-6.8,3-17,1.8-25,4.8c-7.7-6.3,9.4-4,5.1-10.9C470.8,229,476.6,221.9,485.7,221.7L485.7,221.7z M306.1,218.4
	c6.2,4.2-4.1,16.7-5.3,23.8c2.3,6.4-5.6,11.6-6.3,3.6c-4,1.3-0.4,17.5-8.3,15c2.4-12.5,0.2-27.3,7.2-38.5c4.5,2.3,2.8,13.8,1.5,19.7
	C301.6,236.3,298.7,223.9,306.1,218.4L306.1,218.4z M499.4,210.8c16.4,0.2,0.1,8.5-6.9,8c-4.5,0.8-14.5,5.6-15.4-1.2
	C484.2,214.3,492.1,213.5,499.4,210.8L499.4,210.8z M512,188.7c8.8,1.6,0.2,14-7.4,13.2c9.1,6.8-23.8,12.7-27.6,6.4
	c6-4.3,17.4-1.3,24.4-6.1c-5.5-0.5-28.4,5.9-20.1-4.8C491,193.5,501.7,190.9,512,188.7L512,188.7z M241.6,180.8
	c16.6-3,20.8,20.2,18,32c-1.4,30.4-19.7,55.6-36.9,79.2c-9.3,5.8-19.9,15.8-31.8,13.5c-5.3-3.2,2.5-4.7,5.4-5.8
	c-16.9-1.2-39.4-7.5-38.1-28.9c5.3-9.2,7.7,3.5,12.6,4.5c2.3-5.9-10.7-22.7-2.1-27.1c7.3,14.2,22.3,35.9,41.1,27.4
	c-10.7-7-28.4-8-31.1-23.9c-6.5-2.1-5.3-15.3,2-10.2c3.5,14.2,17.6,26.2,32.8,23.7c11.9-5.3,18.9-16.8,27.4-25.8
	c7.8,5.8-9.3,14.6-1.8,19c10.9-14.4,15.8-32.3,5.3-47.9c2.3,10.2-9.2,18.4-5.6,27.5c-6.3,5.8-15.6,5.7-22.9,9.7
	c-7.5,2.4-13.7-8.3-5.9-11.2c13.1,6.8,24.9-4.8,27.8-16.9c-5.6,1.4-7.3,9.2-12.8,11.5c-7,2.4-8.6-5.9-12.1-9.8
	c-2.6,3.2-3.3,9.2-8.1,10.1c2.1-11.9,10.6-20.4,16.6-30.2c-7.9,0.8-10,10.4-15.8,14c0.7-3.1,2.1-5.9,3.2-8.9
	c-3.2,0.9-9.3,11.7-8.5,3.8C210.5,196.5,224,182.8,241.6,180.8 M241.4,186.5c-3.8,2.1,2.6,4.2,4.3,4.9c6.1,1.8,5.1,10.3,8.5,13.5
	C254.2,197.4,250.9,185.6,241.4,186.5 M237.8,197C240.6,204.1,245.1,198.2,237.8,197C234.9,192.2,228.6,199.4,237.8,197
	 M178.2,278.5c3.5,13.9,22.5,11.9,30.6,3.5C198,286.8,188.4,280.6,178.2,278.5 M204.5,296.6C194.8,301.8,211.5,296.5,204.5,296.6z
	 M309.6,176.6c5.1,5.8,7.8,28.5-4.6,30.6c-4.6-6.2-5,11.1-13.6,7.9c-5-7,2.2-16.3,0-24.5c-1.3-7,7.5-1.2,8.9-7.3
	c5.4,2,2.1,12.7,1.6,18.2C307.7,195.6,300.1,181.5,309.6,176.6L309.6,176.6z M337.3,166.6c8.1,4.5-2.2,18-9.6,13.1
	c1.2,3.7-1.4,18.1-5.2,9.8c-1.3-15-1.7,1.7-0.6,7.8c-16,4.1-0.8-37.5,0.1-17.2C321.3,167.8,332.1,174.6,337.3,166.6L337.3,166.6z
	 M236.3,165.8c3.2-1,1,3.6-1.1,3.6c-24,8.2-32,35.6-53.1,47.8c-4.7,2.6-5.1,11.2-10.8,11.6c-0.2-4.4,4.6-7.6,3.2-12.2
	c12.4-10.3,17.9-27.2,31.5-36.4C216.2,175.4,224.5,167,236.3,165.8L236.3,165.8z M345.3,160.3c5.5-1.5,5.5,10.1,0.9,10
	C343.7,167.9,341.2,162.5,345.3,160.3z M304.5,159.7c2.8,4.8-10.6,10.8-13.8,16.5C286,168,301.6,166.4,304.5,159.7z M529.1,148.5
	c12.9,1.9-14.5,8.8-3.4,12.1c-4.1,5.3-8,14.7-16.6,14.6c5.3-5.9-2-10,9-13C506,157.9,524.6,151.6,529.1,148.5z M346.5,106.5
	c9.1,1.8-2.1,11.7-3.3,16.5c6.5,3.2-4.2,10.4,4.4,7.9c-2.7,7.2-9.9,15.7-16.5,20.3c-4-6.4-11.4,5.6-16.1,0.1
	C327.9,138.2,334.4,120,346.5,106.5L346.5,106.5z M326.3,86.7c3.6,5.2-5.3,17.1-7.2,24.7c6.9-3.3,6.9-15.6,13.6-16.7
	c-1.5,8.2-7.8,24-17,21.5c-0.6,3.7-8.5,9.8-7,2.9C315.9,109.1,317.2,94.8,326.3,86.7L326.3,86.7z M405.7,82.8
	c7.4-1.8,8.2,9.2,3.4,13.6c1.1,7.3,9.8-3.5,10.4,1.3c-6.3,6.4-13.1,12.7-21.2,16.5c-3.6-7.6-11.5,10-13.1-0.5
	c-4.5-3.5,2.6-6.4-0.3-10.1c-7.3,2.1-15.8,8.5-23.4,3.5c-1.4-7.6,10.7-22,16.3-14.1c4.4-3.6,16.2-10.2,10.5,1.2
	C394.9,92.3,399.8,86.4,405.7,82.8 M405.5,87.6c-3.6,3.4-6.4,7.7-10.3,11C396.9,99.7,413.7,89.2,405.5,87.6 M380.8,94.9
	c-2.9,2.1-5.9,4.5-7.6,7.6C374.4,104.4,386.2,92.8,380.8,94.9z M349.9,0.3h3.7c-6.5,5.2-4.2,14-9.9,19.7
	c-7.8,14.3-20.1,34.5-6.5,48.9c16.5,16.9,40.9,6,60.1,0.9c27.9-16.7,54.7-36.5,75.9-61.3c6.5-3.9-1.8,5.8,3.2,8.7
	c-16.1,17.3-32.1,35.5-42.6,57c-4.4,6.4-3.2,15.3,0,22c23.5,11.9,44.5-7.8,67-12c2.4-0.3,7.1-2,6.8,1.9
	c-9.2,12.6-33.2,10.7-36.5,28.5c-5,8,1.9,18.7,11.1,17.1c23.8-14,45.9-30.8,68.8-46.2c4-3.2,13.6-7.4,15.5,0.1
	c-7.7,32.4-19.2,64.1-34.8,93.6c-4.3,14.6-10.6,28.5-18.1,41.7c1,9.3,9.2,16,14.2,23.5c3.7,7.8,4.3,16.9,8.3,24.6
	c5.1-2.4,13.3-4.4,13.6,3.8c2.1,31.7-16.1,62.8-8.4,94.9c19,1.4,13.1,30.2,2.1,38.6c-6.8,25.5-15.9,52.8-9.2,79.5
	c1.7,4.4-2.5,9.9-7,6.6c-9.1-18-5.3-38.5-1.2-57.4c0.2-0.4,0.7-1.1,0.9-1.4c3.7-5.4,5.1-12,7-18.2c-13,8.4-26.9,19.9-39.7,23
	c1.6,2.4,1.2,7.8,5,7.3c3.8-8.9,14.6-12.1,21.8-17.3c3.7,5.9-18.7,12-8.2,15c-1,8.7-18.5,0.3-17.1,12.8c-3.5-3.8-11.8-3.3-12.9-9.8
	c2.9-1.1,10.7-1.1,7.2-5.9c-3.6-5.8-6.1,2.8-7.2,5.9c-2,5.3-6.5,9.8-6.9,15.6c8.2,1.4,4.7-9.3,13.3-6.5c0.3,3.9,3.6,8.4,1.6,11.8
	c-3.8-0.9-7.8-3.6-11.5-1c6.6,3.6-0.7,13.1,3.7,17.7c4.2-3.7,13.7-1.8,5.8,2.6c0.9,13.6,14.1,4.3,22.6,8.7c-1,4.2-6.5,2.3-9.4,3.2
	c-0.9,5.8-2,12.8-9.3,10.6c-1.3,5.9-9.5,5.5-11.4,0.1c3.6,8.8-8.3,9.1-8.6,0.4c-8.2-1.5,3,11.5-5.4,9.4c-5.5-2.6-5.6,4.6-9.9,5.2
	c-2.6-9-14.1,1-18.1-6c8-32.6,37.6-55.6,42.2-89.6c2.4-7.5-1.2-16.1-8.4-19.2c-25.4,14-52.8,26.5-82.4,27.6
	c-4.4-0.8-7.1-6.3-7.1-10.4c6.9-13.5,17.7-25.7,19.3-41.5c1.8-7.9,10.1-19.7-0.1-24.1c18.6-6.3,39.9-10.7,55.8-24.4
	c6.1,3.9,11.7-7.1,19.5-7.3c4.9,15.1,2.9,31.3,0.8,46.7c2.4,9.8-1.8,18.9-5.9,27.5c4.5,0,8.6,1.9,12.3,4.4
	c8.5-19.7,3.8-42.1,9.4-62.6c-5-7.3-2.3-25-11-27.7c7.2-13.3-3.4-30.5-12.5-41.3c-5.4,5.7-11.6,10.4-17.8,15.1
	c9.6,4.8,9,24.8-3.9,22.8c-4-0.3-14.4-3.1-10.1,3.8c6.2-2.8,14.4,1.5,19.5-3.1c0.9-5.6,7.5-17.5,7.3-3.9
	c-6.9,16.4-25,26.4-41.4,30.6c6.7-6.5-16.5-6-8.4-0.4c4.9,3.6-4.9,7-8.2,4.7c-10.3,2.8-20.2,12.4-31.5,9.7c0.3,7.9-11.4,1.5-9.1,8.3
	c10.6,2.9,21.8,2.4,32.5,0.1c0.5,5.5-9.4,5.2-6.7,11.8c-2.5,22.4-12.4,43.3-26.2,60.8c-15.1,2.1-31.5,3.9-45.3-4
	c-10.1-0.6-7.1,17.6,1.9,17.9c8.9,2.1,19.4-4.2,26.5,3.3c-0.1,11.3-7.2,23.7-19.3,25.2c3.7,5.6-4.4,16.7-7.7,8
	c-6.7,0.5-2.6,6.6,1.2,8.3c-3.9,3.8-12.6,2.1-13.1,9.5c-2.5,12.5-19.2-9.3-18.2,6.2c-7.9-7.3-19.6,2.6-26.9-4.9
	c3.5-9.7,18.5-5.4,22.1-16c-7.6,6.5-25.9,4.1-23.9,17.3c-1,5.7-7.5,3-10.7,0.7c2.2,6.8-5.5,8.6-9,3.5c1.7-2.8-0.3-12.3,5.1-9.3
	c24.8-9.5,50.3-22.8,64.4-47c-13.6-8.6-3.6-24.4,8.7-27.5c16.6-2.6,24.2-18.9,32.2-31.6c10.1-14.4-0.2-36.6,13.7-48.8
	c-6.4-4.7-16.4,2.4-16.5,9.8c-20.7,19.4-51.6,26-79.5,22.7c-19.1-8.5-39.2-21.2-60.2-15.3c-14.7,1.8-28.4,10.8-37.9,21.9
	c-17.7,5.7-28.3,23.1-38.5,37.7c-17.1,8.1-23,27.7-35.1,40.9c-7.9,11.8-19.9,20.8-22.6,35.4c-13.9,8.1-33.4,25.7-48.9,11.3
	c-5.1-3.2-13.1-3.2-15.8-9.4c-3.5-5.9,6.5-15.1,10.6-8.3c3.6,5.6,11.5,3.4,16.2,0.6c-4.6-1.8-9.8-2.7-13.5-6.3
	c-5.7-5.6-16.5-2.4-20.1-10.5c-2.3,0.2-5.1,2.4-6.8,0V464c0.1-6.5,6.2-7.6,11-9.7c11.4-13,28.4-19.2,40.2-31.8
	C65.8,410,73.8,392,87.2,378.4c23.1-23.2,29.9-56.2,46.4-83.6c7.5-23.6,3.8-49.8,15.1-72.6c-11-19-8-42.7-7.5-62.9
	c11.5,2.8,5.6,23.5,19.2,26.8c31.5,7.1,49.6-31.4,52.1-56.6c-4.5,8.7-4.6,21.1-14.3,26c13.2-26.6,14-56.9,23.8-84.3
	c4.2,4.7,2.8,10.9,0.7,16.4c9,1.1-2,17.1,8.4,19.6c25.2,22.9,58.1-5.9,71.1-28.8C313.6,50.1,324.5,19.4,349.9,0.3 M315.2,59.6
	c-4.5,25.9-24.9,46-48,57c-11.4,7.1-26.8,6.8-37.6-1.2c-7.5,0.3,5.5,9.4-2.6,10.8c-7.7-3.5-5.8-15.3-8.8-21.9
	c-1.3,6.5-1.1,13.1-1.5,19.7c2.6,11.1-7.6,22.6-7,32c7.6-6.5,6.6-19.9,12.7-27.6c4.7-2.6,3,11.2,5.2,4.6c2.5-6.7,8.5,0.4,5.8,5.2
	c1.9-9.6,10.4-7.1,16.2-10.1c-1.9-4.5,5.9-5.4,6.7-1.2c4.3,4.2,8.5-5,13.4-4.4c7.2,1.2,10.5-9.4,18-4.9c4.3-2.8,10.4-3.4,7.5,3.6
	c10.2-10,12.4-25.2,20.4-36.8c1.6-0.8,4.2,0.2,3.1,2.2c-7.4,13.2-10.1,29.6-22.1,39.9c-6.1,1.5-10.3-9.5-15.3-2.5
	c3.9,4.5-2,10.4-6.6,5.7c-1.3-7.4-12.1,6-3.5,2.6c3.4,4.5-11.5,13.6-12.9,4.8c-1.8,7-13.3,20.6-15,6c-9.5,8.5-26.4,8.8-30.6,22.8
	c-4.9,1.4-6.1-1.6-6.2-5.9c-8.7,16.9-24.1,34.7-45.2,32.4c-8.5,0.9-10.3-10.1-16.1-12.2c0.7,12-0.2,24.9,6.4,35.4
	c6.4,1.2,5.9-9.4,12.3-8.2c-0.1,6.1-4.2,11.1-7.7,15.6c-10.1,21.8-8.1,46.6-8.7,70c1.3,6.5-6.6,9.5-10.4,5
	c-17.7,28.2-24.4,64.5-50.6,87.4c-18.4,29.5-43.3,55.1-74.1,71.9c2.6,6,11.1,10.4,17,14.3c8-0.1,15.3-4.7,23.2-5.6
	c-4.8,5.3,7.8,5.8,1.7,11c-9.2-1.8-7.5,10.9-9.4,16.7c10.5-4.6,13-19.5,23.1-26.7c-6.3-1.3,2.8-10.8-4.6-6.8
	c-8.7,0.1,3.7-8.3,5.5-10.6c0-5.7-4.7,4.8-8.5,0.2c0.3-9.9,18.7-1.7,16.5-13.2c6.6-1.3,16.2-8.5,16.6-14.3c-11-1-1.8-12.4,2.7-2.4
	c8.8-13,19.8-25.5,25-40c3.3,13.6-9,29.4-16,42.1c-8.5,22.1-25.8,38.6-41,56c12,8.4-15.5,15.6-4,22.8c8.6-4.5,12.8-13.5,17-21.7
	c19-27.6,35.8-56.3,59.2-80.8c7.9-4.5-8.7-10.7-0.8-15.1c4.7-1.6,6.2,3.5,7.8,6.6c5.3-0.3,7-6.9,6.1-11.4c1.7-4.5,5.9,1.3,8-2.2
	c13.4-13.8,24.8-29.8,40.7-40.9c-0.5,7.2,15.9-7.6,7.4-10.6c1.5,8-6.7-2.4-10.1-0.8c3.6-5,12.6-8,17.2-13.6
	c29.5-9.2,47.3-37,57.4-64.5c7.6-16.4,11.4-34.9,8.5-52.9c-1.9-14.9-15.3-28.1-30.8-26.7c-7.4,2.1-4.1-6.4,0.4-4.8
	c14.3-3.5,27.8,6.5,33.5,19.3c12.5,38.9-12.2,75.8-25.4,110.5c0.8,21.4,15.6,35.1,33.7,46.2c7.5,8.5,23.5-2.8,28.6,6.4
	c11.4-3.5,22.2-9.3,33.7-12.4c-12.5-7.6,4.5-19.5,2.4-29.1c26.3-15.4,37.5-46.8,39.4-76.4c-1.3-25.8,25.6-45.1,29.8-67.6
	c9.1-6.7,9-20.9,12.9-30.8c3.2-7.6-14.2-9.5-10.6-1.2c4.6,8.2-4.9,16.1-1,23.7c-13.4,10.4-20.9,27.6-29.7,42.1
	c-7.9,17.4-5.2,36.8-8.7,55c-6.5,24.4-28.7,38.4-42.4,58.1c-4.5,8.1,5,17.1-2.2,24.6c-5,1.7-3-7.2-7.8-6.9
	c-6.7-2-16.8-2.1-18.5-10.3c-2.1-3.5-10.5-5.2-6.1-10.3c8.4,2,27.4,12.6,30.2,2.8c-12.5-1.9-21.9-12-35-9.2c-1.4-4.5,2.9-8.5,3.5-13
	c-7.2,1.7-2.6,12.8-9,14c-11.4-4.6,18.2-33.2,9.2-14.8c9.4-7.3,5.8,0.2,3.6,7.6c3.8-1.3,8.2-9.5,10.8-6.6c-3.1,5.3,3.4,8.5-0.5,13.8
	c5.9,2.3,12.2,3.6,17.7,6.6c3.7-2.5,6.7-6.8,8.1-11c-7.5-1.7-15.5-1-22.9-2.8c4.7-6,25,7.4,26.2-1.7c-7.5,0.3-14.5-3.2-21.3-6
	c1.9-5,7.7-5.4,12.2-6c-4.2-3-15.4,0.6-16.1-6c6.7,0.4,11.8-2.2,1.1-4.2c4.7-4.3,15.2-0.5,20.9-5.9c-6.1-2.8-16.9-2-19.8-8.1
	c13.4,2.7,27.6,0.8,25.7-11.9c-14.4-3.8,8.4-4.5,14.1-3.2c3.5-5.3-11.4,1.4-11.1-4.7c0.4-3.9,12.8-0.1,9.1-4.1
	c-10.8,0.6-11.6-7.1-19.7-13.1c1.2-8.2,13.9-4.3,15.6-11.8c-5.1,1.6-14.9,7.7-16.9-0.7c7.1-6.4,16.8-8.1,25.1-12.2
	c-1.9-2.7-8.1-5.4-1.7-6.5c6.8-0.1-2.5-7.1,6.6-4.9c0.4-10.1,12.2-12.5,12.7-22.7c-10.2-0.7-17.5,7.3-26.6,9.9
	c-0.3-4,5.7-3.8,6.2-7.8c-3.9,1.2-6.8,4.8-10.9,5.1c4.5-6.1,11.8-10.9,16.6-17.2c-7.2,1.4-10.6,10-17.7,10.9c3.7-6.7-3-5.8-7.1-2.9
	c-2.7-2.8-6.3-2.8-9.8-2.2c1.7-6.4,7.9-18.5,16.3-14.2c-0.4-4.9-12.5-12.2-2.7-15.6c16,21.8,44.1,12.9,65,4
	c-2-7.4,14.9-11.2,22.7-8.7c3.2,6.1,6.4,14.2,2.3,20.5c-6,3.8-7.4,11.5-9,18c14.6-2.9,27.5-11.4,40.1-18.9
	c-4.1-4.4-11.6-6.2-12.9-13.3c-4.6-7.7,6.5-10.9,6.7-17.5c-12.6-5.6-38.3,3.8-42-16.1c-6.1-15.9,5.7-28.1,12.5-40.7
	c-9.5,5.4-18.4,11.7-28,16.9c-13.6,12.1-32.5,13.8-49.7,16.1c-13.9,0.7-30.5-4.7-35.6-18.9c-4-13.4,5.4-24,8-36.3
	C325,37.1,320.7,48.8,315.2,59.6 M551.4,90.7c-40.1,25.8-77.6,57.4-123.5,73.4c-1.4,3.3-2.7,6.8-3.9,10.2c25.4-10,52.5-19.2,72-39.1
	c21.7-7.7,34.6-31.1,57.4-37.4c4.3,0.7,3.3-8.3-0.2-3.1C548.2,98,555.3,88.6,551.4,90.7 M527,119.3c-29.6,28.7-66.1,51.4-106.1,61.8
	c-4.1,2.6-6.8,7.5-7.8,12.1c21-4.3,39.7-15.7,58.9-24.9c5.6-2.7,13-12.8,18.9-7c-7.1,8.6-19.1,13.5-27.9,20.9c-4.3,5,8.9-3.2,4.9,2
	c-16.3,11.3-35.8,16.6-54.5,22.5c-6.5,3.6-4.5-5.1-0.8-5.4c7.6-1.9,18.5-3.8,23-7.7c-12.4,4.4-33.7,2.9-34.2,20.9
	c24.6-8.6,49.9-16.9,73.5-27.8c-1.1,12.6-29.7,13.2-21.4,23.1c-2.4,13.7-24.6,8.1-32.3,16.7c3.5-0.3,7.2-3.1,10.8-1.2
	c-7.4,5.2-14.7,11.4-22.7,6.3c5.5-9-6.6-2-11-1.8c-1.2,6.1-1.6,12.4-2.1,18.6c9.5,0.5,18.7-2.3,27.8-4.8c6.3,0.5-3.8,5.9,4.8,5.7
	c-9.6,8.3-25.1,3.8-34.6,10.2c7.8,2.4,20.1-3.4,29.4-1.2c2.1,6.2-9.6,2.1-11.5,6.1c3.2,3.3,18.1-5.9,18.5,0.4
	c-11.9,7.9-28.2,0.7-40.9,6.9c7.1,2.4,17.1-2,25-0.6c0.4,5.8-9.6,2.9-13,5.2c3.1,3,8.3,0.6,12.2,2c0.8,6.4-10-0.5-9.6,4.3
	c3.3,7.6-6.1,8.5-16.2,8.9c-4.8,5.3,12.1,0.4,10.4,5.6c-6.7,1.2-13.7-0.3-20.3,1.2c11.2,10.9,33.1,4.4,47.5-1.1
	c42.7-19,73.1-57.2,91.8-99.2c7.4-24.2,21.2-46,28.5-70.5c-15,2.4-13.9,22.3-30,24.6c-6.2-4.5,5.6-7.9,6.2-11.5
	c-3.7-4.4,4.9-6.7,5-10c-6.3-5.9,6-10.2,9.2-13.8c3.4-2.3,11.4-10.4,13.7-2.6c2.3-3.4,2.6-7.7,2.7-11.7
	C544.2,107.9,534,111.5,527,119.3 M534.8,127c7.1-4.4,16.6-1.3,15.5-12.8C545.6,119,537.8,121.6,534.8,127 M392.2,139.7
	C368.3,146.6,407.4,143,392.2,139.7 M357.5,140.6C350,146.3,362.4,142,357.5,140.6 M365.5,144.6C356.5,149.7,369,146,365.5,144.6
	 M416.5,146.8c-3.7,2.2-7.6,4.3-10.6,7.5C410.5,154,418.4,150.8,416.5,146.8 M392.6,182.7c-3.2,1.1-3.7,4.9-4.4,7.8
	C391.2,190.2,395.6,182.2,392.6,182.7 M385.4,201.7C378.2,204.9,391.5,203.5,385.4,201.7 M510.3,230.3
	c-8.8,12.4-18.7,24.3-28.4,35.8c4.7-1.9,10.5-0.3,11-7.1c7.2-4-0.8,7.5,5.5,5.7c4.2-1.9,6.4,5.4,1.7,5.5c-4.8-5.4-20.5-4.5-24,3.1
	c7.2,0,12.1,5.5,16.1-2.9c4.6,5.2,8.6,2.3,14.5-0.1c1.3,6.3-8.4,5.8-6.6,11.2c4.3-0.3,10.9-0.1,7.4,7c-5,0.7-14,0.2-14.8,6.4
	c3-1.5,5.6-1.8,6.1,2.2c12.4-4.8,23-13.3,31.4-23.5C529.9,256.8,519.1,242.5,510.3,230.3 M505,300.2c-4.2,5.3-16.5,9.4-7.7,15.8
	c17.1-5.3,30.4-18.8,42.3-31.6c9.2,1.8-4.1,11.9-6.2,16.7c7.5,4.6-6.1,5.3-4.4,11c2.8-1.6,9.5-2.5,7.9,2.7
	c-7.3,7.6-16.5,4.6-25.8,7.5c3.2,2.7,8,3.3,10.3,0c9.5,2.5-11.8,4.9-3.6,9.8c5.8-10.5,18.2,9.8,3.9,7.6c-5.2,2,8.6,4.9,2.6,7.9
	c-4.3,1.3-9.2-3.4-8-7.8c-7.9-6-3.4,9.9-9.9,10.3c-5.3-2.4,4-11.1-4.9-7.5c-2.9,7.5,0.5,18.6,9.4,15.7c-5.4-4.2,5.2-12.8,7.1-6
	c-2.7,6-2.7,12.9-10.8,13.8c12.5,1.3,0.7,11.1,4.4,14.9c1-5.7,9-6.5,7.4,1.2c5.4-3.5-1.4-7.5,2.2-12.6c-14,0,8.3-12.4,9.9-4.6
	c-6.6,5,4.3,9.4,1.6,15.5c-1.8,4.4-8.5,0.2-10.4,4.8c3.3,1.4,8.8-1.7,8.8,3.8c-5.3,5.5-17.1-0.2-14.7,12.1
	c12.9-4.2,27.5-19.2,20.9-34c-8.8-33,12.4-65.2,7-98C530,278.1,521.4,294.5,505,300.2 M353.2,274.1
	C355.7,280.1,360.7,274.2,353.2,274.1 M334.8,282c4.9,3.4,12.1,1.7,16.4,6.4c4.8-1.9,8.4-5.7,11-10
	C353.9,283.4,343.3,279.7,334.8,282 M484.2,279.6C480,287.5,493.3,280.1,484.2,279.6 M250.5,295.7c-3.6,1.4-5.7,5.3-9.4,6.6
	c5.4-0.4,7.5,12.2,11.3,3.7C242.4,306.2,255.6,297,250.5,295.7 M438.9,299.8c-7.5,3.6,0,7.1,4,9C439.6,305.5,445,296.5,438.9,299.8
	 M367.4,303.8c-12.7-1.2,0.9,16.2,2,10.1c-5.3-3.5,0.4-6.7,4.5-4.9C373.3,306,371.8,301.2,367.4,303.8 M447.5,305.5
	C439.5,313.8,460.4,306.7,447.5,305.5 M237.6,310.7C229.3,316.7,241,311.7,237.6,310.7 M379.1,311.8c-3.5,6.2-0.5,18.2-7.3,25.3
	c6.6-4.4,7.5-13.2,12.5-18.8c6.2-0.6-2.3,11.2,4.9,5.9c4.3,4.5-4.6,10.9-0.8,17.1c7.9-0.7,2.1-13.6,10.3-14.2
	c-2.1-4.3-2.9-9.3-1-13.8C391.9,310.6,385.3,312.4,379.1,311.8 M410.4,312.7c-3.7,1.2-7.5,1.3-11.4,1.2c8,7.3,6.1,17.9,4,27.3
	C415,340.4,420.4,315.6,410.4,312.7 M517.3,312.8C504.7,316.7,523.7,320.9,517.3,312.8 M528.9,312.1
	C520.8,312.2,529.5,318.7,528.9,312.1 M255.1,317.3C250.6,326.1,260.6,321.4,255.1,317.3C255.4,309.4,240.2,317.7,255.1,317.3
	 M235.2,315.7c-3.4,4-1,14.1-9.1,10.5c-6.4-2,3.9-7,1.2-8.6c-4,3.9-8.5-2.4-12.4,1.1c-1.6,6.6-10.7,20.6,1.9,13.8
	c-5.8,8.9,6.2,6.7,9.7,5.4c-11.1,8.5,6.4,9.6,11.9,9c7.7-0.4,6.3,18.2,16,11.9c5.6-3.6,4.2,7.8,8.6,4.7c5.8-5.9,10.4,3.5,13.4,7.1
	c-1.8-4.2,2.1-6.2,5.4-7.5c-2.3-0.1-4.4-3.9-1.5-4.5c10.6-3.1,0.1,6.9,5,10.5c3.6-5.7,10.6-4.1,11.2,2.6c6.7-1.2,17.5,1.9,20.4-6.4
	c2.3-6.1,12.6-0.3,13-7.7c-8.4,2.4-15.1-3.3-22.2-6.2c-16,4.1-33.4,3.4-47.8-5.3c7.8-4.3-2.4-17.5-9.3-12c-12.7,4.7-3-7.1-0.6-11.7
	c-3.4,0.8-6.6,2-10.1,2.6C241.7,320.7,239.9,317.1,235.2,315.7 M354.2,317.5c-0.4,5.1-3.1,11.9,1.1,16
	C358.4,329.6,359,318.8,354.2,317.5 M370.4,319.3c-3.2,5.1-3.5,11.5-5.4,17.2C369.4,332.3,375.1,324.1,370.4,319.3 M420.9,328.2
	C416,332.9,424.6,335.4,420.9,328.2c3.6-5.2,7.9,6.1,8.3-1.7C434.2,317.1,416.6,321.1,420.9,328.2 M262.1,326.1
	C264.6,334.1,269.5,329.6,262.1,326.1 M503.3,329.7C494,335.1,507.6,332.6,503.3,329.7 M509.3,329.6c-4.8,0.5-2.6,4.5-0.2,6.7
	C511.6,335.5,513.5,328.4,509.3,329.6 M355.5,334.4C349.8,345.3,365.4,335,355.5,334.4 M467.6,355.9c-0.2,6.8,4.2,17.9-7.4,16.3
	c6.2-10.8-11.2-2-15.2-8.7c1.7-4.2,6.9-2,9-3.2c-4.2-2.6-11.7-4.2-7-10c-11.3,2.8-2.4,11.8-3.9,18.1c2,2.3,8.4,2.2,5.6,6.4
	c-1,6.7,8.8-5.1,9,1.9c6,8.6-16,4.5-3.6,8.3c2.1,4.2,6.4,7.2,11.1,7c-2,6.9-14.5,0.9-17.1,10.2c-3.8,0-9.9,4.9-10.8-1.4
	c-2.8-8.4,14.8-2.9,10.2-10.5c4.9-9-12.2-6.4-15.5-0.8c-12.6-1.6,1.6-16-10.6-10.9c-4.6,8.6,6.4,13.9,13.6,15.7
	c-2.3,2.5-6.9,3.5-8.8,7.1c2.5,3.9,7.4,5.7,10.3,9.4c3.4,4.1,10.1-4.8,12.1,0c-5.8,14,8.3-12.6,12-3.8c-2.4,9.2,8.9-1.3,3.8-5.9
	c8.3-20.1,11.8-42.5,7.7-64C456.5,340.9,479.3,351.1,467.6,355.9 M208.2,339.7c-7.6,6.5-14.8,13.9-21.7,21.1
	C193,359.7,209.8,344.7,208.2,339.7 M354.4,342.6c-4,0.7-5.6,6.5-10,5.4c-1.5-2.5-3.5-4.7-6.4-2.8
	C341,353.3,355.5,348.8,354.4,342.6 M334.3,343.6C324.3,347.4,342.8,345.3,334.3,343.6 M330.8,347.5c-2.7,6.8,1.2,6.8,6.7,5
	c-2.6,6.4,5.3,8.7,6.2,1.9C340.5,351.5,334.3,351.4,330.8,347.5 M203.4,355.8c-7.4,6.5-17.6,8.3-25.2,14.5
	c4.4,4.8,10.6-6.5,16.9-5.6C200.2,366.5,208,358.9,203.4,355.8 M454,360.3c2.8,0.3,12.2,6.2,6.9,0
	C460.2,354.4,455.9,358.4,454,360.3 M428.3,359.1c-4.8,2.8-14.4,3.2-14.3,9.8c5.7-1.7,11.3-6.9,17.9-3.9c-5.6,7.5,8.7,19.9,13.3,9.4
	c-4.9,2.1-14.3-0.3-7.2-5.2C434.5,365.6,435,356.4,428.3,359.1 M373.1,371.7c-7.3-1.5-8.7,5-7.5,10.5c-3.1,12.8-12.7,23-17.6,35
	c6.4-3,8.1-10.3,15.9-11.9c-5.3,12.7-18.5,19.1-30.4,24.6c-0.6,4.6,11.3,1.7,14.5,1.9c-9.2-4.8,3.6-9.4,8.4-9.6
	c0.8-4.2,2.5-8.9,7.7-6.4c3.2-8.2,0.8-23.8,13.1-26.2c-3.8-7.2,10.3-8.8,8.4-17.4C381.3,373.7,377.2,372.6,373.1,371.7 M546.4,379
	c-11.6,18.7-30.2,35.6-52.7,37.7c-10.2-7.7-3.2,9.8-6.1,15c20.9-4.6,40.4-16.7,54.9-33C545.8,392.9,550.6,385.6,546.4,379
	 M386.4,380.6C380.9,389.2,388.2,385.7,386.4,380.6 M167.5,381.4C159.9,386.7,169.5,387,167.5,381.4 M158.6,382.8
	c-3.8,1.4-6.1,4.9-7.7,8.4C153.7,389.7,161.1,382.2,158.6,382.8 M382.6,391.8C375.6,398.2,387.5,395.5,382.6,391.8 M416.6,398.9
	C421.8,406.5,429.6,399,416.6,398.9 M433.3,415.8c-5.9,6.3,6.6,6.3,10,2.4C441.5,414.7,436.2,416.3,433.3,415.8 M409.4,416.5
	c-2.3,1.2-4.7,5-1,6.1C412.4,422.6,416,415.3,409.4,416.5 M372.5,417.7C364.6,423.7,373.7,422.7,372.5,417.7 M358.1,426.7
	c-3.4,0.4-7.6,1.5-7.7,5.8C355.7,433.3,364.7,431.6,358.1,426.7 M80.5,442.8c-5.1,3.5-10.4,8.5-12.4,14.3
	C73.2,455.2,78.5,445.1,80.5,442.8 M340.2,455.5C336,463.6,348.2,458.6,340.2,455.5 M317.4,457.5
	C311.1,466.6,326.7,455.6,317.4,457.5 M4.7,463.6c1.2,5.8-1.3,13.2,5.9,10.1C20.3,472.7,8.2,465.3,4.7,463.6 M335.5,467.6
	c-3.2,0.5-3.5,4.3-4.3,6.8C334.5,475.2,338.7,467,335.5,467.6 M480,485.5C476.7,492.2,489.4,487.4,480,485.5 M495.5,499.6
	C487.8,504.1,502.9,499.5,495.5,499.6 M56.6,502.7c-3,2.8-14.7,1.1-10.4,6.5C50.4,514.1,59.1,502.6,56.6,502.7z"/>
</svg>
