<?xml version="1.0" encoding="utf-8"?>
<!-- Generator: Adobe Illustrator 19.2.0, SVG Export Plug-In . SVG Version: 6.00 Build 0)  -->
<svg version="1.1" id="Слой_1" xmlns="http://www.w3.org/2000/svg" xmlns:xlink="http://www.w3.org/1999/xlink" x="0px" y="0px"
	 viewBox="0 0 444 601" style="enable-background:new 0 0 444 601;" xml:space="preserve">
<style type="text/css">
	.st0{fill:#7EA5DD;}
</style>
<path class="st0" d="M239.4,573.8c0.1-2-0.5-2.4-4.6-3c-2.6-0.4-5.1-0.9-5.7-1.3s-2.4,0.6-4.2,2.1l-3.2,2.7l-1.7-2.2
	c-1.1-1.5-3.1-2.4-6.1-2.8c-4.1-0.5-4.3-0.4-2.4,1c2.8,2.2,1,3.4-2.3,1.5c-3-1.8-7.5-1.4-9.3,0.8c-0.6,0.7-1.7,1.1-2.4,0.8
	s-1.6,0-2,0.6c-0.8,1.3-2.5,1.4-2.5,0.1c0-0.5,2.5-2.6,5.5-4.6c5.3-3.5,5.7-3.6,12.2-3c4.2,0.4,7.7,1.3,9.3,2.5
	c2.5,1.9,2.6,1.9,5-0.1c2.5-2,4.5-2,12.5,0.1c2.2,0.6,4.1,1.5,4.3,2.1s1.3,1.1,2.5,1.1c2.3,0,5.4,1.6,4.6,2.3
	c-0.3,0.2-2.6,0.7-5.1,1.1C239.5,576,239.3,576,239.4,573.8L239.4,573.8z M187.8,567.3c-2.2-0.6-2.3-2.2-0.2-3
	c1.6-0.6,4.5,1.2,4.5,2.8C192,568,190.7,568.1,187.8,567.3L187.8,567.3z M169.7,552.7c-2.3-1.8-4.1-2.2-9.8-2.1
	c-8.8,0.1-7.7-1.8,1.4-2.4c5.3-0.3,6.8,0,9.7,2c3.7,2.5,5.1,4.9,2.9,4.8C173.1,554.9,171.2,553.9,169.7,552.7z M300.2,551.2
	c-1.3-0.2-2.9-1.3-3.7-2.5c-1.6-2.5-3-9.8-2.7-13.9c0.2-2.4-0.2-2.8-2.9-2.8c-1.7,0-4.9,0.9-7.1,2.1s-8.2,3.4-13.2,5.1
	s-9.6,3.5-10.1,3.9s-2.2,0.9-3.6,0.9c-3,0-5.7-2.4-4-3.5c1.3-0.8,4.1-6.1,4.6-8.9c0.2-1.2,0.6-3.2,0.9-4.5c0.4-2.2,5.1-7.1,6.8-7.1
	c0.4,0,1.9-1,3.2-2.2s5.4-3.4,9-4.9c8.6-3.6,9.8-5,10.1-11.4l0.2-5.2l-5.6,1c-3.1,0.5-6.2,1.4-6.9,2c-1.9,1.5-2.7,0.1-1.1-1.9
	c1.2-1.5,1.2-1.6-0.3-1.1c-1.1,0.4-1.8,0-2.1-1.1c-0.2-0.9-0.3-0.4-0.1,1.2c0.4,2.8,0.3,2.8-3.9,2.4c-2.3-0.2-6.2,0.2-8.6,0.9
	c-3.1,0.9-4.8,1-5.7,0.3c-1.4-1.1-23.5-1.9-22.8-0.8c0.2,0.4,0.8,2.6,1.3,5s1.5,6.7,2.3,9.6c1.3,4.7,1.3,5.9-0.2,10.7
	c-0.9,3-2.1,5.5-2.8,5.5s-1.3,1.5-1.5,3.3c-0.3,3.1-0.5,3.2-4.1,3.1c-4.2-0.1-7.2-2.6-8.2-6.7c-0.4-1.5-1.1-2.3-2-2
	c-0.7,0.3-2.3,0-3.4-0.6c-4.3-2.3-13.7-2.3-22.8,0c-4.8,1.2-9.3,2.2-10,2.2s-1.2,0.6-1.2,1.2s-0.9,2.4-2.1,3.8
	c-1.7,2.2-2.9,2.6-7,2.6c-4.5,0-4.9-0.2-4.9-2.3c0-1.3,0.5-2.8,1.2-3.5c0.9-0.9,0.3-1.6-2.8-2.9c-2.9-1.3-6.7-1.7-14.5-1.8
	c-7.5,0-11.1-0.4-12.2-1.4c-1.5-1.2-1.7-1.1-1.7,1c0,2.7-1.7,4.8-3.7,4.8c-3.3,0,0.7-11,4.9-13.5c1.5-0.9,2.8-2.1,2.8-2.6
	c0-1.1,7.3-5,9.5-5c0.9,0,4.1-1.1,7.1-2.5s6-2.5,6.7-2.5c1.5,0,15.4-5.8,18.2-7.6c1.1-0.7,3.9-2.3,6.2-3.6c5.1-2.8,5.4-4.2,1.1-4.8
	c-1.8-0.3-4.5-1.4-6.1-2.4c-2.3-1.6-3.2-1.7-5.3-0.8c-5.3,2.4-7.7,0.7-9.3-7c-0.6-2.8-2-6.1-3.1-7.3s-2.9-3.2-3.9-4.5
	s-2.4-2.1-3-1.7s-0.8,0-0.4-0.9c0.4-1.1-0.3-1.9-2.4-2.6c-2.9-1-4.7-3.3-3.7-4.9c0.7-1.2-1.4-8-3.1-9.9c-0.8-0.9-4-5.5-6.9-10.2
	s-6.3-9.9-7.4-11.6s-2-3.8-2-4.7c0-2.8-2.3-7.1-5.2-9.9c-2.9-2.8-3.9-8.3-1.8-10.5c0.7-0.7,0.4-2.6-1-6.2c-1.1-2.9-2-6.1-2-7.2
	c0-1.3-0.4-1.8-1.2-1.3s-0.9,0.3-0.4-0.5c0.9-1.5-1.2-11.1-3-13.1c-1.5-1.8-2.4-7.2-2.7-16c-0.1-3.6-0.5-7-0.9-7.5
	c-0.8-1.1-2.6-18.5-2.7-25.4c0-2.4-0.5-6.1-1.1-8.2c-1.3-4.9-2.2-28.2-2.3-63.7c-0.1-16.6-0.5-27.2-1-25.8s-1.4,2.5-2,2.5
	c-0.8,0-0.8,0.3,0.1,0.8c1.9,1.2,0.4,4.1-2.6,4.8c-2.8,0.7-8.4,4.8-7.6,5.6c0.3,0.3-0.3,1.1-1.2,1.9c-1.4,1.1-1.6,1.1-0.9,0
	c0.5-0.9-0.1-0.8-1.8,0.4c-1.4,0.9-2.6,2-2.6,2.4s-1.6,1.7-3.5,3s-3.2,2.8-2.8,3.4s0.2,0.8-0.4,0.4s-2.3,0.7-3.8,2.3s-2.4,3-2,3
	s0,0.7-1.1,1.6s-1.3,1.3-0.4,0.9s0.4,0.3-1,1.4s-3,2.1-3.6,2.1s-2,1.2-3,2.6s-2.9,3.8-4.2,5.2c-4,4.6-16.2,20.9-16.2,21.7
	c0,0.4-0.9,1.9-2,3.5s-2.4,3.9-3,5.4c-0.8,2.2-0.7,2.5,0.6,2c1.2-0.5,1.1,0.3-0.8,3.3c-9,15-15.3,20.9-22.1,20.9
	c-3.7,0-4-0.2-4.6-3.5c-0.4-1.9-1.3-4-2-4.6S9,315.1,9,313s-0.7-7-1.6-10.9c-1.5-6.5-1.5-7.4,0-11.1c0.9-2.2,1.6-6,1.6-8.5
	s0.9-8.4,2-13.1c1.4-5.9,1.7-9,1-9.7s-0.6-1.5,0.4-2.6c0.8-0.9,1.4-1.9,1.5-2.3s0.9-2.7,2-5s2.9-6.9,4.2-10.2
	c3.1-8,4.1-9.8,11.9-20.9c8.5-12.1,33.6-37.9,41.5-42.6c2.2-1.3,6.9-4.8,10.4-7.7s7-5.3,7.8-5.3s1.3-0.6,1.3-1.2
	c0-1.5,5.5-5.2,9.2-6.1c1.5-0.4,2.8-1.1,2.8-1.7s0.6-1,1.4-1s2.5-0.9,3.9-2c1.6-1.3,2.7-1.6,2.9-0.9c0.3,0.8,1.5,0.5,3.8-0.7
	c3.1-1.6,9-3,9-2c0,0.2-0.7,2.1-1.6,4.2s-1.8,5.4-2,7.3s-0.9,4-1.4,4.6s-0.7,1.4-0.4,1.7s-0.4,3.2-1.5,6.5s-2.1,6.8-2,7.8
	s1-1.1,2.2-4.7c3.6-11.1,4.7-10.1,2.3,2.2c-1,5-1.6,6.5-2.9,6.4c-1.1-0.1-1.7,0.6-1.7,2c0,1.2-0.3,3.3-0.6,4.6
	c-0.4,1.9-0.2,1.7,1-0.8c2-4.4,3-4.1,2.1,0.5c-0.4,2.1-0.7,4.6-0.7,5.6c0.1,1.3-0.5,1.7-2.1,1.5c-2-0.3-2.2,0.1-2.5,6.5
	c-0.2,5.1,0,6.6,0.9,6.1s1,0.4,0.5,3.8c-0.4,2.8-0.3,4.8,0.4,5.2c0.6,0.4,1,1.1,1,1.6c0,1.3-3.4,1.2-4.8-0.2
	c-2.1-2.1-3.9,0.8-4.2,6.9c-0.5,8.2-0.1,18.9,0.9,23.3c0.5,2.2,0.5,4.4-0.1,5.5c-1.2,2.2-0.4,16.3,1.3,24c1.1,4.7,1.1,6,0.1,6.3
	c-0.9,0.3-1.2,4-1.2,13.4c0,10.1,0.3,12.9,1.3,12.5c0.9-0.4,1.3,0.8,1.2,4.1c0,2.5,0.7,7.5,1.7,11.1c2.2,8,2.2,8,0.3,8
	c-1.1,0-1.4,0.9-1.2,3.4c0.1,1.9,0.7,3.2,1.3,3c0.6-0.2,1.1,0.2,1.2,0.9s0.5,3.5,1,6.3l0.9,5l0.7-4.2c1.1-6.6,2.2-5,2,2.9
	c-0.2,7.5-1,9.8-1.9,6.1c-0.3-1.2-1.2-2.4-1.9-2.7c-1-0.4-1.2,0.2-0.8,2.7c1.1,6.1,3.7,14.8,4.6,15.3c1.7,1.1,1.8-0.3,0.2-4.2
	c-1.3-3.2-1.4-4.5-0.5-7.7c1.3-4.4,2.7-5,2.6-1.2c0,1.6,0.8,3.2,2.2,4.1l2.2,1.5l-0.6-5.3c-0.3-2.9-1.2-5.9-2-6.7
	c-0.9-0.9-1.3-3.8-1.3-8.5c0-8.3,1.5-7.5,2.6,1.3c0.4,3,1.4,6,2.2,6.6c1.8,1.3,2.9,10.9,1.3,11.8c-0.8,0.5-0.7,1.5,0.4,3.6
	c1.9,3.6,0.3,4.9-1.9,1.5c-1.8-2.7-4.9-3.5-4-1c0.3,0.8,1,1.2,1.5,0.9s0.9,0.4,0.9,1.5s0.9,3.4,2.1,4.9c1.1,1.5,2.3,4.3,2.6,6.2
	s1.4,5.6,2.5,8.4c1.2,2.9,1.8,6.7,1.7,9.1c-0.2,3.1,0,4,1.2,4c0.9,0,2,1.7,2.7,4.5c1.5,5.7,1.6,7,0.2,7c-0.6,0-0.8-0.8-0.5-1.8
	c0.5-1.5,0.4-1.5-0.9,0.1c-1.2,1.6-1.7,1.7-3,0.6c-2-1.7-3.8-8.3-3-11.4c0.4-1.8-0.1-3.2-2.1-5.3l-2.7-2.9l0.7,5
	c0.4,2.8,1.1,5.9,1.6,7c0.5,1.1,2,4.7,3.4,8c1.5,3.7,2.5,5.1,2.5,3.8c0.1-3.3,2-2.7,2,0.6c0,3.9,1.8,8.9,3.6,9.5
	c0.8,0.3,1.4,1.4,1.4,2.4s0.7,2.7,1.5,3.8c1.4,1.8,1.5,1.7,0.9-2.1c-0.4-2.2-1.7-5.8-3-8.1c-2.9-5.1-3.1-8.4-0.4-9.1
	c1.7-0.4,2-1.4,2-5.4c0-2.7,0.4-4.9,1-4.9c1,0,1.4,3,1,8.2c-0.1,1.5,0.1,3.7,0.5,4.9c0.5,1.7,0.9,1.9,1.6,0.8c0.7-1.2,1-1.1,1.9,0.1
	c0.5,0.8,0.8,2.1,0.5,2.8s0,1.2,0.5,1.2s1,0.9,1,2c0,2.2-1.2,2.5-4.1,1c-2.3-1.2-2.6,0.2-0.4,2c0.8,0.7,1.5,2.1,1.5,3.1
	s1.1,3.1,2.4,4.6c2.3,2.6,2.4,2.6,1.9,0.6c-0.3-1.2-1-2.2-1.4-2.2s-0.9-0.7-0.9-1.5s0.4-1.5,1-1.5s1,0.4,1,0.8s0.6,1.6,1.3,2.6
	c1.1,1.5,1.2,1.2,0.9-2.3c-0.3-2.7,0-4.1,0.8-4.1c0.7,0,0.9-0.8,0.6-1.8c-0.5-1.7,0.9-5.2,1.7-4.2c0.9,1,1.4,9,0.6,9.5
	c-2,1.2,2.5,8.5,4.8,7.7c1.7-0.6,4.6,3.2,5,6.5c0.4,3.1,2.2,5.6,2.2,3.1c0-0.9,0.6-1.8,1.2-2.1c0.9-0.3,0.7-1-0.6-2.5
	c-1.9-2.1-2.4-3.7-2.7-8.7c-0.1-1.8-0.4-2.3-0.6-1.2c-0.3,1-1.1,1.8-1.8,1.8c-1.5,0-3.1-7.7-2.2-11.1c0.4-1.5,0-2.2-1.4-2.6
	c-1.1-0.3-1.9-0.9-1.9-1.4s-0.7-0.9-1.5-0.9c-2,0-3.7-3.5-3.3-6.7c0.4-3.4,2.8-4.3,2.8-1.1c0,2.9,1.5,5.4,2.4,4
	c0.3-0.6-0.1-2.7-0.9-4.7c-1.1-2.7-1.3-4-0.5-4.8s1.1-0.6,1.1,0.7c0,1,0.7,2,1.5,2.3s1.5,1.8,1.5,3.3s0.6,3.3,1.4,3.9s2,2.5,2.6,4.2
	c0.9,2.1,1.6,2.7,2.3,2c0.6-0.6,1.4-1.1,1.8-1.1c0.9,0,3.9,5.8,3.9,7.5s2.4,6.5,3.2,6.5c0.4,0,0.3-1.4-0.2-3.1s-0.6-4.4-0.3-6
	s0.1-2.9-0.4-2.9c-1.5,0-4.7-6.6-4-8.4c1.1-2.8,2.4-1.8,5.1,3.6c1.7,3.6,2.6,4.6,2.6,3.1c0.1-4.5,1.6-3,1.8,1.8
	c0.3,6.9,2,12.9,3.8,12.9c0.8,0,1.4-0.3,1.3-0.8c-0.3-2.1,0.2-3.3,1.3-2.7c0.8,0.5,1-0.1,0.6-2c-0.3-1.5-0.2-2.9,0.2-3.1
	s1.1,2,1.4,5s1,5.3,1.5,5c0.9-0.5-0.8-10.7-1.9-11.5c-0.4-0.3-1-1.9-1.3-3.5s-0.9-4-1.3-5.2c-1-3.5,1.2-2.6,2.5,1
	c0.7,1.8,1.8,4.6,2.5,6.2s1.8,4.1,2.3,5.5c0.8,2,0.9,1.3,0.5-3.2c-0.4-4-0.2-5.8,0.6-5.8c0.6,0,1.1,1.5,1.1,3.2s0.6,4.5,1.4,6
	c1.4,2.6,0.6,4.5-1.3,3.3c-1.3-0.8-2.3,3.2-2.1,8.2c0.1,2.5-0.3,4.2-0.9,4.2c-0.6,0-1.1-1.1-1.1-2.5c0-1.5-0.6-2.5-1.5-2.5
	c-1.2,0-1.3,0.5-0.5,2.8c0.6,1.5,1.6,3.2,2.2,3.8s1.8,2.1,2.5,3.5s2.4,4.3,3.7,6.5c3.1,5,3.3,2.4,0.5-5.6c-1.8-5.1-1.8-6.1-0.5-12.2
	c0.8-3.7,1.6-7.1,1.9-7.5s-0.4-2.4-1.4-4.4c-1.3-2.3-1.6-3.8-0.9-4.3c1.5-0.9,4.9,2.5,4.9,5c0,1.2,0.6,4.4,1.4,7.1s1.7,7.4,2,10.4
	s0.5,5.6,0.6,5.8s0.5,0.2,1,0.2c0.6,0,0.7-1.3,0.4-3c-0.8-3.8,1.2-4.1,2.9-0.4c0.9,2,0.9,2.7-0.1,3.4c-1.5,1-0.6,3,1.4,3
	c0.8,0,2,2.2,2.9,5.2c0.9,2.9,2.2,6.1,3,7.1c1.4,1.8,1.4,1.8,2,0c0.8-2.5-1.9-9.8-3.7-10.1c-1.1-0.2-1.6-2.5-2-9.5
	c-0.5-10.3,0.5-13.1,2.3-6.6c0.7,2.4,1.6,4.8,2.1,5.3c1.3,1.5,1,3.5-0.7,3.5c-0.8,0-1.5,0.6-1.5,1.4s0.7,1.9,1.5,2.6
	s1.5,2.5,1.5,4.1c0,2,0.4,2.7,1.4,2.3c0.9-0.4,1.6,0.4,2,2.4c0.7,3.3,3.9,6.9,8.5,9.7c1.3,0.8,1.3,0.7,0-1c-0.8-1.1-1.8-2.2-2.1-2.4
	c-0.8-0.6-3.9-12.6-3.9-15.1c0-1.1,0.4-1.9,1-1.9s1,1.1,1,2.4s0.5,2.7,1,3.1c0.7,0.4,0.8-1,0.4-4.4c-0.4-2.9-0.3-5.1,0.2-5.1
	s0.7-1.8,0.5-4.1s0.2-5.2,0.9-6.5c1.4-2.6,3.5-3.3,2.6-0.8c-0.3,0.9,0.1,3.1,0.8,5c1.3,3.1,1.3,3.4-0.3,3.5c-1.6,0-1.6,0.1,0.1,1.4
	c2.4,1.8,2.2,2.6-0.8,2.6c-2.7,0-3.3,2.1-1.1,3.9c1.4,1.1,1.1,5.6-0.4,7.6c-0.4,0.5,0.5,2.1,2,3.5l2.7,2.5l-0.4-5.2
	c-0.4-4.4-0.2-5.2,1.2-5.2c2.3,0,3.3,3,1.4,4.1c-1,0.5-1.3,1.8-1,3.4c0.4,1.9,0.8,2.3,1.7,1.5c1.8-1.5,3.1,0.6,4,6.5
	c0.5,3.6,1,4.5,1.6,3.4c0.5-0.9,0.5-3-0.1-5c-1.2-4.3-1.3-9.9,0-9.9c0.5,0,1.2,2,1.6,4.5c0.7,4.9,2,5.9,2.7,2
	c0.3-1.7-0.4-3.5-2.2-5.8c-2.4-2.9-2.6-4.1-2.5-9.8c0.3-8.1,0.3-8,1.3-8c0.5,0,1.2,2.5,1.5,5.7s1.4,7.3,2.4,9.2
	c1.5,3.2,1.8,3.3,2,1.3c0.2-1.2,0.6-2.2,1-2.2s0.8-0.8,0.9-1.8s0.5-3.9,0.8-6.5c0.6-4,0.4-4.8-0.9-4.8c-1,0-1.6-0.8-1.6-2
	c0-1.1,0.4-2,0.9-2s1.2,0.9,1.6,2s1.1,2,1.6,2s0.9,0.9,0.9,2.1s1.6,4.8,3.5,8.1c3.9,6.7,4.1,7.3,2,6.5c-0.8-0.3-1.7-0.1-2.1,0.4
	s-1.5,1-2.5,1s-1.9,0.5-1.9,1c0,1.4-2.8,1.2-3.2-0.2c-0.2-0.7-0.7-0.2-1,1s-0.2,2.2,0.3,2.2s1.6,1.6,2.4,3.6c1.4,3.3,1.6,3.4,3.1,2
	c1.2-1.2,1.3-2,0.4-3.7c-0.8-1.4-0.8-2.5-0.1-3.1c1.3-1.3,3.2-0.1,3.2,1.9c0,2.3,2.8-0.2,3.2-2.9c0.6-4.1,2.8-3.2,2.8,1.2
	c0,3-0.4,4.1-1.6,4.1c-1.1,0-1.4,0.6-0.9,2s0.2,2-0.9,2c-0.9,0-1.6,0.5-1.6,1.1s-0.6,0.9-1.4,0.6c-1.2-0.5-1.2,0-0.4,2.5
	c0.9,2.5,1.4,2.9,3.5,2.4s2.4-0.3,1.8,1.4c-0.4,1.1-0.2,2,0.3,2c1.7,0,2.1-2.7,1-6.5c-0.8-2.9-0.7-4.1,0.6-6.1
	c0.9-1.3,1.6-3.7,1.7-5.2c0.2-4,0.9-6.3,1.9-6.3c0.5,0,0.9,1,0.9,2.3c0,2.9,5.4,7.9,6.9,6.4c0.7-0.7,1.1-0.5,1.1,1
	c0,1.1,0.6,2.8,1.3,3.8c1.1,1.5,1.4,1.6,1.9,0.4c0.3-0.8,0.3-2.7,0-4.1c-0.4-2-1.1-2.7-2.8-2.7c-2,0-3.1-1.1-3.6-3.8
	c-0.1-0.4-0.5-1.7-1-2.9c-0.5-1.4-0.3-2.9,0.7-4.3c2-2.8,3-2,3.7,2.9c0.6,3.6,1.4,4.5,3.9,4.1c0.4-0.1,0.8,0.4,0.8,1.1
	s0.9,0.1,1.9-1.2c2.4-3.1,3-2.5,3.3,3.5c0.3,5.4-1.7,7.3-2.6,2.5c-0.3-1.7-1.1-3-1.7-3c-0.7,0-0.8,0.7-0.4,1.8c0.4,1,1,3,1.2,4.4
	c0.3,1.7,1,2.5,1.7,2.2c0.9-0.3,1.4,0.8,1.7,3.8c0.5,5.2,0.3,5.6-2.5,3.9c-2.2-1.3-2.2-1.3-0.3,0.8c1.1,1.2,1.6,2.5,1.2,2.9
	c-1.1,1.1-4-1.1-5.4-4.1c-0.7-1.5-2.6-3.6-4.2-4.8s-3.2-3.4-3.5-5c-0.8-3.4-2.7-3.7-4.7-0.6c-1.2,1.9-1.2,2.7-0.1,4.8
	c0.7,1.4,1.3,3.3,1.3,4.2c0,2.4,1.7,2.2,2.3-0.2c0.7-2.8,2.7-2.5,2.7,0.4c0,1.9,0.4,2.3,1.9,1.9c1.3-0.3,2,0.2,2.4,1.6
	c0.3,1.2,0.1,2.1-0.6,2.1s-0.5,0.4,0.3,0.9c0.9,0.6,1.7,0.6,2.1-0.1c0.5-0.7,1.3-0.7,2.7,0.1c1.8,0.9,2.7,0.6,5.9-2.1
	c2.1-1.8,3.9-3.6,4.1-4s0.9-1.4,1.6-2.1s1.5-2.1,1.7-3.1c0.6-3.1,2.3-2.7,3.6,0.7c1.1,3,1,3.4-1.5,5.5c-1.9,1.6-2.9,1.9-3.4,1.1
	s-1.3-0.2-2.5,1.5c-1.3,1.9-1.5,3-0.7,3.8c1.6,1.6,13.5-9.1,14.7-13.4c0.6-1.9,1.7-3.5,2.7-3.7c1.6-0.3,1.6,0,0.6,2.3
	c-1,2.1-0.9,2.8,0.2,3.5s1.2,1.3,0.2,3.6c-1.5,3.2-0.6,4.7,1.3,2.2c0.7-1,1.8-1.7,2.4-1.7c1,0,3.2-3,3.2-4.3c0-0.3-0.9-0.2-2,0.1
	c-1.9,0.5-2,0.1-1.8-4.8c0.2-5.5,3.2-13.9,4.9-13.9c1.3,0,1.2,1.2-0.7,5.6c-1,2.4-1.2,4-0.6,4.2s0.8,1.9,0.5,4
	c-0.5,3.7-0.5,3.7,1.2,1.4c0.9-1.3,1.8-4,1.9-6c0.2-4,3-10.2,4.6-10.2c1.2,0,1.2,0.7,0,3c-0.5,1-1.2,3.7-1.5,6s-1,5-1.5,6.1
	c-2,3.8,3.8-0.5,7.7-5.6c2-2.7,4.1-5,4.5-5.2s0.8-0.9,0.8-1.6c0-2.4,3.1-7.6,4.6-7.6c0.8,0,1.4-0.4,1.4-0.8s1.1-2.1,2.5-3.7
	s3-4.2,3.6-5.9s2.2-5.3,3.5-8s2.6-7,2.8-9.5s1.1-7.1,1.9-10.3c0.9-3.6,1.2-7.1,0.7-9.2c-0.4-1.9-0.4-5.3,0-7.7s0.6-4.6,0.4-5
	s0-1,0.6-1.3s1-2.4,1-4.5s0.5-4.2,1-4.5c0.6-0.4,1,1,1,3.5c0,6.1,1.5,4.1,3-4.1c0.9-5,1-7.6,0.3-8.8c-1.3-2.2-1.6-19.2-0.3-19.2
	c0.5,0,1.4,1,1.9,2.2c0.7,1.6,0.8,0.6,0.5-3.6c-0.3-3.2-1.1-7.1-2-8.7s-1.5-3.3-1.5-3.9c0-1.5,2.7-1.3,3.4,0.2
	c1.4,3.3-2.3-13.8-4.2-19.2c-1.7-4.7-1.7-5.7,0-5.2c0.6,0.2,0.7-0.4,0.4-1.4c-0.4-0.9-1.1-3.8-1.7-6.3s-2.4-8.1-4-12.4
	c-4.7-12.1-6.5-14.4-7.1-8.4c-0.4,4.4-3.8,5.3-3.8,0.9c0-2.5-1.4-4.2-3.6-4.2c-0.2,0-0.3,2.1-0.2,4.7c0.2,3.7-0.1,4.8-1.4,5
	c-1.7,0.3-3.3-3.5-2.4-6c0.3-0.7,0.6-3.3,0.8-5.8c0.3-4.5,2.2-6.6,3-3.4c0.3,1,0.5-0.1,0.6-2.4s0.5-4.5,1.1-4.8
	c0.6-0.4,0.5-1.6-0.2-3.1c-1.1-2.5-1.2-2.5-1.9-0.5c-0.6,1.6-2.7,3-2.9,1.8c-1.2-7.8-1.2-8,0.5-7.4c1.5,0.6,1.5,0.3-0.1-2.5
	c-1-1.7-2.8-3.5-4-4s-2.2-1.4-2.2-2c0-1.8-4.2-9.9-5.2-9.9c-1.2,0-1,11.8,0.2,12.5c0.5,0.3,1-0.1,1-0.9c0-2,2.6-2,3.4,0
	c1.2,3.1,0.7,7.4-0.9,7.4c-0.9,0-1.5-0.9-1.5-2.2c0-2.7-1.3-1.6-1.5,1.4c-0.2,2.2-2.5,3.9-2.5,1.9c0-0.7-1-0.9-2.4-0.5
	c-2.9,0.7-4.2-2-2.7-5.7c0.8-2.1,1-2.2,1-0.4c0,1.1,1,2.6,2.1,3.3c2.4,1.5,2.5,0.7,0.5-4.2c-1.2-2.9-1.3-4-0.4-5.1
	c0.7-0.9,0.9-2.9,0.5-5.5c-0.8-4.7-2.4-7.4-4.6-7.4c-1.8,0-2.6-4.5-1-5.5c0.9-0.5,0.7-1.4-0.6-3.5c-1-1.5-2.4-4.8-3-7.4
	c-1-3.9-1.4-4.3-1.9-2.5c-0.9,3.1-3.3,3.7-4.4,1c-9.4-22.9-12.4-29.7-13.2-29.7c-0.5,0-0.9-0.5-0.9-1s-0.5-1.6-1.1-2.2
	s-1.9-2.7-3-4.4c-1.1-1.9-2.5-3-3.3-2.7c-0.9,0.3-3-2.3-6.2-7.5c-3.9-6.4-5.3-8-7.2-8c-1.3,0-2.6-0.7-2.9-1.8
	c-1.9-5.8-4.7-12.1-6.4-14.2l-2-2.5l0.7,2.8c0.6,2.6,0.4,2.8-1.7,2.5c-1.8-0.3-2.6-1.2-3.2-4.1c-0.7-2.8-1.4-3.8-2.9-3.8
	c-1.6,0-1.9-0.5-1.4-2.5s0.1-2.7-1.9-3.7c-2.5-1.2-3.4-2.8-1.5-2.8c0.6,0,1.6-0.6,2.4-1.2c1.1-1,0.8-1.5-1.6-2.5
	c-1.6-0.7-3.4-1-3.9-0.7c-1.4,0.9-4-1.7-3.4-3.4c0.3-0.8,0-1.8-0.6-2.2s-0.9-1.5-0.5-2.4c0.7-1.7,2.8-1.7,7,0
	c1.6,0.7,1.5,0.4-0.4-1.9c-1.3-1.5-3-2.7-3.9-2.7c-1.8,0-4.2-5.4-3.4-7.6c0.3-0.9,1.3-1.2,2.4-0.9c1.4,0.4,1.7,0.1,1.3-1.4
	c-0.3-1.1-1.2-2.5-1.9-3.2c-2.3-1.9-1.6-3.6,1.7-4.3l3.1-0.6l-0.4-6c-0.6-8.1-2.7-10.2-10.5-10.7c-6.6-0.4-10.6,1.2-11.1,4.4
	c-0.2,1.2-1,2.7-1.8,3.3c-2.1,1.8-1.8,3.2,0.5,2c1.1-0.6,3.3-1,5.1-1c4.7,0,3.6,3.2-1.4,4.2c-2.1,0.4-5.3,1.4-7,2.1
	c-15.5,6.5-32.5,9.8-39.6,7.5c-6.3-2-12.5-5.3-16.1-8.5c-2-1.7-4.8-3.5-6.3-3.9s-3-1.1-3.3-1.6s-3.3,2.6-6.7,6.9s-7,8.7-8,9.8
	s-2.8,3.8-3.9,6s-2.6,4.7-3.4,5.6c-1.2,1.4-2.3,5.8-2.8,11.4c-0.1,1.1-1.3,3.2-2.8,4.8c-2.7,2.8-4.2,7.4-2.8,8.3
	c0.4,0.3,0.4,1.8,0,3.4c-0.7,2.4-0.6,2.8,0.7,2.3s1.3-0.2,0.4,1.5c-0.6,1.1-1.1,3.5-1.1,5.2c0,3.1-1.3,3.8-3.8,2.2
	c-1.1-0.7-1.1-1.9,0.1-6.9s1.2-6.2,0.1-6.6s-1.1-1.2,0.1-4.6c0.8-2.3,1.8-4.6,2.2-5.3c0.4-0.7,0.9-2,1-2.9c1-6.5,15.1-29.3,24.1-39
	c5.9-6.3,7.4-9.8,7.1-15.9c-0.1-1.4-0.1-3.2-0.2-4c0-0.8-1.4-3.2-3-5.2c-2.2-2.8-4.3-4.1-8.4-5.3c-4-1.2-5.3-2-4.9-3
	c0.4-1.1-0.2-1.4-2.7-1.2c-1.8,0.1-4.4-0.2-5.7-0.7s-3.3-0.7-4.2-0.6s-1.8-0.2-1.8-0.7c0-1.6,8.9-13.2,10.1-13.2
	c0.6,0,2.6-1.3,4.4-2.9s6.5-4.1,10.4-5.7s7.1-3.1,7.1-3.6s2.8-2.8,6.2-5.4c6.1-4.6,11-7.1,15.2-7.9c1.2-0.2,4.4-1.2,7.1-2.1
	s9-2.5,13.9-3.5c8.1-1.6,9.8-1.6,19.3-0.3c6.4,0.9,11.7,2.2,13.6,3.4c1.8,1.1,4,2,5,2c2.4,0,5.8,2,8.2,5c2.1,2.5,3,3.5,8.2,8.2
	c2.7,2.5,8.3,11.8,8.3,13.9c0,0.5,2.5,4.7,5.5,9.4s5.4,8.8,5.3,9.2c-0.3,1.1,7.5,17.9,12.5,26.5c1.5,2.7,2.8,5.4,2.8,6.2
	s0.4,1.5,0.9,1.7c0.8,0.3,12.1,18.6,12.1,19.6c0,0.7,9.2,15.6,11.6,18.8c2.6,3.4,13.4,24.5,13.4,26c0,0.6,1.3,2.5,2.9,4.2
	s2.7,3.4,2.4,3.6s1.9,5.3,4.8,11.3s5.6,12.2,6,13.8c1.1,4.1,5,15.6,6,17.7c0.5,1,0.9,2.6,0.9,3.8c0,2.8,3.9,10.5,8.5,17.1
	c4.4,6.2,6,8.8,8.6,14.1c1,2,2.3,4,2.8,4.3s1.9,2.3,2.9,4.3c4.4,8.7,15.5,28.8,16.6,30.2c1.5,1.8,4.9,9.4,7.5,16.5
	c1,2.8,2.8,7.5,4,10.5s3.5,9.1,5,13.5s3.4,9.6,4.1,11.5c4.6,12.5,6,16.7,6,17.9c0,0.7,1.1,3.6,2.5,6.3c3,5.9,3,6.2,0.8,8.8
	c-3.7,4.4-6.8,1.8-13.2-10.8c-3.7-7.3-7.1-13.8-12.5-23.7c-2.8-5.2-12.6-26.3-12.6-27.2c0-0.5-1.1-2.5-2.5-4.5s-2.5-4.3-2.5-5
	s-2.7-5.8-6-11.3s-6-10.5-6-11s-1.9-2.8-4.1-5c-3.2-3.1-4-3.5-3.5-1.8c0.4,1.2,0.8,3.2,1.1,4.4c0.6,3.3,3.8,11.4,4.7,12
	c0.4,0.3,1,3.4,1.3,6.9c0.3,3.6,1.1,7,2,8c0.8,0.9,1.5,2.5,1.5,3.6s0.3,3.3,0.7,4.9c0.5,2.1,0.4,2.7-0.4,2.2c-0.9-0.5-0.9,0,0,2.1
	c0.6,1.5,1.2,8.7,1.3,15.9s0.6,13.6,1,14.3c1,1.7-0.4,12-1.9,13.5c-0.7,0.7-0.9,2-0.5,3.2c0.9,2.4,0,18.6-1.1,20
	c-1.3,1.6-3.7,13.3-4.4,21.5c-0.4,4.1-1.3,8.2-2,9s-1.8,3.2-2.3,5.2c-0.9,3.5-0.9,3.7,0.8,2.8c1-0.5,3.2-1,4.8-1s4.4-0.7,6.2-1.7
	c2.9-1.4,4.3-1.5,10.9-0.5c4.2,0.6,12.6,1.4,18.7,1.7c10,0.5,11.7,0.3,17.5-1.8c5.2-1.9,7.1-2.2,10.1-1.4c4.8,1.2,5,3.2,0.3,2.3
	c-2.3-0.4-4.2-0.2-5.8,0.8c-4.5,2.9-12.1,3.8-21.8,2.6c-8.5-1.1-9.3-1-13.5,0.9c-4.8,2.2-9,2.8-7.9,1c0.4-0.6,1.6-1.5,2.8-2
	c1.5-0.6,0.8-0.7-2.4-0.3c-3.3,0.4-4.1,0.3-3-0.5c1.2-0.8,0.7-1.1-2-1c-3.3,0-3.4,0.1-1.6,1.5c2.5,1.9,1.5,2.8-1.7,1.6
	c-1.4-0.5-2.8-0.7-3.2-0.3s-2.6,0.7-5,0.7c-5.3,0.1-5.5,0.2-6.2,5.2c-0.3,2.1-1.4,5.1-2.5,6.5s-1.9,3.2-1.9,3.9
	c0,2-4.2,10.3-5.7,11.2c-0.7,0.4-1.3,1.3-1.3,1.9s-1.1,2.1-2.5,3.4s-2.5,3.4-2.5,4.9c0,1.8-0.5,2.6-1.8,2.6c-1,0-2.8,1.6-4.1,3.6
	c-2.6,4-2.4,5.4,0.3,2.4c1.7-1.8,4.5-2.8,4.5-1.4c0,1.2-7.5,9.4-8.6,9.4c-1.5,0-12,10.5-12.2,12.2c-0.1,0.7-0.4,3.1-0.8,5.4
	c-0.5,2.9-0.3,4.5,0.8,5.5c0.8,0.8,2,3.1,2.6,5s2.5,4.9,4.1,6.5c1.6,1.6,3,3.4,3,3.9c0,1.4,6.9,8.1,7.8,7.5
	c1.5-0.9,4.5,6.2,4.5,10.7c0,5.2-2.6,11.9-4.8,12.8c-2.1,0.8-2.5,0.1-3.1-4.5c-0.3-2.4-1.5-4.9-2.9-6.3c-1.3-1.2-2.4-2.8-2.4-3.6
	c0-2-7.3-1.7-12.3,0.6c-2.3,1-5,2.2-6,2.5s-1.8,1.4-1.8,2.5s-0.6,2.4-1.3,3c-0.7,0.6-1.2,2.3-0.9,3.9c0.3,2.2-0.2,3.2-2.4,4.8
	C303.8,550.6,301.5,551.4,300.2,551.2L300.2,551.2z M302.8,541.8c-0.1-4.1,0.3-6.9,1.7-11.4c0.5-1.7,0.1-2.2-2-2.8
	c-1.4-0.4-3-0.4-3.5-0.1c-2,1.3-0.4,13.9,2.2,17.3C302.8,546.6,302.9,546.3,302.8,541.8L302.8,541.8z M266,533.4
	c0.8-0.6,2.6-1.5,4-1.8c5.2-1.3,5.8-2.4,2.5-5.1c-3.4-2.8-5.5-3.2-5.5-1.1c0,0.8-0.8,2-1.8,2.8c-1.8,1.3-6.2,7.1-6.2,8.2
	C259,537.1,264,535,266,533.4z M337.8,529.4c-1.4-2.9-6.2-5.5-5.2-2.8c0.3,0.8,0.9,1.2,1.4,0.9c1.1-0.7,3.9,3.5,4.1,6
	c0.1,1.6,0.2,1.7,0.6,0.3C338.9,532.8,338.5,530.9,337.8,529.4L337.8,529.4z M173.1,530.8c1.6-1.8,2.9-3.7,2.9-4.3s1.5-2.5,3.3-4.3
	c3.9-3.7,8.9-5.6,10.6-3.8c0.7,0.7,4.2,1,9.4,0.9c6.1-0.2,9.6,0.2,13.6,1.7c5.3,1.9,5.5,1.9,8.5,0c1.7-1,4.1-1.9,5.3-1.9
	s2.4-0.4,2.7-0.9c1.2-1.9-0.8-10.4-3-13c-1.2-1.5-2.4-4-2.6-5.6c-0.3-2.7-0.8-3-4.8-3.6c-2.5-0.3-5.4-0.3-6.5,0
	c-1.3,0.4,0,0.8,3.4,1.1c3.1,0.3,5.6,1,5.8,1.8c0.2,0.7-0.5,1.2-1.7,1.2c-2.5,0-2.7,1.3-0.5,3.1c0.9,0.7,1.4,2.1,1.1,3
	c-0.3,1.2,0.1,1.6,1.2,1.3c2.3-0.6,4.5,4.1,3.1,6.7c-1.4,2.5-3.8,1.5-4.2-1.9c-0.2-1.9-1-2.8-2.6-3c-2.8-0.4-4-3-2.1-4.3
	c2.1-1.3-0.3-1.1-3.4,0.3c-1.5,0.7-2.7,1.8-2.7,2.5s-0.7,1.2-1.5,1.2s-3.2,1.1-5.3,2.5c-2.3,1.5-4.5,2.3-5.5,1.9
	c-1.1-0.4-2.6,0.2-4.2,1.6c-3.8,3.6-3.7,1.9,0.2-2.3c1.9-2.1,4-3.7,4.7-3.5s2.6-0.7,4.3-1.9s4.3-2.7,5.8-3.2s2.9-1.7,3.2-2.4
	c0.8-2-3.1-5.6-6.2-5.6c-1.4,0-3.4-0.4-4.4-1c-1.5-0.8-2-0.5-3,2c-1.1,2.7-1.5,2.9-5.4,2.4c-2.7-0.4-5.3,0-7.6,1.1
	c-2.4,1.1-2.7,1.5-1.1,1.1c2.5-0.5,5.1,0.8,5.1,2.6c0,0.5-1,0.9-2.2,0.8c-3.8-0.3-4.8,0-4.8,1.5c0,1.3-3.6,2.1-7.1,1.7
	c-0.4,0-0.4,0.7-0.2,1.7c0.6,2.1-3,3.5-5.6,2.2c-0.9-0.5-2.5-0.5-3.6,0c-2.8,1.1-5.7,1.1-5,0c0.6-0.9-1.5-0.8-8.1,0.5
	c-1.3,0.3-2.1,1.1-2,2.2c0.1,1.4-0.9,1.9-4.4,2.4c-2.5,0.3-5.9,1.2-7.5,1.8c-2.9,1.2-2.9,1.3-1.1,2.7c3.2,2.3,8.3,1.8,10.2-1.1
	c1.4-2.2,2.4-2.5,7.1-2.5c6.2,0,10.7,1.9,14.6,6.2c3.3,3.7,3.4,5,0.6,6.3c-2.7,1.2-3.6,3.5-1.3,3.5
	C169.4,534,171.4,532.6,173.1,530.8L173.1,530.8z M227.4,531.4c0.6-1.5-0.1-7.9-1.1-9.6c-0.8-1.4-3.5,0.6-4.8,3.6
	c-1.2,2.8-1.1,3.4,0.7,5.4C224.7,533.4,226.6,533.6,227.4,531.4L227.4,531.4z M291,525.5c3.6-2.7,6.6-3.4,5.4-1.2
	c-0.5,0.8-0.2,0.8,1-0.1c1.1-0.9,3.1-1.2,5.7-0.8c3.7,0.5,4,0.3,4.6-2.1c1-4.6,1.4-5.3,2.4-4.7c0.6,0.3,1,0.3,1.1-0.2
	s0.2-1.9,0.3-3.2c0.3-3-1.6-8.7-3.8-11.2c-0.9-1.1-2.7-1.9-3.9-1.8s-1.7,0.3-1,0.6s1.2,1.1,1.2,1.9s0.5,1.4,1,1.4s1,0.4,1,1
	c0,1.5-4.6,2.3-6.6,1.2c-2.3-1.3-9.2,2.3-10.4,5.4c-1,2.7-4.2,4.7-6.2,3.9c-1.6-0.6-8.3,2-9.3,3.6c-0.4,0.6,1,2.6,3.1,4.5
	c4.2,3.8,4.5,4,4.5,2.1c0-2.2,4-6.6,6-6.6c1,0,2.5-0.8,3.2-1.8c1.5-1.9,5.2-4.2,6.9-4.2c0.6,0,1.8-0.7,2.6-1.5
	c2.3-2.3,2.5-1.2,0.4,2.9c-2,3.9-9.9,10.9-11.3,10c-0.5-0.3-0.3-1.3,0.4-2.2s-0.2-0.3-2,1.3c-2.3,2.1-2.9,3.2-2,3.7
	C287.1,528.3,287.3,528.3,291,525.5L291,525.5z M318,521.8c0-1-0.9-2.7-1.9-3.7c-2.2-2.2-2.3-2-3.6,5.3l-0.7,3.9l3.1-1.9
	C316.6,524.4,318,522.8,318,521.8L318,521.8z M326.5,523.9c-1.4-1.6-1.6-2.4-0.8-3.8c0.9-1.4,0.5-2.4-1.8-5.2
	c-1.6-1.9-2.9-3.9-2.9-4.5s-1.2-3.4-2.6-6.3c-2-4.1-3.1-5.2-4.9-5.2c-2.2,0-2.3,0.1-0.9,2.8c0.8,1.5,1.4,3.3,1.4,4
	c0,2,4.9,11.2,6,11.2c0.5,0,1,0.8,1,1.8s0.7,2.7,1.5,3.9s1.2,2.4,0.8,2.7s0.6,0.6,2.2,0.6C328.3,526,328.3,526,326.5,523.9
	L326.5,523.9z M166.8,508.1c0.3-1-0.1-1-1.6-0.1c-3,1.6-3.8,3.2-1,2.2C165.4,509.7,166.6,508.7,166.8,508.1L166.8,508.1z M172.5,509
	c0.4-0.6-0.1-0.7-0.9-0.4c-1.7,0.7-2,1.4-0.6,1.4C171.5,510,172.2,509.6,172.5,509L172.5,509z M178,505c0-1.3-3-1.3-5,0
	c-1.1,0.7-0.7,1,1.8,1C176.5,506,178,505.5,178,505z M216.7,499.4c-0.3-0.3-1.2-0.4-1.9-0.1c-0.8,0.3-0.6,0.6,0.6,0.6
	C216.5,500,217.1,499.7,216.7,499.4L216.7,499.4z M293.7,497.8c-0.3-0.8-0.6-0.6-0.6,0.6c0,1.1,0.2,1.6,0.5,1.3
	S294,498.5,293.7,497.8L293.7,497.8z M300.5,497c0.3-0.5,0.1-1-0.4-1s-1.1,0.5-1.1,1s0.2,1,0.4,1S300.2,497.5,300.5,497z
	 M260.8,494.5c0.1-1.7-0.3-2.5-1.4-2.5c-1,0-1.4,0.5-1,1.6c0.3,0.9,0.6,2,0.6,2.5C259,498.2,260.6,496.8,260.8,494.5z M235,495
	c0-0.5-0.7-1-1.5-1s-1.5,0.5-1.5,1s0.7,1,1.5,1S235,495.5,235,495z M311.4,494c-2.2-0.8-2.9-0.5-2,0.9c0.3,0.6,1.4,0.7,2.3,0.4
	C313.2,494.7,313.1,494.6,311.4,494L311.4,494z M288,493c0-0.5-0.7-1-1.5-1s-1.5,0.5-1.5,1s0.7,1,1.5,1S288,493.6,288,493z
	 M266.4,492.1c0.3-0.5-0.1-1.1-0.9-1.4c-1-0.4-1.3-0.1-0.9,0.9C265.3,493.2,265.7,493.3,266.4,492.1z M276.1,487.9
	c-0.5-1.3-1-1.9-1-1.2c-0.1,1.6,1.1,4.5,1.6,4C276.9,490.5,276.6,489.2,276.1,487.9L276.1,487.9z M209,486.8c0-1.8-0.2-2-1-0.8
	c-1.3,1.9-1.3,3,0,3C208.6,489,209,488,209,486.8z M241.5,488.1c-0.3-0.5-0.1-1.2,0.4-1.6s1-0.2,1,0.4s0.5,1.1,1,1.1
	c0.6,0,0.5-0.8-0.2-2c-0.7-1.1-1.8-2-2.5-2s-1.7-1.1-2.2-2.5c-1.2-3-4.1-3.5-3.3-0.5c0.6,2.4-0.9,2.6-2.7,0.5
	c-1.8-2.2-3.2-1.8-2,0.5c0.6,1.1,1.8,2,2.6,2c1,0,1.4,0.6,1,1.5c-0.3,0.8-0.1,1.7,0.4,2.1s1-0.6,1-2c0-3.4,1.1-3.2,3.2,0.4
	c0.9,1.6,2,3,2.3,3S241.9,488.6,241.5,488.1L241.5,488.1z M251.8,486.2c0.4-2.7,3.2-5.3,3.2-2.9c0,0.9,0.4,1.8,1,2.2
	c2.3,1.4,0.8-1.8-2.2-4.9c-3.9-4-6-3.8-4.7,0.5c0.6,2.1,0.4,3.3-0.5,4.3c-1,1-1.1,1.6-0.2,2.5C249.9,489.5,251.4,488.7,251.8,486.2
	L251.8,486.2z M226,487.6c0-0.2-0.4-0.7-1-1.1s-1-0.1-1,0.4s0.4,1.1,1,1.1S226,487.8,226,487.6z M308.2,486.3
	c3.1-3.6,3.1-4.7,0.1-2.2c-1.7,1.4-3.2,2.8-3.2,3.2C305,488.6,306.7,488,308.2,486.3L308.2,486.3z M262.5,485.1
	c-0.4-0.6-1.1-1.1-1.7-1.1c-0.7,0-0.6,0.6,0.2,1.5C262.4,487.2,263.6,486.8,262.5,485.1L262.5,485.1z M212.1,480.4
	c-2.3-3.9-2.6-4.9-1.2-4c0.5,0.3,1.1-0.5,1.5-1.7c0.4-1.4,0-2.5-0.9-3c-0.8-0.5-1.5-1.5-1.5-2.4c0-1.3,0.3-1.3,1.5-0.3
	c0.8,0.7,1.7,1,2,0.8c0.9-0.9-0.7-3.8-2.2-3.8c-1.6,0-1.9-1.7-0.3-2.2c0.7-0.2,0.5-1.6-0.8-4c-1.8-3.6-3.9-4.4-5.7-2.3
	c-0.5,0.6-0.6,0-0.3-1.2c0.3-1.5,0-2.2-1-2.2c-1.1,0-1.3,0.8-0.8,3.8c0.9,5.2,2.4,7.9,3.4,6.3c1.3-2.1,2.9-0.1,2.8,3.3
	c-0.1,1.8,0.4,4.2,1,5.4c0.9,1.8,0.9,2.3-0.5,3.1c-1.1,0.6-1.3,1.1-0.5,1.6c0.6,0.4,1.1,1.5,1.1,2.6s0.8,2.4,1.8,2.9
	C214.4,484.4,214.4,484.3,212.1,480.4L212.1,480.4z M205.6,460.3c-0.5-1.4-0.4-1.5,0.6-0.6c0.7,0.7,1,1.5,0.7,1.8
	S205.9,461.3,205.6,460.3L205.6,460.3z M174.5,482c-0.3-0.5-1.3-1-2.1-1s-1.4-0.5-1.4-1.2s-0.2-0.9-0.5-0.6
	c-1.1,1.1,0.8,3.8,2.7,3.8C174.2,483,174.8,482.5,174.5,482L174.5,482z M193,482c-0.8-0.5-1.9-1-2.5-1s-0.3,0.4,0.5,1s1.9,1,2.5,1
	S193.8,482.5,193,482z M228,481.1c0-1-0.9-2.1-2-2.4c-1.8-0.5-1.9-0.4-0.4,1.9C227.6,483.5,228,483.6,228,481.1L228,481.1z
	 M257.8,480.5c-0.6-1.4-1.5-2.5-1.9-2.5s-1.1-0.9-1.4-2.1s-0.9-1.8-1.2-1.5c-0.6,0.6,4.3,8.6,5.2,8.6
	C258.8,483,258.4,481.9,257.8,480.5z M178.6,477.2c-1.7-1.6-1.7-1.6-0.5,0.5c0.7,1.2,1.5,2,1.8,1.7S179.6,478.2,178.6,477.2
	L178.6,477.2z M222.3,479.4c0.8-0.8-1.7-3.4-3.2-3.4c-0.8,0-0.8,0.6,0,2C220.1,480,221.2,480.5,222.3,479.4L222.3,479.4z
	 M192.9,476.7c-1.7-3.3-1.9-3.3-1.9-0.4c0,1.7,0.5,2.7,1.5,2.7C193.8,479,193.9,478.6,192.9,476.7L192.9,476.7z M199.4,476
	c0.7,0,1.8,0.5,2.4,1.2c0.9,0.9,1.2,0.9,1.2,0c0-0.7-0.4-1.2-1-1.2s-1.3-1.1-1.6-2.4s-1.2-2.7-2-3s-2.5-2.8-3.9-5.5
	c-2.6-5.2-3.2-7.6-1.6-6.6c0.5,0.3,1.1-0.1,1.5-0.9c0.5-1.2,0.1-1.3-1.9-0.3c-3.1,1.4-3.1,2.8,0.2,10.8c4.2,10.3,4.8,11.6,5.2,9.7
	C198,476.7,198.7,476,199.4,476L199.4,476z M331.5,475.2c-0.3-0.3-1.1,0-1.8,0.7c-1,1-0.9,1.1,0.6,0.6
	C331.3,476.1,331.8,475.5,331.5,475.2L331.5,475.2z M172.9,472.8c-1.4-2-2.4-2.7-2.7-1.9c-0.2,0.7,0.6,2.1,1.9,3.2
	C175.4,476.6,175.5,476.5,172.9,472.8L172.9,472.8z M187,475.6c0-0.2-0.4-0.7-1-1.1s-1-0.1-1,0.4s0.4,1.1,1,1.1S187,475.8,187,475.6
	z M207.3,473.5c-0.3-0.8-0.8-1.3-1.1-1.1s-0.2,1,0.2,1.5C207.4,475.5,208,475.2,207.3,473.5L207.3,473.5z M233.1,466.7
	c-1.3-1.3-1.5,1.1-0.3,4c0.7,1.6,0.8,1.5,1.1-0.5C234,468.8,233.7,467.3,233.1,466.7L233.1,466.7z M184.7,466.1
	c-0.6-2.4-1.8-4.1-2.9-4.4c-1-0.3-1.8-1.2-1.8-2.1s-0.4-1.4-1-1.1s-1.6-1-2.4-2.9c-1.1-2.7-2.1-3.5-4-3.5c-1.4,0-2.6,0.5-2.6,1
	s-0.9,1-2,1c-1.9,0-1.9,0.2,0.6,4c1.5,2.2,3,4,3.5,4s2.3,1.5,4,3.2s2.7,2.6,2.1,1.7c-1.3-1.8-0.5-6.2,1.1-5.7c0.6,0.2,1.5,1.7,2,3.3
	C183.3,470.8,186.3,472.1,184.7,466.1L184.7,466.1z M173.5,460c-0.4-1.1-1.1-1.8-1.6-1.4s-0.9,0.1-0.9-0.4c0-1,3.9-2.7,4.4-2
	c0.2,0.2,0.6,1.6,0.9,3.1c0.5,2,0.3,2.8-0.8,2.8C174.8,462,173.8,461.1,173.5,460L173.5,460z M172,467c0-0.5-0.2-1-0.4-1
	s-0.7,0.5-1.1,1s-0.1,1,0.4,1S172,467.5,172,467z M200.1,463.7c-1-1-1.1-0.9-0.6,0.6c0.4,1,0.9,1.5,1.2,1.2S200.8,464.4,200.1,463.7
	L200.1,463.7z M169.8,463c-0.7-1.1-1.4-1.8-1.5-1.6c-0.6,0.6,1,3.6,1.9,3.6C170.6,465,170.5,464.1,169.8,463L169.8,463z
	 M187.7,460.2c-0.7-4.1,0.5-6.9,2.3-5.8c0.8,0.5,0.7-0.4-0.2-2.6c-0.7-1.8-1.9-3.3-2.5-3.3c-1.9,0-3.7-2.4-4.9-6.8
	c-0.7-2.7-1.2-3.4-1.2-1.9c-0.1,1.3-0.8,2.5-1.6,2.9s-1.2,1-0.8,1.6s0.2,0.7-0.6,0.3c-0.8-0.5-1-1.8-0.6-3.4c0.5-2,0.4-2.3-0.4-1.1
	c-0.7,1-1,1.1-1,0.2c0-0.7-0.5-1.2-1-1.2c-1.2,0-0.2,8,1.1,9.5c0.5,0.6,0.9,0.5,0.9-0.2s0.7-1.2,1.5-1.2s1.5,0.9,1.5,1.9
	c0,3.1,2,3.5,2.1,0.4c0.1-2.4,0.2-2.5,0.6-0.5c0.2,1.2,0.8,2,1.4,1.7s0.7,0.1,0.4,0.9s-0.1,1.7,0.5,2.1c1.8,1.1,1.3,6.3-0.7,6.9
	c-1.5,0.4-1.4,0.6,0.5,1.2c1.2,0.4,2.2,1.1,2.2,1.6s0.3,0.9,0.6,0.9S188,462.3,187.7,460.2L187.7,460.2z M164.1,460.7
	c-1-1-1.1-0.9-0.6,0.6c0.4,1,0.9,1.5,1.2,1.2S164.8,461.4,164.1,460.7L164.1,460.7z M259.5,459c0.3-0.5,0.1-1-0.4-1s-1.1,0.5-1.1,1
	s0.2,1,0.4,1S259.2,459.5,259.5,459z M182.2,455.1c-0.7-2-1-2.1-2.2-0.7c-1.1,1.3-1.1,1.6,0.3,1.6c0.9,0,1.7,0.8,1.7,1.8
	s0.3,1.3,0.5,0.7S182.7,456.3,182.2,455.1L182.2,455.1z M158.5,454.2c-0.2-2.1-0.4-4.2-0.5-4.8s-0.5-0.4-1,0.4
	c-1.2,1.9-3.6,0-5.1-4.3c-0.6-1.7-2.1-3.9-3.4-4.8c-2.2-1.6-2.2-1.6-1.8,0.8c0.3,1.4,1.2,3,2.2,3.7s2,1.9,2.4,2.7s1.3,2.4,2,3.5
	s1.8,3,2.5,4.2C157.7,459.1,158.9,458.5,158.5,454.2L158.5,454.2z M165,454.9c-0.6-1.1-0.8-2.4-0.5-2.9s0.1-1.2-0.5-1.6
	s-3.3-3.3-6-6.6s-5-5.6-5-5.1s0.9,1.7,2,2.7c1.5,1.3,1.7,2.1,0.9,3.1c-1.2,1.5-0.3,3.7,1.2,2.8c1.2-0.7,4.9,2.4,4.9,4.2
	c0,2.5,2,6.5,3,5.9C165.7,457.1,165.7,456.2,165,454.9L165,454.9z M204.3,447.4c0.6-3.7,0-6.4-1.3-6.4c-1,0-2.1,6.7-1.4,8.6
	C202.6,452,203.7,451.1,204.3,447.4L204.3,447.4z M164,446.6c0-0.2-0.8-1-1.8-1.8c-1.6-1.2-1.6-1.2-0.4,0.4
	C163.2,446.9,164,447.4,164,446.6L164,446.6z M188.6,440.4c-0.4-0.9-0.9-1.5-1.1-1.2s-0.2,1.3,0.1,2.2s0.9,1.5,1.1,1.2
	S189,441.3,188.6,440.4z M172.6,434.4c-0.7-1.7-4.6-1.9-4.6-0.2c0,0.7,1,2.8,2.2,4.8l2.2,3.5l0.3-3.3
	C173,437.3,172.9,435.2,172.6,434.4L172.6,434.4z M165.7,430.8c-0.3-0.8-0.6-0.6-0.6,0.6c0,1.1,0.2,1.6,0.5,1.3
	S166,431.5,165.7,430.8L165.7,430.8z M135,410c-0.6-1.1-1.2-2-1.4-2s-0.1,0.9,0.2,2s0.9,2,1.4,2S135.6,411.1,135,410L135,410z
	 M362.7,395.8c-0.3-0.8-0.6-0.6-0.6,0.6c0,1.1,0.2,1.6,0.5,1.3S363,396.5,362.7,395.8L362.7,395.8z M127.7,382.8
	c-0.2-1.2-0.4-0.5-0.5,1.7s0.2,3.2,0.4,2.3S127.9,384,127.7,382.8z M125.6,382c-0.1-1.6-0.7-3.5-1.4-4.2s-1.2-1.8-1.2-2.5
	c0-1.4-1.2-1.7-2.3-0.7c-0.5,0.5,4.1,10.4,4.9,10.4C125.7,385,125.7,383.7,125.6,382L125.6,382z M390.4,294.2
	c-0.4-1.5-1.9-5-3.4-7.8c-6.3-11.5-12-21.3-15.2-26c-1.9-2.8-5.5-9.3-8.2-14.6s-6-10.9-7.5-12.5s-3.7-5-4.9-7.5s-3.1-5.4-4.3-6.4
	s-4.2-5.7-6.8-10.3c-7.4-13.3-7.6-13.6-11.5-18.2c-2-2.4-3.7-4.7-3.7-5.1s-0.6-0.6-1.3-0.3c-0.8,0.3-4.4-3.6-9.5-10.5
	c-4.5-6.1-9.1-11.5-10.2-12.1s-1.8-1.7-1.6-2.4c0.6-1.6,0.2-2-5.8-7.6c-4.2-3.9-4.7-4.1-3.1-1.5c1,1.6,2.6,3.9,3.5,5
	s4.3,5.8,7.6,10.5s8.6,11.9,12,16c7,8.5,12.4,16,14.4,19.9c0.8,1.5,2.6,4,4.1,5.7s3.7,5.2,4.9,7.8s2.7,4.6,3.1,4.6s2,2.1,3.4,4.8
	c5.9,11,9.2,16.3,10.7,17.5c1.8,1.3,7.1,10,11.2,18.1c1.3,2.7,3.5,6,4.9,7.5c2.7,3,8.1,11.8,12.2,20.1
	C389.5,297.1,391.6,299.3,390.4,294.2L390.4,294.2z M350.1,275.9c-0.5-1.3-1-1.9-1-1.2c-0.1,1.6,1.1,4.5,1.6,4
	C350.9,278.5,350.6,277.2,350.1,275.9L350.1,275.9z M349,263.2c0-0.4-0.7-1.7-1.5-2.8c-1.4-1.8-1.4-1.7-0.3,0.8
	C348.3,264,349,264.7,349,263.2L349,263.2z M357.3,251.5c-0.3-0.8-0.8-1.3-1.1-1.1s-0.2,1,0.2,1.5
	C357.4,253.5,358,253.2,357.3,251.5L357.3,251.5z M342,251.2c-0.1-1.5-3-4.6-3.6-3.9c-0.4,0.4,0.1,1.6,1.1,2.7
	C341.4,252.1,342,252.4,342,251.2L342,251.2z M354.4,246.5c-0.9-1.4-1.8-2.5-2.1-2.5c-0.5,0,0.5,1.8,2,3.8
	C356,250,356.1,249.1,354.4,246.5L354.4,246.5z M349,238c-0.6-1.1-1.3-2-1.6-2s0,0.9,0.6,2s1.3,2,1.6,2S349.6,239.1,349,238z
	 M342,226c-0.6-1.1-1.3-2-1.6-2s0,0.9,0.6,2s1.3,2,1.6,2S342.6,227.1,342,226z M106.1,219.2c1.2-1.6,1.2-1.6-0.4-0.4
	c-1.7,1.3-2.2,2.1-1.4,2.1C104.6,221,105.4,220.2,106.1,219.2L106.1,219.2z M113,212.5c0-0.8-0.7-1.5-1.5-1.5s-1.5,0.7-1.5,1.5
	s0.7,1.5,1.5,1.5S113,213.3,113,212.5z M117.7,161.8c-0.3-0.8-0.6-0.6-0.6,0.6c0,1.1,0.2,1.6,0.5,1.3S118,162.5,117.7,161.8
	L117.7,161.8z M277.7,144.9c0.1-1.1-0.5-2.3-1.3-2.6c-2.4-0.9-2.9,0.5-0.9,2.7C277.7,147.4,277.5,147.4,277.7,144.9L277.7,144.9z
	 M313,135.6c0-0.2-0.7-0.9-1.5-1.6c-1.3-1.1-1.4-1-0.9,0.4C311.1,135.8,313,136.7,313,135.6L313,135.6z M258.3,96
	c-0.6-2.2-2.3-3.8-2.3-2.1c0,1.7,1.2,4.1,2,4.1C258.5,98,258.6,97.1,258.3,96z M204.8,62.3c-1-0.3-2.5-0.3-3.5,0s-0.2,0.5,1.8,0.5
	S205.7,62.6,204.8,62.3z M201.9,57.4c0.2-0.2-1.1-0.4-3.1-0.4s-4.6-0.9-6.1-2c-1.9-1.5-3.4-1.8-5.6-1.4c-1.8,0.4-3.7,0.1-4.5-0.5
	s-2.1-0.9-3-0.5c-1.4,0.6-1.4,0.8,0,3c1.2,1.8,2.7,2.4,6.2,2.7C190.9,58.7,201.2,58.2,201.9,57.4L201.9,57.4z M168.7,56.4
	c-0.3-0.3-1.2-0.4-1.9-0.1c-0.8,0.3-0.6,0.6,0.6,0.6C168.5,57,169.1,56.7,168.7,56.4L168.7,56.4z M162,51.1c3-0.4,8.4-1.6,11.9-2.5
	s7.7-1.5,9.2-1.2s2.9,0.2,2.9-0.3s1.8-0.6,4-0.3c3.5,0.5,4,0.3,4-1.5c0-2.5-0.9-2.8-8-3.2c-3-0.1-5.8-0.4-6.2-0.7s-2.6,0.1-5,0.7
	s-7.2,1.7-10.8,2.4s-7.8,1.8-9.5,2.5c-3.5,1.4-9.5,5.8-9.5,7c0,0.4,2.6,0.2,5.8-0.6S159,51.5,162,51.1L162,51.1z M148.3,46
	c8.6-5.5,12.5-7,17.4-7c4.2,0,4.8-0.3,4.8-2.1c0-1.7-0.5-2-2.5-1.5c-6.5,1.5-15.9,4.9-15.4,5.7c0.3,0.5-0.2,0.6-1,0.3
	c-0.9-0.3-3.1,0.9-5.4,3c-2.2,2-4.2,3.3-4.6,2.9s-0.6-0.1-0.6,0.5C141,49.8,143.3,49.2,148.3,46L148.3,46z M222.3,45.1
	c2.6-4.5,0.7-8.7-5.1-11.1c-3.9-1.6-8.1,1.4-8.2,5.7c0,4,2.2,7.3,5.4,8.1C218.6,48.9,220.4,48.3,222.3,45.1L222.3,45.1z M214.3,43.8
	c-4.1-2-1.9-7.3,2.8-6.6c3.6,0.5,4.6,3.2,2.1,5.7c-1.2,1.2-2.3,2.1-2.4,2.1S215.5,44.4,214.3,43.8L214.3,43.8z M176.5,35
	c0.3-0.5,0.1-1-0.4-1s-1.1,0.5-1.1,1s0.2,1,0.4,1S176.2,35.5,176.5,35z M256.3,34.5c-0.3-0.8-0.8-1.3-1.1-1.1s-0.2,1,0.2,1.5
	C256.4,36.5,257,36.2,256.3,34.5L256.3,34.5z M194.5,29.2c-0.3-0.3-1.1,0-1.8,0.7c-1,1-0.9,1.1,0.6,0.6
	C194.3,30.1,194.8,29.5,194.5,29.2L194.5,29.2z M188.4,26.5c1.1-0.8,2.6-1.5,3.3-1.5s2.5-0.9,3.9-2s3.6-2,4.9-2s2.4-0.5,2.4-1
	s1.2-1,2.8-1s5-0.7,7.8-1.4l5-1.4l-6.1-0.1c-3.9,0-6.8,0.5-8,1.4c-1.3,0.9-3.1,1.3-5.2,0.9c-1.8-0.3-3.8-0.2-4.5,0.4
	s-3.9,1.7-7.2,2.7c-7.9,2.3-10.9,3.5-10.2,4.3c0.3,0.3,1.2,0.1,1.9-0.5c0.9-0.8,2-0.6,3.8,0.8C186,28.3,186,28.3,188.4,26.5
	L188.4,26.5z M225.8,16.3c-1-0.3-2.8-0.3-4,0c-1.2,0.3-0.5,0.4,1.7,0.5S226.7,16.6,225.8,16.3z M122,545.5c-1.4-0.8-3.5-1.2-4.7-0.9
	c-2.8,0.7-6-0.3-6.7-2.1c-0.4-1.1,0.6-1.3,5.2-0.8c5.3,0.5,5.5,0.4,3.7-1c-3.4-2.6-0.9-3,5.6-0.8c3.4,1.2,7.1,2.1,8.1,2.1
	s1.8,0.5,1.8,1c0,1.3-4.5,1.3-9,0l-3.5-1l2.2,1.9C128.6,547.1,126.8,548.2,122,545.5L122,545.5z M82,543.5c0-0.2,2.1-1.4,4.7-2.5
	c3.7-1.6,6.3-2,12.2-1.8c10.7,0.4,10.7,2.5-0.1,2.7c-4.6,0-9.9,0.5-11.8,1.1C83.2,544.1,82,544.2,82,543.5L82,543.5z M356,500.9
	c0-0.7,2-1,5.3-0.8c2.9,0.1,6-0.1,6.8-0.6c1.2-0.7,1.2-0.6,0.1,0.8C366.6,502.2,356,502.8,356,500.9L356,500.9z M362,497.1
	c4.3-3.5,13.2-7.3,18.7-7.9c4.3-0.4,5.3-0.9,5.3-2.4c0-2.2,1.6-2.5,2.4-0.4c1,2.7,3.3,1.7,2.9-1.2c-0.3-2.1,0.6-4,3.8-7.8
	c8.4-10.1,18.9-12.9,37-9.8c1.9,0.3,4,0.9,4.5,1.2c1.2,0.7-6.2,2.3-9,2c-1.1-0.1-5.7-0.2-10.1-0.2c-7.6,0-8.4,0.2-11.5,3
	c-1.9,1.6-4.5,3.7-5.9,4.6l-2.5,1.7l3.3,0.1c2.1,0,3.1,0.4,2.6,1.1c-0.4,0.6-2.1,0.9-3.9,0.7c-2.2-0.3-3.1,0-2.8,0.8
	c0.7,1.9,5.1,3.4,9.9,3.4c4.6,0,6,1.4,2.5,2.5c-2.1,0.7-10.6-0.1-12.1-1c-0.5-0.3-0.9,0.1-0.9,0.9c0,2.2-2.3,2.7-12,2.7
	c-8,0-8.8,0.2-8.5,1.8c0.3,1.5-0.2,1.7-2.5,1.4c-1.5-0.2-3.6,0.1-4.7,0.7c-1.6,0.9-1.5,1.1,0.9,1.1c1.5,0,2.8,0.5,2.8,1s-2,1-4.4,1
	s-5.2,0.3-6.2,0.6C360,499,360.2,498.6,362,497.1L362,497.1z M404,472.3c0-0.7-3.9,1.6-4.6,2.8c-0.4,0.6,0.5,0.3,1.9-0.6
	S404,472.6,404,472.3L404,472.3z M294.6,475.2c0.6-4.5,2.7-8.2,4.6-8.2c1.1,0,1.1,5.7-0.1,6.5c-0.5,0.3-1.2,1.9-1.6,3.6
	s-1.3,3-2.1,3C294.2,480,294,479.1,294.6,475.2L294.6,475.2z M366.4,477.5c0.4-1.2,0-1.4-1.9-0.9s-2.5,0.2-2.5-1
	c0-1,0.9-1.6,2.2-1.7c1.2,0,3.8-0.6,5.8-1.3c3.2-1.2,2.8-1.2-4.6-0.8c-7.7,0.4-15.4-0.9-15.4-2.7c0-1.6,1.4-2,2.8-0.9
	c0.8,0.7,4.7,1.3,8.6,1.4c7.8,0.2,15.3-1.8,20.7-5.7c2.3-1.6,3.3-1.9,3.9-1s1.3,0.9,3.3,0c3-1.4,5.7-0.6,5.7,1.5
	c0,1.4-4.1,3-13.2,5.1c-1.5,0.4-2.8,1-2.8,1.4s1,0.5,2.1,0.2c1.5-0.4,2-0.2,1.7,0.8c-0.3,0.8-0.9,1.4-1.4,1.5s-2.3,0.7-3.9,1.4
	s-5,1.9-7.4,2.6C366.3,478.8,365.9,478.8,366.4,477.5L366.4,477.5z M389.8,465.9c1.2-0.5,2.2-1,2.2-1.3c0-0.7-5.6,1-7.7,2.4
	c-1.6,1-1.5,1,0.7,0.5C386.4,467,388.5,466.4,389.8,465.9L389.8,465.9z M306.7,472.3c-0.4-2.1,0-3.3,1.7-4.9
	c1.9-1.7,2.1-2.4,1.1-3.8c-1.1-1.5-1.4-1.2-2.9,2.4c-0.9,2.3-1.4,4.5-1.1,5c0.9,1.4-0.4,2.9-2.1,2.3c-1.8-0.7-1.9-3.3-0.1-5.9
	c0.8-1.1,2.4-5,3.7-8.7s2.7-6.8,3.2-6.8s0.7,0.8,0.4,1.8c-1.9,6.9-1.9,6.8-0.6,5.5c2.1-2,2.9-1.4,2.3,1.8c-0.5,2.5-0.3,2.9,1,2.4
	c2.2-0.9,2,0.3-1.1,6C309,475.3,307.5,476.1,306.7,472.3L306.7,472.3z M63,471c0-0.5,0.5-1,1.1-1s0.8,0.5,0.4,1s-0.8,1-1.1,1
	S63,471.5,63,471z M66.3,470.3c0.9-1.4,4.7-2.4,4.7-1.2c0,0.5-0.4,0.9-0.9,0.9s-1.7,0.3-2.7,0.7C66.3,471.1,65.9,470.9,66.3,470.3
	L66.3,470.3z M75,469.2c0-0.4,1.2-0.8,2.6-0.9s3-0.7,3.4-1.4c0.6-1,1.1-1,2.2-0.1c0.9,0.8,1.7,0.8,2.4,0.2c0.5-0.5,1.9-1.2,2.9-1.4
	s5.8-1.4,10.5-2.7l8.6-2.3l4.9,2.1c5.8,2.5,11,2.7,13.8,0.8s4.3-1.8,5.7,0.7c0.9,1.6,0.8,1.9,0,1.4c-0.6-0.4-1.8-0.2-2.6,0.5
	c-2,1.7-14.7,1.3-19.3-0.6c-3.5-1.5-9-1.3-11.7,0.4c-0.6,0.3-1.5,0.7-2,0.8s-3.2,0.8-5.8,1.5c-3.4,0.9-5.3,1-6.5,0.3
	s-2.4-0.7-4.2,0.3C77.2,470.1,75,470.4,75,469.2L75,469.2z M295.3,465.4c-0.9-2.3,1.5-4.4,2.7-2.4c1.3,2.1,1.2,2.7-0.6,3.4
	C296.6,466.7,295.7,466.3,295.3,465.4L295.3,465.4z M331,462.5c0-3.6,4.4-9,6.4-7.8c0.5,0.3,0.1,1.1-0.8,1.8
	c-1.1,0.8-1.6,2.3-1.4,4.1c0.2,2.3-0.1,2.9-1.9,3.2C331.7,464,331,463.6,331,462.5L331,462.5z M69,461c0-0.6,0.9-1.1,2.1-1.1
	s1.8-0.5,1.4-1s-0.2-1,0.4-1s1.2,0.6,1.4,1.2c0.3,0.9,2.2,0.3,6.4-1.9c4.3-2.2,6.8-3,8.8-2.6c3.1,0.6,5.7,2.6,4.7,3.6
	s-4.4,0.7-3.8-0.4c0.8-1.4-2.8-1.3-6,0.2c-1.9,0.9-2.2,1.4-1.3,2.1c0.8,0.6,0.5,0.7-1,0.3c-1.2-0.3-2.2-0.2-2.2,0.3s-2.5,1-5.5,1.1
	C71.2,462,69,461.7,69,461L69,461z M265.5,459.2c-1.1-3.2-0.4-11.4,1-11.9c0.6-0.2,1.1,2.7,1.3,7.2C268,462.2,267.2,464,265.5,459.2
	L265.5,459.2z M60,459.9c0-0.4,1.1-0.6,2.4-0.5s2.2,0.5,2,0.8C63.8,461.1,60,460.8,60,459.9L60,459.9z M66.5,460
	c0.3-0.5,0.8-1,1.1-1s0.4,0.5,0.4,1s-0.5,1-1.1,1S66.2,460.5,66.5,460z M85.5,460c-0.3-0.5-0.5-1-0.3-1c2.5-0.6,3.8-0.6,3.8,0.1
	C89,460.2,86.1,461,85.5,460L85.5,460z M288.4,459.8c-1.1-1.7,1.7-12.8,3.2-12.8c0.8,0,1.4,1.1,1.4,3c0,2.1,0.5,3,1.6,3
	c1.3,0,1.5,0.7,1,3.1c-0.3,1.7-0.6,3.5-0.6,3.8C295,461.1,289.1,461,288.4,459.8L288.4,459.8z M111,459.1c0-0.5,0.4-1.2,1-1.6
	s0.7,0.1,0.4,0.9C111.7,460.2,111,460.5,111,459.1L111,459.1z M223.3,458.7c-1.6-2.1-2.2-4.6-1.2-5.3c0.5-0.3,1-3.5,1-7
	c0-3.6,0.4-6.4,1-6.4s1,0.8,1,1.8s0.7,3,1.5,4.5c1.2,2.3,1.2,2.9,0.1,3.3c-0.9,0.4-1.2,1.9-1,4.9
	C225.9,459.2,224.9,460.9,223.3,458.7L223.3,458.7z M271.7,459.3c-1-1-0.8-6.6,0.3-8.3c0.5-0.8,1-1.1,1-0.5s0.7,0,1.6-1.2
	c2.3-3.3,3.1-2.7,2.9,2c-0.1,3.1-0.5,4.3-1.8,4.6c-0.9,0.2-1.7,1.2-1.7,2.3C274,460,272.9,460.6,271.7,459.3L271.7,459.3z
	 M124.8,458.3c-3-0.8-1.9-2.3,1.8-2.3c3.7,0,4.7-1.3,1.8-2.4c-0.9-0.4-2.1-0.1-2.5,0.6c-0.7,1-1.1,0.9-1.9-0.5
	c-1.7-2.9-13.9-1.3-16.5,2.1c-0.7,0.9-2,1.2-3.2,0.9c-1.2-0.3-2.1-0.3-2.1,0.1s-1.4,0.7-3.1,0.7H96l2.2-1.8c1.2-1,3.2-1.8,4.5-1.8
	s3.6-0.7,5.1-1.5s3.9-1.5,5.2-1.5s2.1-0.4,1.8-0.9c-1.6-2.5,9.4-2.9,13.5-0.4c1.6,0.9,2.9,2,2.9,2.4s0.7,1.4,1.6,2.3
	c1.6,1.6,3.8,1.5,9.7-0.2c1.2-0.3,1.7-0.1,1.4,0.7C142.9,457.7,130.6,459.8,124.8,458.3L124.8,458.3z M298.8,455
	c-0.1-1.6-0.2-3.8-0.2-4.7s0.4-1.8,1-2c1.2-0.4,2.4,5,1.6,7.9C300.5,459,299,458.3,298.8,455L298.8,455z M386.9,453.9
	c2.4-2.2,6-4.9,8-5.9c4.6-2.3,14.4-4.5,16.6-3.7c2.2,0.9,0.8,2.9-1.5,2.1c-1.5-0.5-1.7-0.2-1.3,1.5c0.6,2.2-0.6,2.7-2.3,1
	c-2.1-2.1-11.3,0.7-16.1,5C384.2,459.3,381.2,459.3,386.9,453.9L386.9,453.9z M312.2,453.8c0.4-4.4,2.5-4.7,3-0.4
	c0.3,2.9,0.1,3.5-1.4,3.5C312.2,457,311.9,456.4,312.2,453.8L312.2,453.8z M323.3,455.5c-0.8-2.1,0.8-6.9,2.2-6.6
	c0.5,0.1,0.9,0.9,0.7,1.7s0.5,1.4,1.4,1.4c1.5,0,1.5,0.2,0.2,2.2C325.9,457.1,324.2,457.6,323.3,455.5L323.3,455.5z M240,451.4
	c-1.3-3.4-1.3-12.4,0-12.4c0.6,0,1,1.2,1,2.7s0.7,3.4,1.5,4.3c1,1.1,1.3,2.7,0.9,4.8C242.6,454.7,241.3,454.9,240,451.4L240,451.4z
	 M338,453.5c0-0.3,1.2-2.8,2.6-5.6c3.1-5.9,5.7-5.4,2.8,0.5C342,451.5,338,455.2,338,453.5L338,453.5z M306.8,449.6
	c-0.5-2.4,0.7-4.6,2.5-4.6c1.3,0,0.4,6.3-0.9,6.7C307.8,451.9,307,451,306.8,449.6L306.8,449.6z M333.8,450.5
	c-1.6-1.6,2.9-14.5,5.2-14.5c1.8,0,1.8,1.6-0.1,5.4c-1,2.2-1.9,5.2-1.9,6.7C337,450.7,335.3,452,333.8,450.5L333.8,450.5z
	 M249.7,449.3c-1-1-0.8-4.3,0.2-4.3c0.5,0,1.4,1.1,2,2.5c0.9,2,0.9,2.5-0.2,2.5C250.9,450,250,449.7,249.7,449.3L249.7,449.3z
	 M279.2,447.4c0.2-1.5,0.9-3,1.7-3.2c0.9-0.3,1.2,0.4,1,2.3c-0.2,1.5-0.9,3-1.7,3.2C279.2,450.1,278.9,449.4,279.2,447.4z M73,448.4
	c0-1.2,2.4-5,3.9-6.2c0.9-0.7,4.5-2.7,8.1-4.5c6.1-3.1,7.7-3.4,12.5-2.6c1.1,0.2,3.8-0.5,6-1.5c5.5-2.4,27.1-2.9,28.5-0.6
	c1.6,2.6,1.1,3-3.5,3c-3,0-4.4-0.4-4.2-1.2c0.4-1.7-4.1-2.2-6.8-0.7c-1.4,0.8-3.8,1-6.4,0.6c-3-0.5-3.9-0.4-3.4,0.5
	c0.4,0.7,0.3,0.9-0.3,0.5c-0.6-0.4-2.4-0.1-4.1,0.6c-2.9,1.2-2.9,1.4-1.1,2.5c1.4,0.8,2.7,0.9,4.5,0.2c3.2-1.2,3.5-1.2,3.5,0
	c0,0.6-1,1.4-2.2,1.9c-1.9,0.8-1.7,0.9,1.7,1c4.5,0.1,3.9,1.6-1,2.5c-2.5,0.4-3.8-0.1-6.4-2.4c-1.8-1.6-3.9-3-4.7-3
	s-1.3-0.5-1.3-1.1s-0.9-0.8-2-0.4c-1.1,0.3-3.2,0.8-4.6,1.1c-6.2,1.1-14.4,6.5-14.4,9.4c0,0.5-0.4,1-1,1S73,448.7,73,448.4L73,448.4
	z M320,446c0-1.8,2.3-6,3.3-6c0.5,0,0.7,1,0.4,2.2s-0.6,2.8-0.6,3.5s-0.7,1.2-1.5,1.2S320,446.6,320,446L320,446z M329.1,444.1
	c1.1-3.3,3.3-5.5,4.8-5s-2.2,7.3-4.1,7.6C328.3,447.1,328.2,446.7,329.1,444.1z M210.6,441.9c-2.5-6.1-2.7-7.6-1.4-8.7
	c1.1-0.9,1.7,0.1,3.1,4.5c1.2,3.8,1.4,6,0.7,6.6S211.6,444.2,210.6,441.9L210.6,441.9z M270,443.1c-1.4-2.5-1.3-3.1,0.3-3.1
	c0.7,0,1.9,1.1,2.5,2.5c0.9,2,0.9,2.5-0.3,2.5C271.7,445,270.6,444.1,270,443.1L270,443.1z M379.1,443.6c-2.1-1.1-2.1-1.4-0.7-2
	c2.1-0.8,12.5,0.3,12.5,1.4C391,445.2,382.8,445.6,379.1,443.6L379.1,443.6z M276.4,442.6c-0.8-2.1,0.2-4.6,1.9-4.6
	c1.7,0,1.7,5.2,0,5.8C277.6,444,276.7,443.5,276.4,442.6L276.4,442.6z M291.5,442c-0.7-2.3,0.1-4,1.9-4c1.4,0,2.8,3.8,2,5.2
	C294.5,444.7,292.1,444,291.5,442L291.5,442z M299.4,442.5c-0.3-0.8-0.3-2.3,0.1-3.2c0.6-1.6,0.8-1.6,2.1,0.2
	c0.8,1.1,1.4,2.5,1.4,3.2C303,444.5,300.1,444.3,299.4,442.5z M311.5,442c-0.4-1.2-0.2-2.6,0.4-3.2c1.3-1.3,1.8-0.9,2.3,2.2
	C314.6,444,312.4,444.8,311.5,442L311.5,442z M316,440.1c0-1.8,0.7-3.6,1.8-4.3c1-0.7,2.1-2.2,2.5-3.2c0.7-1.9,1.9-1.6,2.3,0.7
	c0.1,0.7,0.5,2,0.9,3c0.9,2.2-2.3,3.7-3.5,1.7c-0.6-0.9-0.9-0.4-1.1,1.5C318.4,443.5,316,444,316,440.1L316,440.1z M305.1,439.1
	c-1.8-1.1-1-4.5,1.2-4.9c1.3-0.2,1.7,0.3,1.7,2.2C308,439.3,307,440.2,305.1,439.1z M393,438.9c0-0.5,0.3-1,0.8-1s2-0.3,3.6-0.5
	c2-0.3,2.7-0.1,2.4,0.8C399.3,439.7,393,440.3,393,438.9L393,438.9z M224.9,436.2c-0.1-1.5-0.1-3.1,0-3.5s-0.3-0.8-0.9-0.8
	s-1-0.7-1-1.5c0-2.5,2.9-1.7,3.5,1c0.3,1.4,0.8,3.6,1,5c0.4,1.8,0.1,2.5-1,2.5C225.6,439,225,438,224.9,436.2L224.9,436.2z M118,437
	c0-0.5,0.5-1,1.1-1s0.8,0.5,0.4,1s-0.8,1-1.1,1S118,437.5,118,437z M265.2,435.3c0.5-3.9,2.8-4.2,2.8-0.4c0,2.1-0.5,3.1-1.6,3.1
	S265,437.2,265.2,435.3L265.2,435.3z M159.7,436.3c-1-1-0.8-5.3,0.2-5.3s2.1,2.4,2.1,4.6C162,437.1,160.8,437.5,159.7,436.3
	L159.7,436.3z M215.1,431.6c-1.5-2.7-1.1-5.8,0.7-6.4c0.8-0.3,1.2,0.5,1.2,2c0,1.3,0.5,2.9,1.1,3.5c1.1,1.1,0.5,3.3-1,3.3
	C216.7,434,215.8,432.9,215.1,431.6L215.1,431.6z M242.4,432.6c-0.7-1.9-0.1-4.8,1.1-5.2c0.6-0.2,1.1,1.2,1.2,3.2
	C244.9,434,243.4,435.3,242.4,432.6L242.4,432.6z M308.4,432.5c-0.6-1.5,1.2-4.5,2.6-4.5c0.4,0,0.8,1.4,0.8,3
	C311.9,434.2,309.4,435.3,308.4,432.5L308.4,432.5z M333,431.9c0-1.1,0.9-3.9,2-6.2s2-4.9,2-5.8c0-2.3,2.8-8.9,3.8-8.9
	c1.5,0,2.2,1.3,1.3,2.4c-0.5,0.6-1.4,3.3-2.1,6.1s-1.7,5.5-2.1,6s-1.1,2.7-1.5,4.8C335.7,434.2,333,435.6,333,431.9L333,431.9z
	 M282.1,429.7c-0.5-1.3-0.4-3,0.2-4.2c0.9-1.7,1.2-1.5,2.4,2c0.7,2.2,1.4,4,1.4,4.2s-0.7,0.2-1.5,0.2S282.6,431,282.1,429.7z
	 M295,430.2c0-1,0.7-2.8,1.6-4.1c2.1-3.1,3.9-1.4,2.3,2.2C297.5,431.5,295,432.7,295,430.2L295,430.2z M206.2,429.7
	c-1.2-1.4-1.3-7.7-0.1-7.7c0.4,0,1,1,1.3,2.2s0.8,3.3,1.2,4.5C209.3,431.2,207.9,431.8,206.2,429.7L206.2,429.7z M183.7,429.3
	c-1.1-1.1-0.8-6.3,0.3-6.3c0.6,0,1,0.9,1,1.9s0.5,2.2,1,2.6s0.8,1,0.4,1.6C185.8,430.2,184.6,430.3,183.7,429.3z M239.5,424.2
	c0.8-6.6,2.1-8.7,3-5c0.8,3-1.2,10.8-2.7,10.8C239.1,430,239,428.1,239.5,424.2L239.5,424.2z M342,427.5c0-3,2-7.5,3.3-7.5
	c0.5,0,0.7,1.4,0.3,3.1c-0.3,1.7-0.6,3.7-0.6,4.4s-0.7,1.5-1.5,1.8C342.4,429.8,342,429.3,342,427.5L342,427.5z M254.7,426.3
	c-0.6-3.2,0-5.3,1.6-5.3c0.7,0,1.2,1.7,1.2,4C257.6,429.6,255.5,430.5,254.7,426.3L254.7,426.3z M329,425.6c0-3.4,3.9-8.2,5.4-6.6
	c0.8,0.9,0.8,1.3-0.1,1.6c-0.7,0.2-1.5,2-1.9,3.9C331.7,428.5,329,429.3,329,425.6L329,425.6z M231.5,425.8
	c-0.7-2.1-1.1-16.8-0.4-16.8c0.3,0,1.3,0.8,2.1,1.8c1.8,2.1,1.8,15.4,0,16C232.5,427,231.8,426.6,231.5,425.8L231.5,425.8z
	 M227.6,424.1c-1.2-1.9-1.8-12.1-0.8-12.1c1.2,0,1.8,1.7,2.7,8.2C230.1,424.6,229.1,426.6,227.6,424.1L227.6,424.1z M262.9,421.9
	c-0.9-1.6-0.9-2.8,0-4.6c1.4-3.1,1.7-2.8,2.3,2.5C265.9,424.3,264.8,425.3,262.9,421.9L262.9,421.9z M150,418.2c0-2.9-1-6.8-2.5-10
	c-3.3-7.2-0.7-7.2,2.9-0.1c3,6,3.7,14.8,1.1,14.8C150.4,423,150,421.8,150,418.2L150,418.2z M303.8,421.9c-1.3-0.8-0.5-8.6,1.1-10.2
	c0.8-0.8,1.1,0.5,1.1,4.4s0.3,5,1,4c0.5-0.8,1-3,1-4.8c0-2.3,0.5-3.2,1.6-3.2c1.2,0,1.5,1,1.2,5.2c-0.3,5-0.4,5.3-3.1,5.3
	C306.2,422.6,304.5,422.3,303.8,421.9L303.8,421.9z M166.1,417.4c-2-2.5-2.8-5.4-1.5-5.4c1,0,6.4,5.8,6.4,6.9
	C171,420.9,168.2,420,166.1,417.4L166.1,417.4z M198.4,419.2c-1.4-0.9-2.4-6.1-1.3-6.8c0.5-0.3,0-2.1-1.1-4
	c-1.8-3.3-1.8-6.5,0.1-6.5c1.5,0,3.3,4.3,3.5,8.5c0.1,2.2,0.5,5.2,0.9,6.8C201.2,420,200.5,420.6,198.4,419.2L198.4,419.2z
	 M329.8,417.5c-0.8-0.8,2.5-12.2,3.8-13.6c1.9-1.9,2.2,0.3,0.7,6.1C333,415.3,331,418.6,329.8,417.5L329.8,417.5z M178.2,416.3
	c-0.7-0.3-1.3-1.5-1.3-2.7c0-1.7-0.2-1.8-0.9-0.7c-1.2,1.9-3.4,0.2-5-3.9c-0.7-1.7-1.7-2.7-2.5-2.4c-1.8,0.7-3.6-4.5-4.9-14.8
	c-1.2-8.9-1.1-10.8,0.4-10.8c0.5,0,0.6,0.7,0.3,1.5s0.6,4.2,2.1,7.6c2.2,4.8,2.5,6.3,1.5,7.5s-0.9,1.4,0.4,1.4
	c0.9,0,1.6,0.5,1.6,1.1c0,0.8,0.4,0.8,1.4-0.1c1.2-1,1.6-0.2,2.7,4.9c1.4,6.5,3.5,8.5,2.5,2.3c-0.3-2.1-0.7-4.6-0.9-5.6
	s0.3-2.1,1-2.3c0.7-0.3,1.2,0.4,1.2,1.5s0.3,2.2,0.7,2.6s0.8,2.8,1,5.3s0.8,5,1.4,5.4s0.9,1.2,0.5,1.8
	C180.8,417.1,180.3,417.1,178.2,416.3L178.2,416.3z M183.1,412.2c0.1-3.5,0.1-3.6,1-1.3c0.5,1.3,1.5,3,2.1,3.8c0.8,1,0.6,1.3-1,1.3
	C183.3,416,183,415.4,183.1,412.2z M207.9,415.8c0-0.2-0.2-1.2-0.4-2.3s-0.6-3.5-1-5.2c-0.5-2.5-0.3-3.2,0.9-3.2
	c2.4,0,4.1,9.9,1.8,10.7C208.6,416,208,416,207.9,415.8L207.9,415.8z M278.7,411.2c-1.8-6.5-1.8-7.4,0-7.1c2.6,0.5,3.8,8.8,1.3,8.8
	C279.5,413,278.9,412.2,278.7,411.2z M287.7,411.3c-1.1-1.1-0.8-15.2,0.4-15.9c1.6-1,1.6-0.7,2.1,8.3c0.3,5.9,0.1,8.2-0.7,8.2
	C288.9,412,288,411.7,287.7,411.3L287.7,411.3z M324,410.4c0-2.9,3.1-12.4,4.1-12.4c1.2,0,1.2,2.8-0.2,9c-0.7,3.2-1.6,5-2.5,5
	C324.6,412,324,411.3,324,410.4L324,410.4z M346,409.2c0-3.8,2.1-9.2,3.6-9.2c1.6,0,1.3,3.4-0.7,8.8
	C347.9,411.4,346,411.7,346,409.2z M390.8,409.7c3.2-3.8-6.9-4.7-15-1.3c-4.3,1.8-4.8,1.9-4.8,0.8c0-1.4,7.1-4.3,11.9-4.8
	c2.5-0.3,7.5,0,11.1,0.7s8.9,1.3,11.9,1.3s5.6,0.6,5.8,1.2c0.3,0.8-2.3,1.2-7.7,1.3c-4.4,0.1-9.2,0.6-10.6,1.1
	C390,411.3,389.5,411.2,390.8,409.7L390.8,409.7z M161.7,409.2c-0.6-1.1-2.5-10.9-3.2-16.8c-0.3-2.8-1-6.1-1.4-7.5
	c-1.7-5-2-10.6-0.6-12.5c1.3-1.8,1.4-1.8,1.9,0.1c0.8,2.9,1.6,8.3,2.2,14.4c0.5,5.2,1.9,12.6,3.5,18c0.4,1.4,0.5,3.1,0.3,3.8
	C163.8,410.1,162.4,410.4,161.7,409.2L161.7,409.2z M248.2,407.8c0.5-3.2,2.8-3.5,2.8-0.4c0,1.7-0.5,2.6-1.6,2.6
	C248.4,410,248,409.3,248.2,407.8L248.2,407.8z M294.3,404c0.6-5.5,2.3-9.4,3.6-8.6c0.5,0.3,0.5,2.2,0,4.3s-1.1,5-1.4,6.5
	C295.5,411.2,293.7,409.4,294.3,404L294.3,404z M314,405.9c0-3.8,2-11.9,2.9-11.9c0.7,0,0.3,11.3-0.5,13.8
	C315.7,410.2,314,409,314,405.9L314,405.9z M303.8,404.1c-0.1-1.1-0.2-2.6-0.2-3.3s0.6-1.2,1.4-1.2c1,0,1.5,1,1.5,2.9
	C306.5,405.7,304.1,407.3,303.8,404.1z M140.2,403.8c-0.6-0.6-1.2-2-1.2-2.9c0-1.1-0.5-1.6-1.4-1.2c-1.7,0.6-2.2-0.9-2.2-6
	c0-2.2,0.6-4.1,1.3-4.3c0.7-0.2,1.2,0.4,1.2,1.5s0.9,3.1,2.1,4.6C143.4,399.6,143.5,407.1,140.2,403.8L140.2,403.8z M150.6,403.4
	c-1-2.5-0.7-13.2,0.5-20.3c0.9-4.9,0.9-6.6,0-6.9c-1.3-0.4-1.6-15.2-0.3-15.2c0.5,0,0.9,3.2,1,7.2s0.7,7.5,1.3,7.9
	c0.8,0.5,0.9,3.3,0.4,9c-0.4,4.6-0.5,8.1-0.2,7.8s0.7-1.7,0.9-3c0.6-4.1,2.1-2.7,2.8,2.6c0.3,2.8,0.9,6,1.3,7.2
	c0.6,1.8,0.3,2.2-1.3,2.2c-1.1,0-2.3-0.9-2.6-1.9s-1.3-2.2-2.1-2.5c-1.3-0.5-1.3-0.1,0,3c1.8,4.4,1.8,4.3,0.1,4.3
	C151.8,405,150.9,404.3,150.6,403.4L150.6,403.4z M188,403.2c-2.2-2.6-1.4-11.2,1-11.2c0.6,0,1,1.9,1,4.3s0.5,4.8,1.1,5.4
	c1.1,1.1,0.5,3.3-0.9,3.3C189.8,405,188.8,404.2,188,403.2L188,403.2z M224,403.5c-1.5-1.8-0.1-11.7,1.7-12.3c0.9-0.3,1.2,1,0.9,5.2
	c-0.2,3.1,0,5.9,0.5,6.2c1,0.6,0.1,2.4-1.1,2.4C225.6,405,224.7,404.3,224,403.5L224,403.5z M232.4,397.2c0.2-3.3,0.7-6.5,1.1-7.1
	c1.5-2.3,2.4,0.2,2.2,6.2c-0.1,5-0.5,6.3-1.9,6.6C232.2,403.1,232.1,402.4,232.4,397.2L232.4,397.2z M266,402.1
	c0-1.7,1.2-4.1,2.1-4.1c0.5,0,0.9,1.1,0.9,2.5c0,1.6-0.6,2.5-1.5,2.5C266.7,403,266,402.6,266,402.1z M277.4,400.6
	c-0.7-1.9,0.9-7.2,2.2-6.9c1.4,0.4,1.1,7.5-0.3,8C278.6,402,277.7,401.5,277.4,400.6L277.4,400.6z M341,400.4c0-0.9,1.1-3,2.5-4.8
	s2.5-4,2.5-4.8c0-1.7,2.9-4.6,3.1-3.2c0.1,0.5,0.2,3,0.3,5.6c0.2,5-1.4,6.4-3.3,3c-0.9-1.6-1-1.5-1,0.4c0,3.2-1.1,5.3-2.6,5.3
	C341.6,402,341,401.3,341,400.4z M181,400.1c0-0.5-1-1.1-2.2-1.4c-2-0.5-2.1-1-1.5-8.4c0.3-4.3,0.9-8.7,1.3-9.6
	c1.3-3.4,2.1,0.4,1.6,8.2c-0.4,6.1-0.2,7.5,0.8,6.5c0.7-0.7,1.3-2.9,1.5-5s0.3-4.8,0.4-6.1c0.3-4.4,2.1-2.2,2.1,2.6
	c0,8.1-1.1,14.1-2.6,14.1C181.6,401,181,400.6,181,400.1L181,400.1z M144.6,397.2c-0.3-1-0.6-3.1-0.8-4.9c-0.2-2.3-0.6-3-1.8-2.7
	c-1.8,0.5-4-3.4-4-7.1c0-4,1.4-3.8,3,0.4c1.7,4.4,3.3,5.3,3.8,2c0.2-1.3-0.2-2-1.3-2c-1.7,0-3.6-3.8-3.5-7.3c0-1.7,0.6-1.1,2.6,2.3
	c1.4,2.5,2.9,4.7,3.2,5s0.7,2.8,0.7,5.5s0.3,6.2,0.8,7.8c0.6,2.1,0.4,2.8-0.7,2.8C145.8,399,144.9,398.2,144.6,397.2L144.6,397.2z
	 M271.7,398.3c-1.4-1.4-0.7-6.3,0.8-6.3c1,0,1.5,1.1,1.5,3.5C274,398.8,273.2,399.8,271.7,398.3L271.7,398.3z M321.4,389.7
	c0.1-5.1,0.6-10.2,1.3-11.3c0.8-1.5,0.9-2.4,0.1-3.2c-1.2-1.2-0.2-3.6,1.1-2.8c0.5,0.3,1.6-2.9,2.5-7s2-7.5,2.4-7.5s0.3,4-0.2,9
	c-0.7,6.3-1.3,9-2.3,9c-0.7,0-1.3,1-1.3,2.1s-0.5,3.9-1.2,6.1c-0.8,2.5-0.8,4.2-0.2,4.6c0.9,0.6,1,2.9,0.5,8.4
	c-0.1,1-0.8,1.8-1.5,1.8C321.7,399,321.4,396.8,321.4,389.7L321.4,389.7z M200.5,389.2c0.7-8.2,2.4-13.7,2.6-8.2
	c0.5,12.4,0,17-1.7,17C200,398,199.9,396.9,200.5,389.2L200.5,389.2z M204.9,396.7c-0.3-3.4,2-12.8,3.1-12.8c0.7,0,0.4,7.1-0.6,11.8
	C206.9,398.1,205.1,398.9,204.9,396.7L204.9,396.7z M210.3,396.4c-0.3-0.9,0-3.5,0.7-5.8s1.2-4.5,1.1-4.9s0.3-0.8,0.9-0.8
	c0.7,0,0.9,1.1,0.5,3.1c-0.3,1.7-0.6,4.6-0.6,6.5C213,398.1,211.4,399.2,210.3,396.4L210.3,396.4z M260.2,392.8
	c0.5-4.6,2.8-4.9,2.8-0.4c0,2.6-0.4,3.6-1.6,3.6C260.3,396,260,395.2,260.2,392.8L260.2,392.8z M172,392.4c-1.2-3.2-1.2-5.4-0.1-5.4
	c0.8,0,3.1,5.2,3.1,7.1S172.9,394.8,172,392.4L172,392.4z M255,392.5c0-1.4,0.4-2.5,1-2.5s1,1.1,1,2.5s-0.5,2.5-1,2.5
	S255,393.9,255,392.5z M307.8,392.6c-0.6-1.3-0.8-3.1-0.5-4c0.9-2.4,3.4-1.9,4.1,0.8c0.3,1.3,0.9,3.1,1.2,4
	C313.7,396.2,309.1,395.3,307.8,392.6L307.8,392.6z M333.5,394c-0.3-0.6,0.6-4,2.1-7.7c2-4.9,2.4-7.1,1.7-8.3
	c-0.6-0.9-0.8-2.9-0.6-4.5s0.1-2.4-0.2-1.7c-0.6,1.2-4.4,1.8-4.4,0.7c0-0.3,0.5-1.4,1-2.5c0.9-1.6,0.7-1.9-1.1-1.9
	c-2.1,0-2.1-0.3-1.4-7.2c0.4-4,1-7.7,1.3-8.2c1.1-1.8,2.1,3,1.6,7.9l-0.4,5l1.6-3.4c1.9-4.2,3-2.9,2.8,3.3c-0.1,2.9,0.3,4.4,1,4.3
	c0.6-0.1,1.2,1.1,1.3,2.8s0.2,3.5,0.4,4c0.3,1.5-0.1,6.8-0.7,9c-0.3,1.1,0.4,0.5,1.6-1.4s2.3-3.2,2.5-3c0.4,0.4-1.4,12.1-2,12.7
	c-0.2,0.2-1.1,0.1-2-0.2c-1.1-0.4-1.4-1.4-1.1-2.9c0.3-1.2-0.1-0.8-0.9,1C336,395.1,334.6,395.8,333.5,394L333.5,394z M190.8,389.5
	c-0.3-3.2,0-4.5,0.9-4.5c0.7,0,1.3,1.3,1.4,3c0.1,1.6,0.2,3.5,0.2,4.2c0.1,0.6-0.4,1.3-1,1.5C191.6,394,191.1,392.4,190.8,389.5
	L190.8,389.5z M194.6,391.2c-1.1-1.7-1-14.7,0.1-16.6c0.8-1.5,1.2-0.2,1.9,6.5c0.5,4.6,0.8,8.8,0.9,9.3
	C197.5,391.7,195.3,392.3,194.6,391.2L194.6,391.2z M223.3,387c-0.4-2.1-1.2-3-2.5-3c-1.4,0-1.9-0.7-1.9-3c0-3.3,1.9-4.1,2.7-1.1
	c0.3,1.1,1.1,1.7,1.8,1.4c1.5-0.6,3.7,4.9,2.9,7.2C225.4,390.9,224,390.2,223.3,387z M249.2,387.4c0.2-1.5,0.9-3,1.7-3.2
	c0.9-0.3,1.2,0.4,1,2.3c-0.2,1.5-0.9,3-1.7,3.2C249.2,390.1,248.9,389.4,249.2,387.4z M282.5,387.2c0.8-3.3,1.1-3.6,2.3-2.9
	c1.4,0.9,0.2,5.6-1.5,5.6C282.1,390,281.9,389.3,282.5,387.2L282.5,387.2z M327.9,387.3c-0.6-4.3,0.1-7.3,1.8-7.3
	c1.1,0,1.4,1.1,1.2,4.7C330.5,389.9,328.4,391.7,327.9,387.3L327.9,387.3z M314,385c0-2,0.5-3,1.5-3s1.5,1,1.5,3s-0.5,3-1.5,3
	S314,387,314,385z M168,383.1c-0.7-1.6-1.1-3.9-0.9-5.2c0.5-3.1,2.8-3.7,2.8-0.8c0,1.3,0.7,3.6,1.5,5.2c1.9,3.6,1.9,3.6-0.4,3.6
	C170,386,168.8,384.8,168,383.1L168,383.1z M132.1,382.6c-1.8-2.1-2.7-9-1.1-8.4c1.1,0.4,4,6.9,4,9.1
	C135,384.5,133.3,384.1,132.1,382.6L132.1,382.6z M211.7,382.3c-2.1-2.1,1.1-9.2,3.5-7.7c0.7,0.4,0.6,1-0.1,1.7
	c-0.6,0.6-1.1,2.3-1.1,3.9C214,382.9,213.1,383.7,211.7,382.3L211.7,382.3z M144.9,378.3c-1.2-3.2-0.9-5.5,0.8-6.1
	c0.8-0.3,1.2,0.6,1.2,2.6c0,1.7,0.5,3.3,1,3.7s0.8,1,0.4,1.6C147.4,381.8,146,381,144.9,378.3L144.9,378.3z M289.1,374.2
	c0-1,0.5-2.6,0.9-3.8c0.8-1.9,0.9-1.9,0.9,0.2c0,1.2,0.5,2.2,1.1,2.2s1,0.7,1,1.5s-0.9,1.5-2,1.5C289.7,376,289,375.4,289.1,374.2
	L289.1,374.2z M316,375.2c0-0.4,0.6-1.9,1.4-3.2c1.2-2.1,1.2-2.6-0.3-3.7s-1.5-1.4,0.2-3c1.8-1.8,1.8-1.7,1.1,0.6
	c-0.5,1.6-0.4,2.2,0.4,1.7c1.3-0.8,1.5-5.2,0.2-6c-0.5-0.3-0.3-2.4,0.5-4.6s1.6-7.1,1.9-10.8c0.6-8.6,1.4-12.2,2.6-12.2
	c0.6,0,0.7,3,0.2,8.2c-0.4,4.5-0.7,11.3-0.5,15.1c0.3,7.8-2,16.1-4.9,17.7C316.8,376.2,316,376.3,316,375.2L316,375.2z M134.3,374.2
	c-1.6-1-4.5-9.2-3.8-11c0.4-1.1,0.8-1.2,2.1-0.2c2.1,1.8,2.7,0.7,1.5-2.6c-0.6-1.5-0.8-3.4-0.6-4.1c1-2.7,2.5-1.2,3.1,3.3
	c0.6,3.8,0.4,4.9-1,5.9c-1.6,1.2-1.6,1.5-0.1,4.5C137.1,373.4,136.5,375.5,134.3,374.2L134.3,374.2z M203.5,373.9
	c-0.9-1.4,0.3-5.9,1.6-5.9c0.5,0,1,0.9,1,1.9s0.3,2.6,0.6,3.5C207.3,375.2,204.5,375.7,203.5,373.9L203.5,373.9z M163.5,372.1
	c-0.8-2.6,0.4-10.6,2-13.8c1.1-2.1,1.2-1.3,0.9,6.4C166.2,373.1,164.9,376.4,163.5,372.1L163.5,372.1z M138.7,371.3
	c-1-1-0.8-7.4,0.2-7.4c1.1,0,2.1,6.2,1.2,7.3C139.7,371.7,139.1,371.7,138.7,371.3L138.7,371.3z M300.1,370.6
	c-1.2-1.4-0.5-7.6,0.9-7.6c0.7,0,2,4.8,2,7.6C303,372.4,301.6,372.4,300.1,370.6L300.1,370.6z M309,370.3c0-2.1,4.9-12.7,6-13.1
	c1.8-0.6,0.7,6-1.6,10C311.5,370.3,309,372.1,309,370.3L309,370.3z M159.8,367.2c-0.2-1-0.5-4.9-0.6-8.8c-0.2-6.4,0-6.8,1.3-5.1
	c1,1.3,1.5,4.2,1.5,8.8C162,368.5,160.8,371.2,159.8,367.2L159.8,367.2z M156.5,366.9c-0.4-0.6-0.4-1.3-0.1-1.6
	c0.7-0.7,2.7,0.5,2.7,1.7C159,368.3,157.3,368.2,156.5,366.9L156.5,366.9z M306.6,366.2c-0.8-1.3,1.3-11,2.5-11.7
	c1.2-0.8,0.4,10.5-0.9,11.7C307.6,366.8,307,366.8,306.6,366.2L306.6,366.2z M143.2,360.2c-1.4-7.3-1.6-9.4-0.9-11.2
	c0.3-0.8,0.8-4.1,1.1-7.3l0.5-5.8l-3.2-0.7c-1.8-0.4-3.6-0.6-4.1-0.4s-2.2,0-3.8-0.4c-3.7-0.8-6.2-6.3-5.3-11.7
	c0.8-4.7,2.5-4.9,2.5-0.3c0,2.5,0.8,4.2,2.8,6l2.8,2.6l0.3-2.8c0.8-8.1,3.2-10.3,3.2-2.8c0,5,1.6,7,2.6,3.1c0.9-3.4,2.4-3.2,2.4,0.3
	c0,1.5,0.5,3.3,1.2,4c1.7,1.7,2,17.2,0.4,17.2c-1.4,0-1,8.1,0.6,11.2c1.3,2.5,1.1,4.8-0.5,4.8C144.8,366,143.9,363.9,143.2,360.2
	L143.2,360.2z M181.1,359.9c-1.3-6.2-1.3-7-0.1-7c1.4,0,2.7,2.9,3.4,7.8c0.5,3.3,0.3,4.2-0.8,4.2C182.7,365,181.8,363.2,181.1,359.9
	L181.1,359.9z M191.6,359.2c-0.3-2.1-0.9-4.8-1.2-6c-0.5-1.8-0.2-2.2,1.4-2.2c2.2,0,3.2,2.4,3.2,8.2c0,2.5-0.4,3.8-1.4,3.8
	C192.8,363,192,361.5,191.6,359.2z M135,352c-1.3-2.4-0.5-11,1-11c1.1,0,1.9,11.2,0.9,12.4C136.5,353.8,135.7,353.2,135,352L135,352
	z M149.6,349.3c-0.5-3.7-0.3-5,0.9-5.9c0.8-0.6,1.5-1.6,1.5-2.3s0.7-1.4,1.5-1.7c0.9-0.3,1.5-1.8,1.5-3.5c0-3.4,1.5-3.8,2.4-0.6
	c1.1,4,0.7,7.8-0.8,7.8c-0.8,0-1.7-0.6-2-1.2s-0.4,0.4-0.1,2.5s0.1,3.8-0.4,3.8s-1,1.2-1.2,2.7C152.3,355.2,150.3,354.4,149.6,349.3
	L149.6,349.3z M172.2,352.8c-1.6-1.6-1.5-5.3,0.2-6.7c1.1-0.9,1.5-0.5,1.9,2.6C174.8,353,174,354.6,172.2,352.8L172.2,352.8z
	 M336.1,350.2c0.2-5.6,1.2-9.5,2.6-10c0.7-0.2,1.2,0.4,1.2,1.3c0,1.4,0.3,1.5,1.5,0.5c0.8-0.7,1.5-0.9,1.5-0.5
	c0,1.5-5.5,12.4-6.2,12.4C336.4,354,336.1,352.3,336.1,350.2L336.1,350.2z M128,347.4c0-2-0.5-4.5-1.1-5.5c-1.1-2-0.4-5.9,1-5.9
	c0.9,0,1.8,3.8,2.7,10.8c0.4,3.5,0.2,4.2-1.1,4.2C128.4,351,128,350,128,347.4L128,347.4z M138,344c0-4.1,0.4-6,1.2-6s1.3,1.9,1.3,6
	c0,4.2-0.3,6-1.2,6C138.4,350,138,348.2,138,344z M180.4,348.6c-0.8-2.2,1.5-8.6,3.1-8.6c1.1,0,1.2,0.6,0.5,2.8
	c-0.5,1.5-0.8,3.6-0.7,4.6C183.6,349.7,181.2,350.7,180.4,348.6z M165.6,347.2c-0.3-0.5-0.8-2.8-1.2-5.2c-0.6-3.7-0.5-4.2,0.9-3.7
	c2.2,0.8,3.1-12.7,1.1-16c-1.2-1.9-1.2-3.1,0.2-8c2-7.3,2-8.4-0.4-13.6c-1.2-2.6-1.8-5.2-1.4-6.9c0.8-3.8,1.9-3.4,2,0.7
	c0.1,1.9,1,4.8,2.2,6.4c2.5,3.5,2.7,7.8,0.6,12.8c-0.8,2-1.5,4.5-1.5,5.7c0.1,3.9,2.8-2.5,4.2-9.8c0.7-3.6,1.7-6.6,2.2-6.6
	s0.6,1.7,0.2,3.8s-0.9,5.4-1.1,7.5s-0.9,4.7-1.5,5.8s-1.3,6.6-1.6,12.2c-0.3,5.8-1,10.5-1.6,10.9c-0.8,0.5-0.8,1.1,0.1,2.1
	c0.6,0.8,0.9,1.7,0.5,2.1C168.4,348.3,166.2,348.2,165.6,347.2L165.6,347.2z M328.7,347.4c-1.2-1.2-0.7-5.9,0.8-7.9
	c1.6-2.1,1.5-2.2,1.9,6.2C331.5,347.4,329.8,348.5,328.7,347.4z M118.3,341.8c-1.2-1.5-2.8-9.3-2.5-12.7c0.4-5.4,2-3.9,2.6,2.6
	c0.4,3.7,1.2,7.4,1.8,8.1c0.7,0.9,0.8,1.7,0.1,2.3S119,342.7,118.3,341.8L118.3,341.8z M332,337.5c0-1.9-0.4-2.3-1.7-1.8
	c-1.5,0.6-1.6-0.5-1-11.8c0.6-10.8,0.9-14.8,1.5-18.2c0.4-2.2,2-0.2,2.5,3.1c0.3,2.1,1.3,4.2,2.1,4.5c2,0.8,2.1,6.6,0.1,6.6
	c-0.8,0-1.6-0.6-1.9-1.2s-0.5,0.8-0.4,3.2s-0.1,5.9-0.4,7.5s-0.3,2.4-0.1,1.8s0.8-1.2,1.3-1.2s0.9-0.6,0.9-1.4s0.6-1.9,1.4-2.6
	c1.1-0.9,1.6-0.8,2.5,0.6c1,1.7,1.1,1.7,1.1-0.2c0-1.1-0.4-2.5-0.9-3s-1.1-4.4-1.3-8.5c-0.3-5.5-0.8-8.1-2.1-9.3
	c-1-1-1.8-2.7-1.8-3.9l-0.1-2.2l-0.9,2.2c-1.3,3.1-2.7,2.8-3.4-0.8l-1.2-6c-0.3-1.6-1.2-3-1.9-3c-1.3,0-3.2-5.7-2.2-6.7
	c0.3-0.3,1.2,0.7,2,2.2l1.4,2.7l0.8-2.9l0.8-2.9l0.9,3.5c0.5,1.9,1.2,5,1.5,6.8c0.6,3.9,2.3,5.3,2.4,2c0.1-1.3,0.1-2.6,0-3
	s-0.2-3.4-0.3-6.8c-0.1-4.4-0.6-6.1-1.5-6.1c-1.8,0-1.7-5.9,0.2-8.4c0.8-1.1,1.5-3.2,1.5-4.7s0.5-3,1-3.4s1,0.3,1,1.3
	c0,1.1,0.9,2.2,1.9,2.4c1.3,0.3,1.8,1.1,1.5,2.4c-0.3,1-0.1,4.7,0.4,8.2c0.6,4.5,0.5,6.5-0.3,7c-2.5,1.5-3.8,16.2-1.5,16.2
	c0.5,0,1.2-1.1,1.5-2.5c1-4,2.4-2.9,2.4,2c0,3.2-0.4,4.5-1.4,4.5c-1.2,0-1.2,0.6-0.1,3.8c1.6,4.8,1.9,25.9,0.4,26.8
	c-0.6,0.4-1.4,0.3-1.7-0.2s-1.5-1.6-2.5-2.4c-1.8-1.4-1.9-1.3-1.2,2.2c0.6,3.3,0.5,3.8-1.3,3.8C332.5,340,332,339.3,332,337.5
	L332,337.5z M336.7,271.7c-0.3-0.7-0.5-0.1-0.5,1.2s0.2,1.9,0.5,1.2S336.9,272.4,336.7,271.7z M158.4,333.3c-0.4-1.5-1.7-4.2-3-6.1
	s-2.3-4-2.3-4.8c0-2.2,2.2-2.8,3.3-0.8c1,1.7,1.1,1.6,1.6-1c0.9-5.1,2.7-4,2.6,1.6c0,2.9,0.4,7.2,0.8,9.5c0.7,3.6,0.6,4.2-0.8,4.2
	C159.7,336,158.8,334.8,158.4,333.3L158.4,333.3z M149.6,331.5c-1-2.5-0.7-9.3,0.3-9.9c1.4-0.9,1.9,0.4,2.2,5.9
	C152.4,332.3,150.9,334.8,149.6,331.5L149.6,331.5z M344.6,318.6c-0.4-5.5-0.3-9.4,0.5-11.2l1.2-2.8l0.7,4.5
	c0.4,2.5,0.6,7.2,0.5,10.5c-0.3,7.6-0.3,7.5-1.3,7.5C345.7,327,345,323.2,344.6,318.6L344.6,318.6z M113.4,320.7
	c-0.8-2.1-0.2-4.9,1.1-5.4c1.1-0.4,1.4,5.1,0.3,6.2C114.4,322,113.8,321.6,113.4,320.7L113.4,320.7z M120,310.6
	c0-8.4,1.9-11.7,2.1-3.6c0.2,6.4,0.2,6.7,1.1,7.6c1.4,1.4,0.7,3.4-1.2,3.4C120.2,318,120,317.3,120,310.6L120,310.6z M159,314.6
	c0-0.2,0.8-1,1.8-1.8c1.6-1.2,1.6-1.2,0.4,0.4C159.8,314.9,159,315.4,159,314.6L159,314.6z M140.7,312.2c-1.9-2.1-3.3-9.7-1.9-10.6
	c0.5-0.3,1.2,0.6,1.5,2.1s1.2,3.6,2,4.6c1.3,1.8,1.4,1.7,1-1.1c-0.7-4.6,1.2-4.7,3.6-0.1c2.7,5,2.7,6.2,0.2,5.6
	c-1.1-0.3-2-0.1-2,0.4C145,314.6,142.4,314.1,140.7,312.2L140.7,312.2z M114.7,299.2c0.6-9.8,0.9-11.1,1.9-10
	c0.8,0.8,0.7,16-0.1,18.1C114.8,311.5,114.1,308.2,114.7,299.2L114.7,299.2z M128.4,301.8c0.8-8.5,1.4-10.9,2.6-10.9
	c0.5,0,0.8,3.9,0.6,8.7c-0.2,7.6-0.5,8.8-2.1,9.1C127.9,309.2,127.8,308.6,128.4,301.8L128.4,301.8z M154.8,305.7
	c-1.9-1.6-2.9-3.6-3.4-7c-0.8-5.5,1-16.8,3.2-19.5c1.4-1.7,1.4-1.6,0.8,0.7c-1.3,5.2-1.8,18-0.7,18c0.6,0,1.2-1.9,1.4-4.2
	s0.8-4.3,1.5-4.6c0.8-0.3,1.1,2.2,1,9.2c-0.1,5.3-0.4,9.5-0.7,9.5C157.7,307.9,156.3,306.9,154.8,305.7L154.8,305.7z M197.7,305.1
	c-0.6-2.1,0-3.1,1.7-3.1c0.6,0,1.2,1.1,1.3,2.5C201,307.5,198.5,308,197.7,305.1z M123.6,304.3c-1.1-1.1-0.7-10.4,0.5-14.2
	c2.3-7.3,3.1-9.1,4.1-9.1c0.6,0,0.7,1.3,0.4,3.1c-0.3,1.7-0.6,4-0.6,5c0,1.1-0.7,1.9-1.6,1.9c-1.4,0-1.6,0.9-1.1,6.5
	C125.7,303.6,125.2,305.9,123.6,304.3L123.6,304.3z M185.3,303.2c-0.9-0.6-0.8-2,0.1-5.7l1.3-5l-3-0.7c-3.6-0.8-4.5-2-5.3-7.5
	c-0.7-4.9-0.1-7.9,1.1-4.8c2.8,7.2,3.5,8.3,6.4,9.6c3.1,1.4,3.1,1.5,2.9,7.8C188.5,303.2,187.7,304.7,185.3,303.2L185.3,303.2z
	 M346.7,303.3c-1.8-1.8,0.4-10,2.4-8.8c1.5,0.9,1.2,9.5-0.4,9.5C347.9,304,347,303.7,346.7,303.3L346.7,303.3z M111.2,298.2
	c-0.1-2.1-0.5-5.4-0.8-7.5c-0.6-4.1,1.2-5.4,2-1.5c1.3,6.5,1.4,12.8,0.2,12.8C111.9,302,111.3,300.5,111.2,298.2z M204.6,289.8
	c-0.4-3.7-0.2-6.6,0.3-7.2c1.7-1.7,2.4,0.2,2.8,6.9c0.3,5.2,0.1,6.5-1.1,6.5C205.7,296,205.1,294.3,204.6,289.8L204.6,289.8z
	 M138,290.6c-1.2-3.5-0.5-7,1.2-6.4c0.6,0.2,1.1,1.4,1.3,2.8s0.4,2.9,0.5,3.5C142,294.9,139.5,295.1,138,290.6L138,290.6z
	 M200.3,288c0.4-1.8,0.7-4.1,0.7-5.1s0.5-1.9,1.1-1.9c1.6,0,0.7,9.3-1,9.8C200,291.2,199.8,290.5,200.3,288L200.3,288z M120.5,289
	c-0.6-1,0.3-11.1,1.1-11.9c0.8-0.9,1.2,0.6,1.6,6.7c0.3,4.6,0.1,6.2-0.8,6.2C121.7,290,120.8,289.5,120.5,289L120.5,289z
	 M166.6,287.7c0.4-1,0.9-1.5,1.2-1.2s0,1.1-0.7,1.8C166.1,289.2,166,289.1,166.6,287.7L166.6,287.7z M144.1,285.7
	c-0.5-1.2-0.6-2.6-0.4-3.1c0.6-1,3.2,2.3,3.3,4.1C147,288.8,145,288.1,144.1,285.7L144.1,285.7z M114.4,284.6
	c-0.3-0.8-0.2-4.3,0.1-7.8c0.7-6.6,0.8-8.7,0.4-10.3c-0.4-2,0.1-4.5,0.9-4.5c1,0,5.2,7.3,5.2,9c0,0.7-0.8,0.9-2,0.5
	c-1.8-0.6-2-0.2-2,5.4c0,3.3,0.4,6.3,1,6.6c1.7,1.1,1.1,2.5-1,2.5C115.9,286,114.7,285.4,114.4,284.6L114.4,284.6z M148.6,281.7
	c-0.9-3.3-0.8-6.8,0.2-6.8c0.8,0,2.1,4.7,2.1,7.6C151,284.8,149.3,284.2,148.6,281.7z M190.7,283.3c-0.8-0.8-0.7-8,0.2-11.3
	c1.2-4.5,2.6-3.2,2.3,2c-0.2,2.9,0.1,5.6,0.8,6.2c1.7,1.7,1.3,3.7-0.7,3.7C192.2,284,191,283.7,190.7,283.3L190.7,283.3z
	 M131.7,280.4c-1-1-0.8-8.4,0.2-8.4c0.7,0,2.1,4.8,2.2,7.7C134.2,280.7,132.5,281.2,131.7,280.4z M139.2,279.6
	c-2.7-1.3-3.9-4.4-2.4-5.9c1.3-1.3,5.1,2.7,5.1,5.4c0,1-0.1,1.8-0.2,1.7L139.2,279.6L139.2,279.6z M110.5,274.9
	c-0.8-3.9,0.3-13.9,1.6-13.9c0.5,0,1,3.1,1.1,7s0.2,7.5,0.2,8.2C113.6,278.9,111.1,277.8,110.5,274.9L110.5,274.9z M323.8,275.2
	c-0.3-1,0-2.9,0.5-4.2l1-2.5l0.8,2.5c1.2,4,1.1,6-0.4,6C324.9,277,324,276.2,323.8,275.2L323.8,275.2z M186.5,272.2
	c0.4-2.1,1-6.2,1.4-9.2c0.3-3,1.1-5.4,1.6-5.3c2.8,0.6,0.7,18.3-2.2,18.3C186.1,276,185.9,275.3,186.5,272.2L186.5,272.2z
	 M142,270.8c0-1.8-0.2-2-1-0.8c-0.7,1.1-1.2,1.2-2,0.4c-1.6-1.6-1.7-6.6-0.3-7.1c0.7-0.2,1.2,0.2,1.2,1.1s0.6,2.1,1.3,2.8
	c1.9,1.9,2.8,4.7,1.7,5.3C142.4,272.8,142,272.1,142,270.8L142,270.8z M145.8,269.5c-0.5-2.5,0.4-4,1.6-2.8c1,1,0.8,5.3-0.2,5.3
	C146.6,272,146,270.9,145.8,269.5L145.8,269.5z M128,267.4c0-2.5,2.2-9.4,3-9.4c0.4,0,0.6,2.4,0.5,5.2c-0.1,4-0.6,5.3-1.8,5.6
	C128.6,269,128,268.5,128,267.4z M180,264.2c0-1,0.4-2.2,0.9-2.8c1.5-1.6,4.1-8.6,2.9-7.9c-3.1,1.9-2.5-4.6,0.8-8.7
	c0.7-0.9,1.3-3.5,1.3-5.8s0.4-4.2,0.9-4.2c2.4,0,2.1,6.9-0.5,12.2c-1.8,3.5-1.8,5.9,0,3.5c0.7-1,1.9-1.8,2.6-1.8
	c0.9,0,0.8,0.5-0.4,1.8c-0.9,1-1.7,2.2-1.7,2.8s-0.9,2.7-1.9,4.9c-1.2,2.5-1.5,4.4-1,5.1c1.1,1.4,0.2,2.4-2.2,2.4
	C180.7,266,180,265.3,180,264.2L180,264.2z M117.2,260.7c-1.4-1.7-2.7-11.8-1.5-11.8s3.3,4.5,3.3,7c0,1.1,0.9,2.4,2,3s1.8,1.5,1.4,2
	C121.6,262.4,118.4,262.2,117.2,260.7L117.2,260.7z M121.4,249.5c-0.9-2.5,1-15.8,2.4-16.3c0.9-0.3,1.2,1,1.2,4.6
	c0,3.1,0.6,5.6,1.5,6.5c0.8,0.8,1.5,2.1,1.5,2.9C128,250.6,122.5,252.5,121.4,249.5L121.4,249.5z M132,249c0-0.6,0.4-1,1-1
	s1,0.4,1,1s-0.4,1-1,1S132,249.5,132,249z M322.3,248.4c-0.8-2.2,1.3-4.2,2.8-2.7c1.3,1.3,0.5,4.3-1.1,4.3
	C323.4,250,322.7,249.3,322.3,248.4L322.3,248.4z M138.6,241.2c0.1-5.2,1.1-9.3,2.3-9.3c0.4,0,0.6,1.4,0.3,3s0.1,3.7,0.9,4.6
	c1.1,1.3,1.1,1.7-0.3,2.5c-0.9,0.5-1.4,1.6-1.1,2.4c0.3,0.9,0,1.5-0.8,1.5C138.9,246,138.5,244.6,138.6,241.2L138.6,241.2z
	 M111.7,243.3c-0.4-0.4-0.7-4.3-0.7-8.8c0-6.9,0.3-8.4,2-9.8c2.6-2.2,3.7-2.2,1.7,0c-1.3,1.4-1.5,3.4-1.1,10.5
	C114.1,243.2,113.6,245.3,111.7,243.3L111.7,243.3z M135.7,243.3c-1.2-1.2-0.7-2.3,0.8-1.7c0.8,0.3,1.5,1,1.5,1.5
	C138,244.2,136.6,244.3,135.7,243.3L135.7,243.3z M116.7,242.4c-1.1-1.1-0.8-12.2,0.4-12.9c1.6-1,1.7-0.6,2.1,6.5
	C119.5,241.9,118.6,244.2,116.7,242.4L116.7,242.4z M133,228.8c0-0.7-1-1.8-2.2-2.3c-3.9-1.7-4.1-13.7-0.2-17.4
	c1.6-1.5,1.6-1.4,0.8,0.9c-1.2,3.6-0.9,10.2,0.8,13.1l1.4,2.4l0.3-3.5c0.4-5.4,1.2-8,2.3-8c0.6,0,0.9,2.9,0.7,7.7
	c-0.2,6.4-0.6,7.8-2,8.1C133.8,230,133,229.5,133,228.8L133,228.8z M119.7,225.3c-0.8-0.8-0.9-5.6-0.1-7.8c1.2-3,2.1-1.5,2.2,3.4
	C122,225.6,121.3,227,119.7,225.3L119.7,225.3z M145.4,212.5c-0.3-1.4-1.2-2.5-2-2.5c-2.3,0-3.6-3.8-2.9-8.3
	c0.9-5.9,2.4-10.3,3.9-11.5c1-0.8,1.2-0.1,1.2,2.9c0,2.2-0.4,4-0.8,4s-0.8,1.8-0.8,3.9c0,5.5,2.4,6.1,4.1,0.9
	c0.7-2.2,1.9-4.2,2.6-4.5c1.9-0.7,1.7-10.7-0.2-12.3c-1.9-1.5-1.9-3-0.2-3c2.9,0,4.6,3.5,4.5,9.2c-0.1,4.4-0.4,5.7-1.8,6.1
	c-1.8,0.5-4.1,8.4-4.1,14.3C149,215.7,146.4,216.4,145.4,212.5L145.4,212.5z M123.6,212.1c-1.3-1.4-1.6-2.8-1.1-5.5
	c1-5.3,3.1-4.7,2.5,0.7c-0.1,1,0.4,2.5,1,3.3C128.1,213,125.7,214.4,123.6,212.1L123.6,212.1z M116.7,206.9
	c-0.3-1.2,0.2-3.6,1.1-5.3s1.9-4.2,2.2-5.5s1-2.6,1.7-2.8c1.5-0.5,0.5,6.9-1.1,7.9c-0.6,0.4-1.1,2.2-1.1,3.9
	C119.5,208.9,117.5,210.1,116.7,206.9L116.7,206.9z M132.6,201.2c1.1-4.5,2.4-5,2.4-0.9c0,2.6-0.4,3.7-1.5,3.7
	C132.3,204,132.1,203.3,132.6,201.2z M155,200.1c0-0.5,0.5-2.2,1-3.8s1.1-4.9,1.2-7.3c0.1-2.5,0.8-4.6,1.5-4.8
	c1.8-0.6,1.6,8.9-0.2,13.3C157.3,200.6,155,202.3,155,200.1L155,200.1z M124,194.1c0-1.1,0.5-2.3,1.1-2.6c1.4-0.8,2.9,1.4,2.2,3.2
	C126.5,196.7,124,196.2,124,194.1z M129.7,195.4c-1.1-1.1-0.8-3.5,0.9-8.1c2-5.4,3.9-5.7,2.8-0.5c-0.4,2.1-0.8,4.8-0.9,6.2
	C132.5,195.3,131,196.6,129.7,195.4L129.7,195.4z M125,182.1c0-4.9,5.5-20.1,7.3-20.1c0.5,0,1.3-1.4,1.9-3s1.8-3.4,2.8-4
	s2-2.6,2.4-4.7c0.6-3.9,2.2-7.1,3-6.3c0.2,0.3,0.2,3.4-0.2,7c-0.6,5.9-0.8,6.5-2.8,6.3c-2.4-0.2-4,3.3-2.3,5.3
	c1.3,1.6,0.1,2.5-2.6,1.9c-1.8-0.4-2.4,0-3.2,2.3c-0.5,1.6-0.8,3.7-0.7,4.7s-0.4,3.2-1.1,4.7s-1.4,3.7-1.4,4.8c0,1.2-0.7,2-1.5,2
	C125.7,183,125,182.6,125,182.1L125,182.1z M147,178.2c0-3.8,1-7.2,2.1-7.2c0.5,0,0.6,1.5,0.3,3.4c-0.4,2-0.2,3.7,0.5,4.1
	c1.8,1.1,1.2,2.6-0.9,2.6C147.5,181,147,180.3,147,178.2L147,178.2z M142.3,163.2c0.8-4.1,2.5-8.3,3.4-8.2c0.4,0,0.8,2.5,0.9,5.5
	c0.1,5.2-0.1,5.5-2.4,5.5C142.1,166,141.8,165.7,142.3,163.2L142.3,163.2z M134.6,141.2c-0.3-0.4,0.4-2.1,1.5-3.8l2-2.9l-0.5,3
	c-0.2,1.6-0.5,3.3-0.5,3.8C137,142.2,135.3,142.2,134.6,141.2L134.6,141.2z"/>
</svg>
